<?xml version="1.0" standalone="yes"?>

<svg version="1.1" viewBox="0.0 0.0 687.0 487.0" fill="none" stroke="none" stroke-linecap="square" stroke-miterlimit="10" xmlns="http://www.w3.org/2000/svg" xmlns:xlink="http://www.w3.org/1999/xlink"><clipPath id="p.0"><path d="m0 0l687.0 0l0 487.0l-687.0 0l0 -487.0z" clip-rule="nonzero"></path></clipPath><g clip-path="url(#p.0)"><path fill="#000000" fill-opacity="0.0" d="m0 0l687.0 0l0 487.0l-687.0 0z" fill-rule="nonzero"></path><path fill="#000000" fill-opacity="0.0" d="m8.0 373.41934l672.0 0l0 106.5827l-672.0 0z" fill-rule="nonzero"></path><path stroke="#000000" stroke-width="2.0" stroke-linejoin="round" stroke-linecap="butt" d="m8.0 373.41934l672.0 0l0 106.5827l-672.0 0z" fill-rule="nonzero"></path><path fill="#000000" d="m248.67773 412.5482l11.15625 28.5625l-4.203125 0l-3.109375 -8.59375l-12.078125 0l-3.203125 8.59375l-3.921875 0l11.15625 -28.5625l4.203125 0zm-2.203125 3.4375l-4.828125 13.328125l9.671875 0l-4.75 -13.328125l-0.09375 0zm32.73047 4.4375l0 20.6875l-3.390625 0l0 -17.671875l-10.34375 0l0 17.671875l-3.390625 0l0 -20.6875l17.125 0zm22.246094 0l0 20.6875l-3.390625 0l0 -17.671875l-10.34375 0l0 17.671875l-3.390625 0l0 -20.6875l17.125 0zm13.574219 -0.46875q4.21875 0 5.984375 1.515625q1.765625 1.5 1.765625 4.015625q0 10.765625 0 11.9375q0 1.171875 1.078125 1.171875q0.234375 0 0.5 -0.0625q0.28125 -0.0625 0.53125 -0.140625l0 2.640625q-0.46875 0.28125 -1.078125 0.421875q-0.609375 0.140625 -1.34375 0.140625q-1.40625 0 -2.15625 -0.78125q-0.734375 -0.796875 -0.734375 -2.421875q-1.34375 1.609375 -3.1875 2.40625q-1.828125 0.796875 -4.09375 0.796875q-3.203125 0 -5.015625 -1.515625q-1.8125 -1.515625 -1.8125 -4.28125q0 -2.796875 1.765625 -4.421875q1.78125 -1.640625 8.359375 -2.453125q2.234375 -0.296875 3.015625 -0.859375q0.796875 -0.5625 0.796875 -1.703125q0 -1.71875 -1.109375 -2.5625q-1.09375 -0.859375 -3.5 -0.859375q-2.515625 0 -3.78125 0.96875q-1.25 0.953125 -1.359375 2.96875l-3.390625 0q0.15625 -3.4375 2.421875 -5.171875q2.265625 -1.75 6.34375 -1.75zm-5.96875 15.59375q0 1.4375 1.046875 2.25q1.0625 0.796875 2.953125 0.796875q2.875 0 4.59375 -1.421875q1.71875 -1.4375 1.71875 -3.1875l0 -3.5625q-0.859375 0.609375 -2.234375 0.828125q-1.359375 0.203125 -3.625 0.515625q-2.265625 0.34375 -3.359375 1.25q-1.09375 0.890625 -1.09375 2.53125zm29.1875 -15.59375q4.4375 0 6.984375 3.046875q2.546875 3.046875 2.546875 7.828125q0 4.8125 -2.546875 7.796875q-2.53125 2.96875 -6.875 2.96875q-1.9375 0 -3.78125 -0.796875q-1.84375 -0.796875 -2.921875 -2.4375l-0.078125 0l0 10.6875l-3.40625 0l0 -28.625l3.40625 0l0 2.8125l0.078125 0q0.796875 -1.59375 2.515625 -2.4375q1.734375 -0.84375 4.078125 -0.84375zm-6.796875 10.796875q0 3.59375 1.734375 5.71875q1.75 2.125 4.796875 2.125q2.953125 0 4.5625 -2.109375q1.625 -2.109375 1.625 -5.890625q0 -3.328125 -1.71875 -5.484375q-1.703125 -2.171875 -4.703125 -2.171875q-2.984375 0 -4.640625 2.1875q-1.65625 2.1875 -1.65625 5.625zm28.773438 -10.796875q4.21875 0 5.984375 1.515625q1.765625 1.5 1.765625 4.015625q0 10.765625 0 11.9375q0 1.171875 1.078125 1.171875q0.234375 0 0.5 -0.0625q0.28125 -0.0625 0.53125 -0.140625l0 2.640625q-0.46875 0.28125 -1.078125 0.421875q-0.609375 0.140625 -1.34375 0.140625q-1.40625 0 -2.15625 -0.78125q-0.734375 -0.796875 -0.734375 -2.421875q-1.34375 1.609375 -3.1875 2.40625q-1.828125 0.796875 -4.09375 0.796875q-3.203125 0 -5.015625 -1.515625q-1.8125 -1.515625 -1.8125 -4.28125q0 -2.796875 1.765625 -4.421875q1.78125 -1.640625 8.359375 -2.453125q2.234375 -0.296875 3.015625 -0.859375q0.796875 -0.5625 0.796875 -1.703125q0 -1.71875 -1.109375 -2.5625q-1.09375 -0.859375 -3.5 -0.859375q-2.515625 0 -3.78125 0.96875q-1.25 0.953125 -1.359375 2.96875l-3.390625 0q0.15625 -3.4375 2.421875 -5.171875q2.265625 -1.75 6.34375 -1.75zm-5.96875 15.59375q0 1.4375 1.046875 2.25q1.0625 0.796875 2.953125 0.796875q2.875 0 4.59375 -1.421875q1.71875 -1.4375 1.71875 -3.1875l0 -3.5625q-0.859375 0.609375 -2.234375 0.828125q-1.359375 0.203125 -3.625 0.515625q-2.265625 0.34375 -3.359375 1.25q-1.09375 0.890625 -1.09375 2.53125zm34.796875 -15.125l0 3.015625l-7.40625 0l0 17.671875l-3.390625 0l0 -17.671875l-7.40625 0l0 -3.015625l18.203125 0zm4.3125 0l6.046875 16.921875l0.078125 0l5.796875 -16.921875l3.609375 0l-8.78125 22.890625q-1.390625 3.578125 -2.671875 4.828125q-1.28125 1.25 -3.546875 1.25q-0.625 0 -1.21875 -0.078125q-0.578125 -0.078125 -1.140625 -0.265625l0 -3.125q0.484375 0.15625 0.984375 0.3125q0.5 0.15625 1.0 0.15625q2.078125 0 2.890625 -2.078125q0.828125 -2.0625 1.3125 -3.328125l-8.203125 -20.5625l3.84375 0zm28.59375 -0.46875q4.4375 0 6.984375 3.046875q2.546875 3.046875 2.546875 7.828125q0 4.8125 -2.546875 7.796875q-2.53125 2.96875 -6.875 2.96875q-1.9375 0 -3.78125 -0.796875q-1.84375 -0.796875 -2.921875 -2.4375l-0.078125 0l0 10.6875l-3.40625 0l0 -28.625l3.40625 0l0 2.8125l0.078125 0q0.796875 -1.59375 2.515625 -2.4375q1.734375 -0.84375 4.078125 -0.84375zm-6.796875 10.796875q0 3.59375 1.734375 5.71875q1.75 2.125 4.796875 2.125q2.953125 0 4.5625 -2.109375q1.625 -2.109375 1.625 -5.890625q0 -3.328125 -1.71875 -5.484375q-1.703125 -2.171875 -4.703125 -2.171875q-2.984375 0 -4.640625 2.1875q-1.65625 2.1875 -1.65625 5.625zm28.773438 -10.796875q4.21875 0 5.984375 1.515625q1.765625 1.5 1.765625 4.015625q0 10.765625 0 11.9375q0 1.171875 1.078125 1.171875q0.234375 0 0.5 -0.0625q0.28125 -0.0625 0.53125 -0.140625l0 2.640625q-0.46875 0.28125 -1.078125 0.421875q-0.609375 0.140625 -1.34375 0.140625q-1.40625 0 -2.15625 -0.78125q-0.734375 -0.796875 -0.734375 -2.421875q-1.34375 1.609375 -3.1875 2.40625q-1.828125 0.796875 -4.09375 0.796875q-3.203125 0 -5.015625 -1.515625q-1.8125 -1.515625 -1.8125 -4.28125q0 -2.796875 1.765625 -4.421875q1.78125 -1.640625 8.359375 -2.453125q2.234375 -0.296875 3.015625 -0.859375q0.796875 -0.5625 0.796875 -1.703125q0 -1.71875 -1.109375 -2.5625q-1.09375 -0.859375 -3.5 -0.859375q-2.515625 0 -3.78125 0.96875q-1.25 0.953125 -1.359375 2.96875l-3.390625 0q0.15625 -3.4375 2.421875 -5.171875q2.265625 -1.75 6.34375 -1.75zm-5.96875 15.59375q0 1.4375 1.046875 2.25q1.0625 0.796875 2.953125 0.796875q2.875 0 4.59375 -1.421875q1.71875 -1.4375 1.71875 -3.1875l0 -3.5625q-0.859375 0.609375 -2.234375 0.828125q-1.359375 0.203125 -3.625 0.515625q-2.265625 0.34375 -3.359375 1.25q-1.09375 0.890625 -1.09375 2.53125z" fill-rule="nonzero"></path><path fill="#000000" fill-opacity="0.0" d="m8.0 236.3871l672.0 0l0 106.58269l-672.0 0z" fill-rule="nonzero"></path><path stroke="#000000" stroke-width="2.0" stroke-linejoin="round" stroke-linecap="butt" d="m8.0 236.3871l672.0 0l0 106.58269l-672.0 0z" fill-rule="nonzero"></path><path fill="#000000" d="m139.22266 274.84406q4.15625 0 7.234375 1.921875q3.09375 1.921875 4.765625 5.40625q1.6875 3.484375 1.6875 7.625q0 4.1875 -1.671875 7.65625q-1.671875 3.453125 -4.796875 5.390625q-3.109375 1.921875 -7.21875 1.921875q-4.125 0 -7.21875 -1.90625q-3.09375 -1.921875 -4.78125 -5.390625q-1.671875 -3.46875 -1.671875 -7.671875q0 -6.484375 3.71875 -10.71875q3.71875 -4.234375 9.953125 -4.234375zm-9.890625 14.953125q0 3.1875 1.15625 5.9375q1.171875 2.75 3.421875 4.296875q2.265625 1.53125 5.3125 1.53125q4.578125 0 7.21875 -3.3125q2.65625 -3.3125 2.65625 -8.453125q0 -5.078125 -2.625 -8.40625q-2.609375 -3.34375 -7.296875 -3.34375q-4.59375 0 -7.21875 3.359375q-2.625 3.359375 -2.625 8.390625zm44.765625 -6.40625l0 20.6875l-3.390625 0l0 -17.671875l-10.34375 0l0 17.671875l-3.390625 0l0 -20.6875l17.125 0zm13.714844 -0.46875q4.453125 0 6.90625 3.203125q2.46875 3.203125 2.46875 8.21875l0 0.421875l-15.484375 0l0 0.25q0 2.953125 1.71875 4.75q1.71875 1.796875 4.71875 1.796875q2.265625 0 3.59375 -1.046875q1.34375 -1.0625 1.765625 -3.0l3.359375 0q-0.6875 3.4375 -3.015625 5.25q-2.328125 1.796875 -5.8125 1.796875q-3.265625 0 -5.53125 -1.46875q-2.25 -1.484375 -3.328125 -4.109375q-1.0625 -2.625 -1.0625 -5.375q0 -4.578125 2.75 -7.625q2.75 -3.0625 6.953125 -3.0625zm-6.109375 8.828125l11.875 0q-0.15625 -2.515625 -1.828125 -4.171875q-1.671875 -1.671875 -4.171875 -1.671875q-2.34375 0 -4.015625 1.59375q-1.65625 1.578125 -1.859375 4.25zm29.1875 -8.828125q4.4375 0 6.984375 3.046875q2.546875 3.046875 2.546875 7.828125q0 4.8125 -2.546875 7.796875q-2.53125 2.96875 -6.875 2.96875q-1.9375 0 -3.78125 -0.796875q-1.84375 -0.796875 -2.921875 -2.4375l-0.078125 0l0 10.6875l-3.40625 0l0 -28.625l3.40625 0l0 2.8125l0.078125 0q0.796875 -1.59375 2.515625 -2.4375q1.734375 -0.84375 4.078125 -0.84375zm-6.796875 10.796875q0 3.59375 1.734375 5.71875q1.75 2.125 4.796875 2.125q2.953125 0 4.5625 -2.109375q1.625 -2.109375 1.625 -5.890625q0 -3.328125 -1.71875 -5.484375q-1.703125 -2.171875 -4.703125 -2.171875q-2.984375 0 -4.640625 2.1875q-1.65625 2.1875 -1.65625 5.625zm28.773438 -10.796875q4.21875 0 5.984375 1.515625q1.765625 1.5 1.765625 4.015625q0 10.765625 0 11.9375q0 1.171875 1.078125 1.171875q0.234375 0 0.5 -0.0625q0.28125 -0.0625 0.53125 -0.140625l0 2.640625q-0.46875 0.28125 -1.078125 0.421875q-0.609375 0.140625 -1.34375 0.140625q-1.40625 0 -2.15625 -0.78125q-0.734375 -0.796875 -0.734375 -2.421875q-1.34375 1.609375 -3.1875 2.40625q-1.828125 0.796875 -4.09375 0.796875q-3.203125 0 -5.015625 -1.515625q-1.8125 -1.515625 -1.8125 -4.28125q0 -2.796875 1.765625 -4.421875q1.78125 -1.640625 8.359375 -2.453125q2.234375 -0.296875 3.015625 -0.859375q0.796875 -0.5625 0.796875 -1.703125q0 -1.71875 -1.109375 -2.5625q-1.09375 -0.859375 -3.5 -0.859375q-2.515625 0 -3.78125 0.96875q-1.25 0.953125 -1.359375 2.96875l-3.390625 0q0.15625 -3.4375 2.421875 -5.171875q2.265625 -1.75 6.34375 -1.75zm-5.96875 15.59375q0 1.4375 1.046875 2.25q1.0625 0.796875 2.953125 0.796875q2.875 0 4.59375 -1.421875q1.71875 -1.4375 1.71875 -3.1875l0 -3.5625q-0.859375 0.609375 -2.234375 0.828125q-1.359375 0.203125 -3.625 0.515625q-2.265625 0.34375 -3.359375 1.25q-1.09375 0.890625 -1.09375 2.53125zm22.390625 -15.125l0 17.671875l10.15625 0l0 -17.671875l3.40625 0l0 17.671875l2.6875 0l0 9.578125l-3.390625 0l0 -6.5625l-16.25 0l0 -20.6875l3.390625 0zm22.714844 0l0 16.796875l0.078125 0l9.28125 -16.796875l4.375 0l0 20.6875l-3.390625 0l0 -16.796875l-0.109375 0l-9.265625 16.796875l-4.359375 0l0 -20.6875l3.390625 0zm27.777344 -0.46875q4.6875 0 7.359375 3.03125q2.6875 3.03125 2.6875 7.8125q0 4.828125 -2.734375 7.8125q-2.734375 2.984375 -7.3125 2.984375q-4.484375 0 -7.265625 -2.9375q-2.765625 -2.9375 -2.765625 -7.859375q0 -4.921875 2.703125 -7.875q2.71875 -2.96875 7.328125 -2.96875zm-6.4375 10.84375q0 3.546875 1.8125 5.671875q1.8125 2.125 4.625 2.125q2.796875 0 4.625 -2.125q1.828125 -2.140625 1.828125 -5.671875q0 -3.53125 -1.828125 -5.6875q-1.8125 -2.171875 -4.65625 -2.171875q-2.734375 0 -4.578125 2.125q-1.828125 2.125 -1.828125 5.734375zm23.875 -10.375l0 8.25l10.34375 0l0 -8.25l3.390625 0l0 20.6875l-3.390625 0l0 -9.4375l-10.34375 0l0 9.4375l-3.390625 0l0 -20.6875l3.390625 0zm22.246094 0l0 8.25l10.34375 0l0 -8.25l3.390625 0l0 20.6875l-3.390625 0l0 -9.4375l-10.34375 0l0 9.4375l-3.390625 0l0 -20.6875l3.390625 0zm27.308594 -0.46875q4.21875 0 5.984375 1.515625q1.765625 1.5 1.765625 4.015625q0 10.765625 0 11.9375q0 1.171875 1.078125 1.171875q0.234375 0 0.5 -0.0625q0.28125 -0.0625 0.53125 -0.140625l0 2.640625q-0.46875 0.28125 -1.078125 0.421875q-0.609375 0.140625 -1.34375 0.140625q-1.40625 0 -2.15625 -0.78125q-0.734375 -0.796875 -0.734375 -2.421875q-1.34375 1.609375 -3.1875 2.40625q-1.828125 0.796875 -4.09375 0.796875q-3.203125 0 -5.015625 -1.515625q-1.8125 -1.515625 -1.8125 -4.28125q0 -2.796875 1.765625 -4.421875q1.78125 -1.640625 8.359375 -2.453125q2.234375 -0.296875 3.015625 -0.859375q0.796875 -0.5625 0.796875 -1.703125q0 -1.71875 -1.109375 -2.5625q-1.09375 -0.859375 -3.5 -0.859375q-2.515625 0 -3.78125 0.96875q-1.25 0.953125 -1.359375 2.96875l-3.390625 0q0.15625 -3.4375 2.421875 -5.171875q2.265625 -1.75 6.34375 -1.75zm-5.96875 15.59375q0 1.4375 1.046875 2.25q1.0625 0.796875 2.953125 0.796875q2.875 0 4.59375 -1.421875q1.71875 -1.4375 1.71875 -3.1875l0 -3.5625q-0.859375 0.609375 -2.234375 0.828125q-1.359375 0.203125 -3.625 0.515625q-2.265625 0.34375 -3.359375 1.25q-1.09375 0.890625 -1.09375 2.53125zm35.28125 -15.125l0 20.6875l-3.390625 0l0 -8.4375l-4.53125 0l-6.53125 8.4375l-4.515625 0l7.09375 -8.5625q-2.359375 -0.390625 -3.734375 -1.984375q-1.359375 -1.609375 -1.359375 -4.0q0 -2.84375 1.796875 -4.484375q1.8125 -1.65625 4.90625 -1.65625l10.265625 0zm-13.484375 6.140625q0 1.5 0.9375 2.296875q0.953125 0.796875 2.6875 0.796875l6.46875 0l0 -6.21875l-6.609375 0q-1.5 0 -2.5 0.765625q-0.984375 0.75 -0.984375 2.359375zm38.347656 -6.609375q3.796875 0 6.15625 1.796875q2.359375 1.796875 2.78125 5.3125l-3.515625 0q-0.421875 -2.015625 -1.765625 -3.0625q-1.328125 -1.0625 -3.359375 -1.0625q-3.15625 0 -4.796875 2.125q-1.640625 2.125 -1.640625 5.96875q0 3.4375 1.609375 5.5q1.625 2.0625 4.421875 2.0625q2.484375 0 3.90625 -1.34375q1.4375 -1.34375 1.78125 -3.703125l3.46875 0q-0.5625 3.875 -2.90625 5.96875q-2.34375 2.078125 -6.21875 2.078125q-4.5 0 -7.078125 -2.84375q-2.578125 -2.84375 -2.578125 -7.71875q0 -5.078125 2.59375 -8.078125q2.609375 -3.0 7.140625 -3.0zm16.25 0.46875l0 16.796875l0.078125 0l9.28125 -16.796875l4.375 0l0 20.6875l-3.390625 0l0 -16.796875l-0.109375 0l-9.265625 16.796875l-4.359375 0l0 -20.6875l3.390625 0zm27.480469 -0.46875q3.796875 0 6.15625 1.796875q2.359375 1.796875 2.78125 5.3125l-3.515625 0q-0.421875 -2.015625 -1.765625 -3.0625q-1.328125 -1.0625 -3.359375 -1.0625q-3.15625 0 -4.796875 2.125q-1.640625 2.125 -1.640625 5.96875q0 3.4375 1.609375 5.5q1.625 2.0625 4.421875 2.0625q2.484375 0 3.90625 -1.34375q1.4375 -1.34375 1.78125 -3.703125l3.46875 0q-0.5625 3.875 -2.90625 5.96875q-2.34375 2.078125 -6.21875 2.078125q-4.5 0 -7.078125 -2.84375q-2.578125 -2.84375 -2.578125 -7.71875q0 -5.078125 2.59375 -8.078125q2.609375 -3.0 7.140625 -3.0zm28.65625 0.46875l0 3.015625l-7.40625 0l0 17.671875l-3.390625 0l0 -17.671875l-7.40625 0l0 -3.015625l18.203125 0zm11.3125 -0.46875q4.453125 0 6.90625 3.203125q2.46875 3.203125 2.46875 8.21875l0 0.421875l-15.484375 0l0 0.25q0 2.953125 1.71875 4.75q1.71875 1.796875 4.71875 1.796875q2.265625 0 3.59375 -1.046875q1.34375 -1.0625 1.765625 -3.0l3.359375 0q-0.6875 3.4375 -3.015625 5.25q-2.328125 1.796875 -5.8125 1.796875q-3.265625 0 -5.53125 -1.46875q-2.25 -1.484375 -3.328125 -4.109375q-1.0625 -2.625 -1.0625 -5.375q0 -4.578125 2.75 -7.625q2.75 -3.0625 6.953125 -3.0625zm-6.109375 8.828125l11.875 0q-0.15625 -2.515625 -1.828125 -4.171875q-1.671875 -1.671875 -4.171875 -1.671875q-2.34375 0 -4.015625 1.59375q-1.65625 1.578125 -1.859375 4.25zm23.921875 -8.359375l6.28125 16.875l0.078125 0l6.28125 -16.875l4.84375 0l0 20.6875l-3.40625 0l0 -16.40625l-0.109375 0l-6.140625 16.40625l-3.109375 0l-6.125 -16.40625l-0.125 0l0 16.40625l-3.390625 0l0 -20.6875l4.921875 0zm31.050781 -0.46875q4.21875 0 5.984375 1.515625q1.765625 1.5 1.765625 4.015625q0 10.765625 0 11.9375q0 1.171875 1.078125 1.171875q0.234375 0 0.5 -0.0625q0.28125 -0.0625 0.53125 -0.140625l0 2.640625q-0.46875 0.28125 -1.078125 0.421875q-0.609375 0.140625 -1.34375 0.140625q-1.40625 0 -2.15625 -0.78125q-0.734375 -0.796875 -0.734375 -2.421875q-1.34375 1.609375 -3.1875 2.40625q-1.828125 0.796875 -4.09375 0.796875q-3.203125 0 -5.015625 -1.515625q-1.8125 -1.515625 -1.8125 -4.28125q0 -2.796875 1.765625 -4.421875q1.78125 -1.640625 8.359375 -2.453125q2.234375 -0.296875 3.015625 -0.859375q0.796875 -0.5625 0.796875 -1.703125q0 -1.71875 -1.109375 -2.5625q-1.09375 -0.859375 -3.5 -0.859375q-2.515625 0 -3.78125 0.96875q-1.25 0.953125 -1.359375 2.96875l-3.390625 0q0.15625 -3.4375 2.421875 -5.171875q2.265625 -1.75 6.34375 -1.75zm-5.96875 15.59375q0 1.4375 1.046875 2.25q1.0625 0.796875 2.953125 0.796875q2.875 0 4.59375 -1.421875q1.71875 -1.4375 1.71875 -3.1875l0 -3.5625q-0.859375 0.609375 -2.234375 0.828125q-1.359375 0.203125 -3.625 0.515625q-2.265625 0.34375 -3.359375 1.25q-1.09375 0.890625 -1.09375 2.53125z" fill-rule="nonzero"></path><path fill="#000000" fill-opacity="0.0" d="m8.0 8.422572l213.82677 0l0 197.48032l-213.82677 0z" fill-rule="nonzero"></path><path stroke="#000000" stroke-width="2.0" stroke-linejoin="round" stroke-linecap="butt" d="m8.0 8.422572l213.82677 0l0 197.48032l-213.82677 0z" fill-rule="nonzero"></path><path fill="#000000" d="m39.81182 96.03898l0 11.390625l11.59375 -11.390625l3.9375 0l-9.640625 9.21875l10.015625 13.625l-3.84375 0l-8.25 -11.546875l-3.8125 3.546875l0 8.0l-3.03125 0l0 -22.84375l3.03125 0zm25.0 5.921875q3.75 0 5.890625 2.421875q2.140625 2.421875 2.140625 6.25q0 3.859375 -2.1875 6.25q-2.1875 2.390625 -5.84375 2.390625q-3.59375 0 -5.8125 -2.34375q-2.21875 -2.359375 -2.21875 -6.296875q0 -3.9375 2.171875 -6.296875q2.171875 -2.375 5.859375 -2.375zm-5.15625 8.671875q0 2.84375 1.453125 4.546875q1.453125 1.6875 3.703125 1.6875q2.234375 0 3.6875 -1.703125q1.46875 -1.703125 1.46875 -4.53125q0 -2.828125 -1.453125 -4.546875q-1.453125 -1.734375 -3.734375 -1.734375q-2.1875 0 -3.65625 1.703125q-1.46875 1.6875 -1.46875 4.578125zm19.109375 -8.296875l0 6.59375l8.265625 0l0 -6.59375l2.71875 0l0 16.546875l-2.71875 0l0 -7.546875l-8.265625 0l0 7.546875l-2.71875 0l0 -16.546875l2.71875 0zm27.71875 0l0 2.40625l-5.921875 0l0 14.140625l-2.71875 0l0 -14.140625l-5.921875 0l0 -2.40625l14.5625 0zm9.046875 -0.375q3.5625 0 5.53125 2.5625q1.96875 2.5625 1.96875 6.578125l0 0.328125l-12.390625 0l0 0.203125q0 2.359375 1.375 3.796875q1.375 1.4375 3.78125 1.4375q1.8125 0 2.875 -0.84375q1.078125 -0.84375 1.40625 -2.390625l2.6875 0q-0.546875 2.75 -2.40625 4.203125q-1.859375 1.4375 -4.65625 1.4375q-2.609375 0 -4.421875 -1.171875q-1.796875 -1.1875 -2.65625 -3.28125q-0.859375 -2.109375 -0.859375 -4.3125q0 -3.65625 2.203125 -6.09375q2.203125 -2.453125 5.5625 -2.453125zm-4.890625 7.0625l9.5 0q-0.125 -2.015625 -1.46875 -3.34375q-1.328125 -1.328125 -3.328125 -1.328125q-1.875 0 -3.203125 1.265625q-1.328125 1.265625 -1.5 3.40625zm17.921883 -6.6875l0 13.4375l0.0625 0l7.421875 -13.4375l3.5 0l0 16.546875l-2.71875 0l0 -13.4375l-0.078125 0l-7.421875 13.4375l-3.4843826 0l0 -16.546875l2.7187576 0zm-1.2031326 -6.78125l1.5937576 0q0.390625 1.34375 1.28125 2.0q0.90625 0.65625 2.3125 0.65625q1.15625 0 1.875 -0.578125q0.734375 -0.59375 1.28125 -2.078125l1.640625 0q-0.40625 2.140625 -1.734375 3.28125q-1.3125 1.140625 -3.328125 1.140625q-2.125 0 -3.359375 -1.09375q-1.2343826 -1.09375 -1.5625076 -3.328125zm19.000008 6.78125l0 6.59375l8.265625 0l0 -6.59375l2.71875 0l0 16.546875l-2.71875 0l0 -7.546875l-8.265625 0l0 7.546875l-2.71875 0l0 -16.546875l2.71875 0zm21.953125 -0.375q3.5625 0 5.53125 2.5625q1.96875 2.5625 1.96875 6.578125l0 0.328125l-12.390625 0l0 0.203125q0 2.359375 1.375 3.796875q1.375 1.4375 3.78125 1.4375q1.8125 0 2.875 -0.84375q1.078125 -0.84375 1.40625 -2.390625l2.6875 0q-0.546875 2.75 -2.40625 4.203125q-1.859375 1.4375 -4.65625 1.4375q-2.609375 0 -4.421875 -1.171875q-1.796875 -1.1875 -2.65625 -3.28125q-0.859375 -2.109375 -0.859375 -4.3125q0 -3.65625 2.203125 -6.09375q2.203125 -2.453125 5.5625 -2.453125zm-4.890625 7.0625l9.5 0q-0.125 -2.015625 -1.46875 -3.34375q-1.328125 -1.328125 -3.328125 -1.328125q-1.875 0 -3.203125 1.265625q-1.328125 1.265625 -1.5 3.40625zm23.359375 -7.0625q3.546875 0 5.578125 2.4375q2.046875 2.4375 2.046875 6.265625q0 3.84375 -2.03125 6.234375q-2.03125 2.375 -5.515625 2.375q-1.546875 0 -3.03125 -0.640625q-1.46875 -0.640625 -2.328125 -1.953125l-0.0625 0l0 8.546875l-2.71875 0l0 -22.890625l2.71875 0l0 2.25l0.0625 0q0.640625 -1.28125 2.015625 -1.953125q1.390625 -0.671875 3.265625 -0.671875zm-5.4375 8.640625q0 2.875 1.390625 4.578125q1.390625 1.6875 3.828125 1.6875q2.359375 0 3.65625 -1.6875q1.296875 -1.6875 1.296875 -4.703125q0 -2.671875 -1.375 -4.390625q-1.359375 -1.734375 -3.765625 -1.734375q-2.390625 0 -3.71875 1.75q-1.3125 1.75 -1.3125 4.5z" fill-rule="nonzero"></path><path fill="#000000" fill-opacity="0.0" d="m114.91338 205.9029l0 30.45668" fill-rule="nonzero"></path><path stroke="#000000" stroke-width="2.0" stroke-linejoin="round" stroke-linecap="butt" d="m114.91338 217.9029l0 6.4566803" fill-rule="evenodd"></path><path fill="#000000" stroke="#000000" stroke-width="2.0" stroke-linecap="butt" d="m118.21685 217.9029l-3.3034668 -9.076202l-3.3034592 9.076202z" fill-rule="evenodd"></path><path fill="#000000" stroke="#000000" stroke-width="2.0" stroke-linecap="butt" d="m111.609924 224.35957l3.3034592 9.076202l3.3034668 -9.076202z" fill-rule="evenodd"></path><path fill="#000000" fill-opacity="0.0" d="m344.0 205.9304l0 30.456696" fill-rule="nonzero"></path><path stroke="#000000" stroke-width="2.0" stroke-linejoin="round" stroke-linecap="butt" d="m344.0 217.9304l0 6.4566956" fill-rule="evenodd"></path><path fill="#000000" stroke="#000000" stroke-width="2.0" stroke-linecap="butt" d="m347.30347 217.9304l-3.3034668 -9.076202l-3.3034668 9.076202z" fill-rule="evenodd"></path><path fill="#000000" stroke="#000000" stroke-width="2.0" stroke-linecap="butt" d="m340.69653 224.3871l3.3034668 9.076187l3.3034668 -9.076187z" fill-rule="evenodd"></path><path fill="#000000" fill-opacity="0.0" d="m573.0952 205.92126l0 30.456696" fill-rule="nonzero"></path><path stroke="#000000" stroke-width="2.0" stroke-linejoin="round" stroke-linecap="butt" d="m573.0952 217.92126l0 6.4566956" fill-rule="evenodd"></path><path fill="#000000" stroke="#000000" stroke-width="2.0" stroke-linecap="butt" d="m576.3986 217.92126l-3.3034058 -9.076202l-3.3034668 9.076202z" fill-rule="evenodd"></path><path fill="#000000" stroke="#000000" stroke-width="2.0" stroke-linecap="butt" d="m569.79175 224.37796l3.3034668 9.076187l3.3034058 -9.076187z" fill-rule="evenodd"></path><path fill="#000000" fill-opacity="0.0" d="m344.0 342.9698l0 30.456665" fill-rule="nonzero"></path><path stroke="#000000" stroke-width="2.0" stroke-linejoin="round" stroke-linecap="butt" d="m344.0 354.9698l0 6.4566956" fill-rule="evenodd"></path><path fill="#000000" stroke="#000000" stroke-width="2.0" stroke-linecap="butt" d="m347.30347 354.9698l-3.3034668 -9.076202l-3.3034668 9.076202z" fill-rule="evenodd"></path><path fill="#000000" stroke="#000000" stroke-width="2.0" stroke-linecap="butt" d="m340.69653 361.42648l3.3034668 9.076172l3.3034668 -9.076172z" fill-rule="evenodd"></path><path fill="#000000" fill-opacity="0.0" d="m237.08923 8.454068l213.82678 0l0 197.48032l-213.82678 0z" fill-rule="nonzero"></path><path stroke="#000000" stroke-width="2.0" stroke-linejoin="round" stroke-linecap="butt" d="m237.08923 8.454068l213.82678 0l0 197.48032l-213.82678 0z" fill-rule="nonzero"></path><path fill="#000000" d="m268.90106 96.07048l0 11.390625l11.59375 -11.390625l3.9375 0l-9.640625 9.21875l10.015625 13.625l-3.84375 0l-8.25 -11.546875l-3.8125 3.546875l0 8.0l-3.03125 0l0 -22.84375l3.03125 0zm25.0 5.921875q3.75 0 5.890625 2.421875q2.140625 2.421875 2.140625 6.25q0 3.859375 -2.1875 6.25q-2.1875 2.390625 -5.84375 2.390625q-3.59375 0 -5.8125 -2.34375q-2.21875 -2.359375 -2.21875 -6.296875q0 -3.9375 2.171875 -6.296875q2.171875 -2.375 5.859375 -2.375zm-5.15625 8.671875q0 2.84375 1.453125 4.546875q1.453125 1.6875 3.703125 1.6875q2.234375 0 3.6875 -1.703125q1.46875 -1.703125 1.46875 -4.53125q0 -2.828125 -1.453125 -4.546875q-1.453125 -1.734375 -3.734375 -1.734375q-2.1875 0 -3.65625 1.703125q-1.46875 1.6875 -1.46875 4.578125zm19.109375 -8.296875l0 6.59375l8.265625 0l0 -6.59375l2.71875 0l0 16.546875l-2.71875 0l0 -7.546875l-8.265625 0l0 7.546875l-2.71875 0l0 -16.546875l2.71875 0zm27.71875 0l0 2.40625l-5.921875 0l0 14.140625l-2.71875 0l0 -14.140625l-5.921875 0l0 -2.40625l14.5625 0zm9.046875 -0.375q3.5625 0 5.53125 2.5625q1.96875 2.5625 1.96875 6.578125l0 0.328125l-12.390625 0l0 0.203125q0 2.359375 1.375 3.796875q1.375 1.4375 3.78125 1.4375q1.8125 0 2.875 -0.84375q1.078125 -0.84375 1.40625 -2.390625l2.6875 0q-0.546875 2.75 -2.40625 4.203125q-1.859375 1.4375 -4.65625 1.4375q-2.609375 0 -4.421875 -1.171875q-1.796875 -1.1875 -2.65625 -3.28125q-0.859375 -2.109375 -0.859375 -4.3125q0 -3.65625 2.203125 -6.09375q2.203125 -2.453125 5.5625 -2.453125zm-4.890625 7.0625l9.5 0q-0.125 -2.015625 -1.46875 -3.34375q-1.328125 -1.328125 -3.328125 -1.328125q-1.875 0 -3.203125 1.265625q-1.328125 1.265625 -1.5 3.40625zm17.921875 -6.6875l0 13.4375l0.0625 0l7.421875 -13.4375l3.5 0l0 16.546875l-2.71875 0l0 -13.4375l-0.078125 0l-7.421875 13.4375l-3.484375 0l0 -16.546875l2.71875 0zm-1.203125 -6.78125l1.59375 0q0.390625 1.34375 1.28125 2.0q0.90625 0.65625 2.3125 0.65625q1.15625 0 1.875 -0.578125q0.734375 -0.59375 1.28125 -2.078125l1.640625 0q-0.40625 2.140625 -1.734375 3.28125q-1.3125 1.140625 -3.328125 1.140625q-2.125 0 -3.359375 -1.09375q-1.234375 -1.09375 -1.5625 -3.328125zm19.0 6.78125l0 6.59375l8.265625 0l0 -6.59375l2.71875 0l0 16.546875l-2.71875 0l0 -7.546875l-8.265625 0l0 7.546875l-2.71875 0l0 -16.546875l2.71875 0zm21.953125 -0.375q3.5625 0 5.53125 2.5625q1.96875 2.5625 1.96875 6.578125l0 0.328125l-12.390625 0l0 0.203125q0 2.359375 1.375 3.796875q1.375 1.4375 3.78125 1.4375q1.8125 0 2.875 -0.84375q1.078125 -0.84375 1.40625 -2.390625l2.6875 0q-0.546875 2.75 -2.40625 4.203125q-1.859375 1.4375 -4.65625 1.4375q-2.609375 0 -4.421875 -1.171875q-1.796875 -1.1875 -2.65625 -3.28125q-0.859375 -2.109375 -0.859375 -4.3125q0 -3.65625 2.203125 -6.09375q2.203125 -2.453125 5.5625 -2.453125zm-4.890625 7.0625l9.5 0q-0.125 -2.015625 -1.46875 -3.34375q-1.328125 -1.328125 -3.328125 -1.328125q-1.875 0 -3.203125 1.265625q-1.328125 1.265625 -1.5 3.40625zm23.359375 -7.0625q3.546875 0 5.578125 2.4375q2.046875 2.4375 2.046875 6.265625q0 3.84375 -2.03125 6.234375q-2.03125 2.375 -5.515625 2.375q-1.546875 0 -3.03125 -0.640625q-1.46875 -0.640625 -2.328125 -1.953125l-0.0625 0l0 8.546875l-2.71875 0l0 -22.890625l2.71875 0l0 2.25l0.0625 0q0.640625 -1.28125 2.015625 -1.953125q1.390625 -0.671875 3.265625 -0.671875zm-5.4375 8.640625q0 2.875 1.390625 4.578125q1.390625 1.6875 3.828125 1.6875q2.359375 0 3.65625 -1.6875q1.296875 -1.6875 1.296875 -4.703125q0 -2.671875 -1.375 -4.390625q-1.359375 -1.734375 -3.765625 -1.734375q-2.390625 0 -3.71875 1.75q-1.3125 1.75 -1.3125 4.5z" fill-rule="nonzero"></path><path fill="#000000" fill-opacity="0.0" d="m466.1811 8.443569l213.82678 0l0 197.48032l-213.82678 0z" fill-rule="nonzero"></path><path stroke="#000000" stroke-width="2.0" stroke-linejoin="round" stroke-linecap="butt" d="m466.1811 8.443569l213.82678 0l0 197.48032l-213.82678 0z" fill-rule="nonzero"></path><path fill="#000000" d="m497.99292 96.05998l0 11.390625l11.59375 -11.390625l3.9375 0l-9.640625 9.21875l10.015625 13.625l-3.84375 0l-8.25 -11.546875l-3.8125 3.546875l0 8.0l-3.03125 0l0 -22.84375l3.03125 0zm25.0 5.921875q3.75 0 5.890625 2.421875q2.140625 2.421875 2.140625 6.25q0 3.859375 -2.1875 6.25q-2.1875 2.390625 -5.84375 2.390625q-3.59375 0 -5.8125 -2.34375q-2.21875 -2.359375 -2.21875 -6.296875q0 -3.9375 2.171875 -6.296875q2.171875 -2.375 5.859375 -2.375zm-5.15625 8.671875q0 2.84375 1.453125 4.546875q1.453125 1.6875 3.703125 1.6875q2.234375 0 3.6875 -1.703125q1.46875 -1.703125 1.46875 -4.53125q0 -2.828125 -1.453125 -4.546875q-1.453125 -1.734375 -3.734375 -1.734375q-2.1875 0 -3.65625 1.703125q-1.46875 1.6875 -1.46875 4.578125zm19.109375 -8.296875l0 6.59375l8.265625 0l0 -6.59375l2.71875 0l0 16.546875l-2.71875 0l0 -7.546875l-8.265625 0l0 7.546875l-2.71875 0l0 -16.546875l2.71875 0zm27.71875 0l0 2.40625l-5.921875 0l0 14.140625l-2.71875 0l0 -14.140625l-5.921875 0l0 -2.40625l14.5625 0zm9.046875 -0.375q3.5625 0 5.53125 2.5625q1.96875 2.5625 1.96875 6.578125l0 0.328125l-12.390625 0l0 0.203125q0 2.359375 1.375 3.796875q1.375 1.4375 3.78125 1.4375q1.8125 0 2.875 -0.84375q1.078125 -0.84375 1.40625 -2.390625l2.6875 0q-0.546875 2.75 -2.40625 4.203125q-1.859375 1.4375 -4.65625 1.4375q-2.609375 0 -4.421875 -1.171875q-1.796875 -1.1875 -2.65625 -3.28125q-0.859375 -2.109375 -0.859375 -4.3125q0 -3.65625 2.203125 -6.09375q2.203125 -2.453125 5.5625 -2.453125zm-4.890625 7.0625l9.5 0q-0.125 -2.015625 -1.46875 -3.34375q-1.328125 -1.328125 -3.328125 -1.328125q-1.875 0 -3.203125 1.265625q-1.328125 1.265625 -1.5 3.40625zm17.921875 -6.6875l0 13.4375l0.0625 0l7.421875 -13.4375l3.5 0l0 16.546875l-2.71875 0l0 -13.4375l-0.078125 0l-7.421875 13.4375l-3.484375 0l0 -16.546875l2.71875 0zm-1.203125 -6.78125l1.59375 0q0.390625 1.34375 1.28125 2.0q0.90625 0.65625 2.3125 0.65625q1.15625 0 1.875 -0.578125q0.734375 -0.59375 1.28125 -2.078125l1.640625 0q-0.40625 2.140625 -1.734375 3.28125q-1.3125 1.140625 -3.328125 1.140625q-2.125 0 -3.359375 -1.09375q-1.234375 -1.09375 -1.5625 -3.328125zm19.0 6.78125l0 6.59375l8.265625 0l0 -6.59375l2.71875 0l0 16.546875l-2.71875 0l0 -7.546875l-8.265625 0l0 7.546875l-2.71875 0l0 -16.546875l2.71875 0zm21.953125 -0.375q3.5625 0 5.53125 2.5625q1.96875 2.5625 1.96875 6.578125l0 0.328125l-12.390625 0l0 0.203125q0 2.359375 1.375 3.796875q1.375 1.4375 3.78125 1.4375q1.8125 0 2.875 -0.84375q1.078125 -0.84375 1.40625 -2.390625l2.6875 0q-0.546875 2.75 -2.40625 4.203125q-1.859375 1.4375 -4.65625 1.4375q-2.609375 0 -4.421875 -1.171875q-1.796875 -1.1875 -2.65625 -3.28125q-0.859375 -2.109375 -0.859375 -4.3125q0 -3.65625 2.203125 -6.09375q2.203125 -2.453125 5.5625 -2.453125zm-4.890625 7.0625l9.5 0q-0.125 -2.015625 -1.46875 -3.34375q-1.328125 -1.328125 -3.328125 -1.328125q-1.875 0 -3.203125 1.265625q-1.328125 1.265625 -1.5 3.40625zm23.359375 -7.0625q3.546875 0 5.578125 2.4375q2.046875 2.4375 2.046875 6.265625q0 3.84375 -2.03125 6.234375q-2.03125 2.375 -5.515625 2.375q-1.546875 0 -3.03125 -0.640625q-1.46875 -0.640625 -2.328125 -1.953125l-0.0625 0l0 8.546875l-2.71875 0l0 -22.890625l2.71875 0l0 2.25l0.0625 0q0.640625 -1.28125 2.015625 -1.953125q1.390625 -0.671875 3.265625 -0.671875zm-5.4375 8.640625q0 2.875 1.390625 4.578125q1.390625 1.6875 3.828125 1.6875q2.359375 0 3.65625 -1.6875q1.296875 -1.6875 1.296875 -4.703125q0 -2.671875 -1.375 -4.390625q-1.359375 -1.734375 -3.765625 -1.734375q-2.390625 0 -3.71875 1.75q-1.3125 1.75 -1.3125 4.5z" fill-rule="nonzero"></path></g></svg>

