<?xml version="1.0" standalone="yes"?>

<svg version="1.1" viewBox="0.0 0.0 687.0 486.0" fill="none" stroke="none" stroke-linecap="square" stroke-miterlimit="10" xmlns="http://www.w3.org/2000/svg" xmlns:xlink="http://www.w3.org/1999/xlink"><clipPath id="p.0"><path d="m0 0l687.0 0l0 486.0l-687.0 0l0 -486.0z" clip-rule="nonzero"></path></clipPath><g clip-path="url(#p.0)"><path fill="#000000" fill-opacity="0.0" d="m0 0l687.0 0l0 486.0l-687.0 0z" fill-rule="nonzero"></path><path fill="#000000" fill-opacity="0.0" d="m8.0 373.41934l672.0 0l0 106.5827l-672.0 0z" fill-rule="nonzero"></path><path stroke="#000000" stroke-width="2.0" stroke-linejoin="round" stroke-linecap="butt" d="m8.0 373.41934l672.0 0l0 106.5827l-672.0 0z" fill-rule="nonzero"></path><path fill="#000000" d="m248.67773 412.5482l11.15625 28.5625l-4.203125 0l-3.109375 -8.59375l-12.078125 0l-3.203125 8.59375l-3.921875 0l11.15625 -28.5625l4.203125 0zm-2.203125 3.4375l-4.828125 13.328125l9.671875 0l-4.75 -13.328125l-0.09375 0zm32.73047 4.4375l0 20.6875l-3.390625 0l0 -17.671875l-10.34375 0l0 17.671875l-3.390625 0l0 -20.6875l17.125 0zm22.246094 0l0 20.6875l-3.390625 0l0 -17.671875l-10.34375 0l0 17.671875l-3.390625 0l0 -20.6875l17.125 0zm13.574219 -0.46875q4.21875 0 5.984375 1.515625q1.765625 1.5 1.765625 4.015625q0 10.765625 0 11.9375q0 1.171875 1.078125 1.171875q0.234375 0 0.5 -0.0625q0.28125 -0.0625 0.53125 -0.140625l0 2.640625q-0.46875 0.28125 -1.078125 0.421875q-0.609375 0.140625 -1.34375 0.140625q-1.40625 0 -2.15625 -0.78125q-0.734375 -0.796875 -0.734375 -2.421875q-1.34375 1.609375 -3.1875 2.40625q-1.828125 0.796875 -4.09375 0.796875q-3.203125 0 -5.015625 -1.515625q-1.8125 -1.515625 -1.8125 -4.28125q0 -2.796875 1.765625 -4.421875q1.78125 -1.640625 8.359375 -2.453125q2.234375 -0.296875 3.015625 -0.859375q0.796875 -0.5625 0.796875 -1.703125q0 -1.71875 -1.109375 -2.5625q-1.09375 -0.859375 -3.5 -0.859375q-2.515625 0 -3.78125 0.96875q-1.25 0.953125 -1.359375 2.96875l-3.390625 0q0.15625 -3.4375 2.421875 -5.171875q2.265625 -1.75 6.34375 -1.75zm-5.96875 15.59375q0 1.4375 1.046875 2.25q1.0625 0.796875 2.953125 0.796875q2.875 0 4.59375 -1.421875q1.71875 -1.4375 1.71875 -3.1875l0 -3.5625q-0.859375 0.609375 -2.234375 0.828125q-1.359375 0.203125 -3.625 0.515625q-2.265625 0.34375 -3.359375 1.25q-1.09375 0.890625 -1.09375 2.53125zm29.1875 -15.59375q4.4375 0 6.984375 3.046875q2.546875 3.046875 2.546875 7.828125q0 4.8125 -2.546875 7.796875q-2.53125 2.96875 -6.875 2.96875q-1.9375 0 -3.78125 -0.796875q-1.84375 -0.796875 -2.921875 -2.4375l-0.078125 0l0 10.6875l-3.40625 0l0 -28.625l3.40625 0l0 2.8125l0.078125 0q0.796875 -1.59375 2.515625 -2.4375q1.734375 -0.84375 4.078125 -0.84375zm-6.796875 10.796875q0 3.59375 1.734375 5.71875q1.75 2.125 4.796875 2.125q2.953125 0 4.5625 -2.109375q1.625 -2.109375 1.625 -5.890625q0 -3.328125 -1.71875 -5.484375q-1.703125 -2.171875 -4.703125 -2.171875q-2.984375 0 -4.640625 2.1875q-1.65625 2.1875 -1.65625 5.625zm28.773438 -10.796875q4.21875 0 5.984375 1.515625q1.765625 1.5 1.765625 4.015625q0 10.765625 0 11.9375q0 1.171875 1.078125 1.171875q0.234375 0 0.5 -0.0625q0.28125 -0.0625 0.53125 -0.140625l0 2.640625q-0.46875 0.28125 -1.078125 0.421875q-0.609375 0.140625 -1.34375 0.140625q-1.40625 0 -2.15625 -0.78125q-0.734375 -0.796875 -0.734375 -2.421875q-1.34375 1.609375 -3.1875 2.40625q-1.828125 0.796875 -4.09375 0.796875q-3.203125 0 -5.015625 -1.515625q-1.8125 -1.515625 -1.8125 -4.28125q0 -2.796875 1.765625 -4.421875q1.78125 -1.640625 8.359375 -2.453125q2.234375 -0.296875 3.015625 -0.859375q0.796875 -0.5625 0.796875 -1.703125q0 -1.71875 -1.109375 -2.5625q-1.09375 -0.859375 -3.5 -0.859375q-2.515625 0 -3.78125 0.96875q-1.25 0.953125 -1.359375 2.96875l-3.390625 0q0.15625 -3.4375 2.421875 -5.171875q2.265625 -1.75 6.34375 -1.75zm-5.96875 15.59375q0 1.4375 1.046875 2.25q1.0625 0.796875 2.953125 0.796875q2.875 0 4.59375 -1.421875q1.71875 -1.4375 1.71875 -3.1875l0 -3.5625q-0.859375 0.609375 -2.234375 0.828125q-1.359375 0.203125 -3.625 0.515625q-2.265625 0.34375 -3.359375 1.25q-1.09375 0.890625 -1.09375 2.53125zm34.796875 -15.125l0 3.015625l-7.40625 0l0 17.671875l-3.390625 0l0 -17.671875l-7.40625 0l0 -3.015625l18.203125 0zm4.3125 0l6.046875 16.921875l0.078125 0l5.796875 -16.921875l3.609375 0l-8.78125 22.890625q-1.390625 3.578125 -2.671875 4.828125q-1.28125 1.25 -3.546875 1.25q-0.625 0 -1.21875 -0.078125q-0.578125 -0.078125 -1.140625 -0.265625l0 -3.125q0.484375 0.15625 0.984375 0.3125q0.5 0.15625 1.0 0.15625q2.078125 0 2.890625 -2.078125q0.828125 -2.0625 1.3125 -3.328125l-8.203125 -20.5625l3.84375 0zm28.59375 -0.46875q4.4375 0 6.984375 3.046875q2.546875 3.046875 2.546875 7.828125q0 4.8125 -2.546875 7.796875q-2.53125 2.96875 -6.875 2.96875q-1.9375 0 -3.78125 -0.796875q-1.84375 -0.796875 -2.921875 -2.4375l-0.078125 0l0 10.6875l-3.40625 0l0 -28.625l3.40625 0l0 2.8125l0.078125 0q0.796875 -1.59375 2.515625 -2.4375q1.734375 -0.84375 4.078125 -0.84375zm-6.796875 10.796875q0 3.59375 1.734375 5.71875q1.75 2.125 4.796875 2.125q2.953125 0 4.5625 -2.109375q1.625 -2.109375 1.625 -5.890625q0 -3.328125 -1.71875 -5.484375q-1.703125 -2.171875 -4.703125 -2.171875q-2.984375 0 -4.640625 2.1875q-1.65625 2.1875 -1.65625 5.625zm28.773438 -10.796875q4.21875 0 5.984375 1.515625q1.765625 1.5 1.765625 4.015625q0 10.765625 0 11.9375q0 1.171875 1.078125 1.171875q0.234375 0 0.5 -0.0625q0.28125 -0.0625 0.53125 -0.140625l0 2.640625q-0.46875 0.28125 -1.078125 0.421875q-0.609375 0.140625 -1.34375 0.140625q-1.40625 0 -2.15625 -0.78125q-0.734375 -0.796875 -0.734375 -2.421875q-1.34375 1.609375 -3.1875 2.40625q-1.828125 0.796875 -4.09375 0.796875q-3.203125 0 -5.015625 -1.515625q-1.8125 -1.515625 -1.8125 -4.28125q0 -2.796875 1.765625 -4.421875q1.78125 -1.640625 8.359375 -2.453125q2.234375 -0.296875 3.015625 -0.859375q0.796875 -0.5625 0.796875 -1.703125q0 -1.71875 -1.109375 -2.5625q-1.09375 -0.859375 -3.5 -0.859375q-2.515625 0 -3.78125 0.96875q-1.25 0.953125 -1.359375 2.96875l-3.390625 0q0.15625 -3.4375 2.421875 -5.171875q2.265625 -1.75 6.34375 -1.75zm-5.96875 15.59375q0 1.4375 1.046875 2.25q1.0625 0.796875 2.953125 0.796875q2.875 0 4.59375 -1.421875q1.71875 -1.4375 1.71875 -3.1875l0 -3.5625q-0.859375 0.609375 -2.234375 0.828125q-1.359375 0.203125 -3.625 0.515625q-2.265625 0.34375 -3.359375 1.25q-1.09375 0.890625 -1.09375 2.53125z" fill-rule="nonzero"></path><path fill="#000000" fill-opacity="0.0" d="m8.0 236.38583l442.92914 0l0 106.58267l-442.92914 0z" fill-rule="nonzero"></path><path stroke="#000000" stroke-width="2.0" stroke-linejoin="round" stroke-linecap="butt" d="m8.0 236.38583l442.92914 0l0 106.58267l-442.92914 0z" fill-rule="nonzero"></path><path fill="#000000" d="m112.31644 279.5428q2.8125 0 4.890625 1.296875q2.09375 1.296875 3.21875 3.65625q1.140625 2.34375 1.140625 5.140625q0 2.828125 -1.125 5.171875q-1.125 2.328125 -3.234375 3.640625q-2.109375 1.296875 -4.890625 1.296875q-2.78125 0 -4.875 -1.296875q-2.078125 -1.296875 -3.21875 -3.625q-1.125 -2.34375 -1.125 -5.1875q0 -4.375 2.5 -7.234375q2.515625 -2.859375 6.71875 -2.859375zm-6.65625 10.09375q0 2.15625 0.78125 4.015625q0.78125 1.859375 2.296875 2.890625q1.53125 1.03125 3.578125 1.03125q3.109375 0 4.890625 -2.234375q1.78125 -2.234375 1.78125 -5.703125q0 -3.421875 -1.765625 -5.671875q-1.765625 -2.265625 -4.921875 -2.265625q-3.109375 0 -4.875 2.28125q-1.765625 2.265625 -1.765625 5.65625zm30.424377 -9.640625q-0.21875 1.28125 -1.1875 1.984375q-0.953125 0.6875 -3.546875 0.9375q-2.609375 0.25 -3.96875 1.453125q-1.359375 1.1875 -1.921875 4.140625l0.078125 0q0.8125 -1.515625 2.1875 -2.328125q1.390625 -0.8125 3.078125 -0.8125q2.734375 0 4.390625 1.84375q1.65625 1.84375 1.65625 5.078125q0 3.3125 -1.875 5.3125q-1.875 2.0 -4.875 2.0q-3.1875 0 -4.96875 -2.015625q-1.78125 -2.015625 -1.78125 -5.8125q0 -5.234375 1.703125 -7.6875q1.703125 -2.453125 5.078125 -2.984375l1.890625 -0.28125q0.953125 -0.15625 1.296875 -0.3125q0.34375 -0.171875 0.46875 -0.515625l2.296875 0zm-10.390625 12.375q0 2.34375 1.203125 3.8125q1.21875 1.453125 3.234375 1.453125q1.859375 0 3.078125 -1.453125q1.21875 -1.46875 1.21875 -3.84375q0 -2.28125 -1.09375 -3.65625q-1.09375 -1.390625 -3.109375 -1.390625q-1.96875 0 -3.25 1.390625q-1.28125 1.375 -1.28125 3.6875zm19.681519 -7.375q3.171875 0 4.96875 2.046875q1.8125 2.046875 1.8125 5.265625q0 3.265625 -1.84375 5.28125q-1.84375 2.015625 -4.9375 2.015625q-3.03125 0 -4.90625 -1.984375q-1.875 -1.984375 -1.875 -5.3125q0 -3.3125 1.828125 -5.3125q1.84375 -2.0 4.953125 -2.0zm-4.34375 7.3125q0 2.40625 1.21875 3.84375q1.234375 1.421875 3.125 1.421875q1.890625 0 3.125 -1.4375q1.234375 -1.4375 1.234375 -3.828125q0 -2.375 -1.234375 -3.828125q-1.21875 -1.46875 -3.15625 -1.46875q-1.84375 0 -3.078125 1.4375q-1.234375 1.421875 -1.234375 3.859375zm20.509644 -7.3125q3.0 0 4.71875 2.0625q1.71875 2.046875 1.71875 5.28125q0 3.25 -1.71875 5.265625q-1.71875 2.0 -4.65625 2.0q-1.296875 0 -2.546875 -0.53125q-1.25 -0.546875 -1.96875 -1.65625l-0.0625 0l0 7.21875l-2.28125 0l0 -19.328125l2.28125 0l0 1.90625l0.0625 0q0.53125 -1.078125 1.703125 -1.640625q1.171875 -0.578125 2.75 -0.578125zm-4.59375 7.296875q0 2.421875 1.171875 3.859375q1.1875 1.421875 3.234375 1.421875q2.0 0 3.09375 -1.421875q1.09375 -1.421875 1.09375 -3.96875q0 -2.25 -1.15625 -3.703125q-1.15625 -1.46875 -3.1875 -1.46875q-2.015625 0 -3.140625 1.484375q-1.109375 1.46875 -1.109375 3.796875zm14.597992 -6.984375l4.0625 11.421875l0.0625 0l3.90625 -11.421875l2.453125 0l-5.9375 15.453125q-0.9375 2.421875 -1.8125 3.265625q-0.859375 0.84375 -2.375 0.84375q-0.421875 0 -0.828125 -0.0625q-0.390625 -0.046875 -0.78125 -0.171875l0 -2.109375q0.34375 0.09375 0.671875 0.203125q0.34375 0.109375 0.671875 0.109375q1.40625 0 1.953125 -1.40625q0.5625 -1.390625 0.890625 -2.234375l-5.53125 -13.890625l2.59375 0zm23.859375 0l0 11.9375l1.796875 0l0 6.46875l-2.28125 0l0 -4.4375l-10.4375 0l0 4.4375l-2.296875 0l0 -6.46875l1.515625 0q0.921875 -2.09375 1.34375 -4.109375q0.421875 -2.03125 0.421875 -4.25l0 -3.578125l9.9375 0zm-2.296875 11.9375l0 -9.90625l-5.375 0l0 0.953125q0 3.171875 -0.4375 5.1875q-0.4375 2.0 -1.21875 3.765625l7.03125 0zm12.009644 -12.25q3.171875 0 4.96875 2.046875q1.8125 2.046875 1.8125 5.265625q0 3.265625 -1.84375 5.28125q-1.84375 2.015625 -4.9375 2.015625q-3.03125 0 -4.90625 -1.984375q-1.875 -1.984375 -1.875 -5.3125q0 -3.3125 1.828125 -5.3125q1.84375 -2.0 4.953125 -2.0zm-4.34375 7.3125q0 2.40625 1.21875 3.84375q1.234375 1.421875 3.125 1.421875q1.890625 0 3.125 -1.4375q1.234375 -1.4375 1.234375 -3.828125q0 -2.375 -1.234375 -3.828125q-1.21875 -1.46875 -3.15625 -1.46875q-1.84375 0 -3.078125 1.4375q-1.234375 1.421875 -1.234375 3.859375zm20.212769 -7.0q2.21875 0 3.421875 0.84375q1.203125 0.828125 1.203125 2.5625q0 1.125 -0.546875 1.859375q-0.53125 0.734375 -1.484375 1.171875l0 0.03125q1.359375 0.375 2.0 1.234375q0.640625 0.859375 0.640625 2.171875q0 1.828125 -1.234375 2.96875q-1.21875 1.125 -2.90625 1.125l-7.671875 0l0 -13.96875l6.578125 0zm-0.09375 5.65625q1.171875 0 1.78125 -0.453125q0.609375 -0.46875 0.609375 -1.40625q0 -0.9375 -0.640625 -1.375q-0.640625 -0.4375 -1.828125 -0.4375l-4.171875 0l0 3.671875l4.25 0zm0.75 6.328125q0.984375 0 1.625 -0.578125q0.640625 -0.59375 0.640625 -1.59375q0 -1.078125 -0.734375 -1.640625q-0.734375 -0.578125 -1.9375 -0.578125l-4.59375 0l0 4.390625l5.0 0zm12.786072 -12.296875q2.84375 0 4.03125 1.015625q1.203125 1.015625 1.203125 2.71875q0 7.265625 0 8.0625q0 0.78125 0.71875 0.78125q0.15625 0 0.34375 -0.03125q0.1875 -0.046875 0.359375 -0.09375l0 1.78125q-0.3125 0.171875 -0.734375 0.265625q-0.40625 0.109375 -0.90625 0.109375q-0.9375 0 -1.453125 -0.53125q-0.5 -0.53125 -0.5 -1.625q-0.90625 1.078125 -2.140625 1.625q-1.234375 0.53125 -2.765625 0.53125q-2.171875 0 -3.40625 -1.015625q-1.21875 -1.03125 -1.21875 -2.90625q0 -1.875 1.203125 -2.96875q1.203125 -1.109375 5.640625 -1.671875q1.515625 -0.1875 2.046875 -0.5625q0.53125 -0.390625 0.53125 -1.15625q0 -1.15625 -0.75 -1.734375q-0.734375 -0.578125 -2.359375 -0.578125q-1.703125 0 -2.5625 0.65625q-0.84375 0.640625 -0.90625 2.0l-2.296875 0q0.109375 -2.328125 1.640625 -3.5q1.53125 -1.171875 4.28125 -1.171875zm-4.03125 10.53125q0 0.96875 0.703125 1.515625q0.71875 0.53125 2.0 0.53125q1.9375 0 3.09375 -0.953125q1.15625 -0.96875 1.15625 -2.15625l0 -2.40625q-0.578125 0.421875 -1.5 0.5625q-0.921875 0.140625 -2.453125 0.359375q-1.53125 0.21875 -2.265625 0.828125q-0.734375 0.609375 -0.734375 1.71875zm14.926697 -10.21875l0 5.578125l6.984375 0l0 -5.578125l2.296875 0l0 13.96875l-2.296875 0l0 -6.375l-6.984375 0l0 6.375l-2.28125 0l0 -13.96875l2.28125 0zm14.824951 0l0 11.34375l0.0625 0l6.265625 -11.34375l2.953125 0l0 13.96875l-2.296875 0l0 -11.34375l-0.078125 0l-6.25 11.34375l-2.9375 0l0 -13.96875l2.28125 0zm18.340546 -0.3125q3.0 0 4.65625 2.171875q1.671875 2.15625 1.671875 5.546875l0 0.28125l-10.453125 0l0 0.15625q0 2.0 1.15625 3.21875q1.15625 1.203125 3.1875 1.203125q1.53125 0 2.4375 -0.703125q0.90625 -0.71875 1.171875 -2.03125l2.265625 0q-0.453125 2.328125 -2.03125 3.546875q-1.5625 1.21875 -3.921875 1.21875q-2.203125 0 -3.734375 -0.984375q-1.515625 -1.0 -2.25 -2.765625q-0.71875 -1.78125 -0.71875 -3.640625q0 -3.09375 1.859375 -5.15625q1.859375 -2.0625 4.703125 -2.0625zm-4.125 5.96875l8.015625 0q-0.109375 -1.703125 -1.234375 -2.828125q-1.125 -1.125 -2.8125 -1.125q-1.59375 0 -2.71875 1.078125q-1.109375 1.0625 -1.25 2.875zm21.067047 -10.96875l5.515625 16.703125l0.046875 0l5.5625 -16.703125l2.671875 0l-6.859375 19.28125l-2.90625 0l-6.8125 -19.28125l2.78125 0zm19.20456 0l6.078125 16.203125l6.09375 -16.203125l3.515625 0l0 19.28125l-2.421875 0l0 -16.046875l-0.0625 0l-6.015625 16.046875l-2.1875 0l-6.03125 -16.046875l-0.046875 0l0 16.046875l-2.4375 0l0 -19.28125l3.515625 0zm35.12607 0l7.53125 19.28125l-2.828125 0l-2.09375 -5.796875l-8.171875 0l-2.15625 5.796875l-2.640625 0l7.53125 -19.28125l2.828125 0zm-1.484375 2.328125l-3.25 8.984375l6.515625 0l-3.203125 -8.984375l-0.0625 0z" fill-rule="nonzero"></path><path fill="#000000" fill-opacity="0.0" d="m8.0 114.01837l213.82677 0l0 91.90552l-213.82677 0z" fill-rule="nonzero"></path><path stroke="#000000" stroke-width="2.0" stroke-linejoin="round" stroke-linecap="butt" d="m8.0 114.01837l213.82677 0l0 91.90552l-213.82677 0z" fill-rule="nonzero"></path><path fill="#000000" d="m49.24949 150.28987l0 2.171875l-10.0625 0l0 17.109375l-2.5625 0l0 -19.28125l12.625 0zm7.723419 5.0q3.171875 0 4.96875 2.046875q1.8125 2.046875 1.8125 5.265625q0 3.265625 -1.84375 5.28125q-1.84375 2.015625 -4.9375 2.015625q-3.03125 0 -4.90625 -1.984375q-1.875 -1.984375 -1.875 -5.3125q0 -3.3125 1.828125 -5.3125q1.84375 -2.0 4.953125 -2.0zm-4.34375 7.3125q0 2.40625 1.21875 3.84375q1.234375 1.421875 3.125 1.421875q1.890625 0 3.125 -1.4375q1.234375 -1.4375 1.234375 -3.828125q0 -2.375 -1.234375 -3.828125q-1.21875 -1.46875 -3.15625 -1.46875q-1.84375 0 -3.078125 1.4375q-1.234375 1.421875 -1.234375 3.859375zm19.447144 -7.3125q2.5625 0 4.15625 1.21875q1.59375 1.203125 1.875 3.578125l-2.375 0q-0.28125 -1.359375 -1.1875 -2.0625q-0.890625 -0.71875 -2.265625 -0.71875q-2.140625 0 -3.25 1.4375q-1.09375 1.421875 -1.09375 4.03125q0 2.3125 1.09375 3.703125q1.09375 1.390625 2.96875 1.390625q1.6875 0 2.65625 -0.890625q0.96875 -0.90625 1.1875 -2.515625l2.34375 0q-0.375 2.625 -1.96875 4.03125q-1.578125 1.40625 -4.1875 1.40625q-3.046875 0 -4.796875 -1.90625q-1.734375 -1.921875 -1.734375 -5.21875q0 -3.4375 1.765625 -5.453125q1.765625 -2.03125 4.8125 -2.03125zm19.161072 0.3125l0 2.03125l-5.0 0l0 11.9375l-2.28125 0l0 -11.9375l-5.0 0l0 -2.03125l12.28125 0zm7.479553 -0.3125q3.0 0 4.65625 2.171875q1.671875 2.15625 1.671875 5.546875l0 0.28125l-10.453125 0l0 0.15625q0 2.0 1.15625 3.21875q1.15625 1.203125 3.1875 1.203125q1.53125 0 2.4375 -0.703125q0.90625 -0.71875 1.171875 -2.03125l2.265625 0q-0.453125 2.328125 -2.03125 3.546875q-1.5625 1.21875 -3.921875 1.21875q-2.203125 0 -3.734375 -0.984375q-1.515625 -1.0 -2.25 -2.765625q-0.71875 -1.78125 -0.71875 -3.640625q0 -3.09375 1.859375 -5.15625q1.859375 -2.0625 4.703125 -2.0625zm-4.125 5.96875l8.015625 0q-0.109375 -1.703125 -1.234375 -2.828125q-1.125 -1.125 -2.8125 -1.125q-1.59375 0 -2.71875 1.078125q-1.109375 1.0625 -1.25 2.875zm19.223572 -5.65625q2.21875 0 3.421875 0.84375q1.203125 0.828125 1.203125 2.5625q0 1.125 -0.546875 1.859375q-0.53125 0.734375 -1.484375 1.171875l0 0.03125q1.359375 0.375 2.0 1.234375q0.640625 0.859375 0.640625 2.171875q0 1.828125 -1.234375 2.96875q-1.21875 1.125 -2.90625 1.125l-7.671875 0l0 -13.96875l6.578125 0zm-0.09375 5.65625q1.171875 0 1.78125 -0.453125q0.609375 -0.46875 0.609375 -1.40625q0 -0.9375 -0.640625 -1.375q-0.640625 -0.4375 -1.828125 -0.4375l-4.171875 0l0 3.671875l4.25 0zm0.75 6.328125q0.984375 0 1.625 -0.578125q0.640625 -0.59375 0.640625 -1.59375q0 -1.078125 -0.734375 -1.640625q-0.734375 -0.578125 -1.9375 -0.578125l-4.59375 0l0 4.390625l5.0 0zm12.786072 -12.296875q2.8437424 0 4.0312424 1.015625q1.203125 1.015625 1.203125 2.71875q0 7.265625 0 8.0625q0 0.78125 0.71875 0.78125q0.15625 0 0.34375 -0.03125q0.1875 -0.046875 0.359375 -0.09375l0 1.78125q-0.3125 0.171875 -0.734375 0.265625q-0.40625 0.109375 -0.90625 0.109375q-0.9375 0 -1.453125 -0.53125q-0.5 -0.53125 -0.5 -1.625q-0.90625 1.078125 -2.140625 1.625q-1.2343674 0.53125 -2.7656174 0.53125q-2.171875 0 -3.40625 -1.015625q-1.21875 -1.03125 -1.21875 -2.90625q0 -1.875 1.203125 -2.96875q1.203125 -1.109375 5.640625 -1.671875q1.5156174 -0.1875 2.0468674 -0.5625q0.53125 -0.390625 0.53125 -1.15625q0 -1.15625 -0.75 -1.734375q-0.734375 -0.578125 -2.3593674 -0.578125q-1.703125 0 -2.5625 0.65625q-0.84375 0.640625 -0.90625 2.0l-2.296875 0q0.109375 -2.328125 1.640625 -3.5q1.53125 -1.171875 4.28125 -1.171875zm-4.03125 10.53125q0 0.96875 0.703125 1.515625q0.71875 0.53125 2.0 0.53125q1.9375 0 3.0937424 -0.953125q1.15625 -0.96875 1.15625 -2.15625l0 -2.40625q-0.578125 0.421875 -1.5 0.5625q-0.9218674 0.140625 -2.4531174 0.359375q-1.53125 0.21875 -2.265625 0.828125q-0.734375 0.609375 -0.734375 1.71875zm23.629814 -10.21875l0 13.96875l-2.296875 0l0 -5.703125l-3.046875 0l-4.40625 5.703125l-3.046875 0l4.78125 -5.78125q-1.59375 -0.25 -2.515625 -1.328125q-0.921875 -1.09375 -0.921875 -2.71875q0 -1.90625 1.21875 -3.015625q1.21875 -1.125 3.296875 -1.125l6.9375 0zm-9.109375 4.140625q0 1.015625 0.640625 1.5625q0.640625 0.546875 1.8125 0.546875l4.359375 0l0 -4.21875l-4.453125 0q-1.015625 0 -1.6875 0.515625q-0.671875 0.515625 -0.671875 1.59375zm28.31186 -9.90625q2.8125 0 4.890625 1.296875q2.09375 1.296875 3.21875 3.65625q1.140625 2.34375 1.140625 5.140625q0 2.828125 -1.125 5.171875q-1.125 2.328125 -3.234375 3.640625q-2.109375 1.296875 -4.890625 1.296875q-2.78125 0 -4.875 -1.296875q-2.078125 -1.296875 -3.21875 -3.625q-1.125 -2.34375 -1.125 -5.1875q0 -4.375 2.5 -7.234375q2.515625 -2.859375 6.71875 -2.859375zm-6.65625 10.09375q0 2.15625 0.78125 4.015625q0.78125 1.859375 2.296875 2.890625q1.53125 1.03125 3.578125 1.03125q3.109375 0 4.890625 -2.234375q1.78125 -2.234375 1.78125 -5.703125q0 -3.421875 -1.765625 -5.671875q-1.765625 -2.265625 -4.921875 -2.265625q-3.109375 0 -4.875 2.28125q-1.765625 2.265625 -1.765625 5.65625zm26.940002 -10.09375q3.203125 0 5.359375 1.671875q2.15625 1.65625 2.578125 4.59375l-2.5625 0q-0.421875 -1.984375 -1.859375 -3.046875q-1.421875 -1.0625 -3.546875 -1.0625q-3.046875 0 -4.78125 2.171875q-1.734375 2.15625 -1.734375 5.640625q0 3.6875 1.6875 5.875q1.703125 2.1875 4.859375 2.1875q2.359375 0 3.859375 -1.484375q1.515625 -1.5 1.703125 -4.078125l2.578125 0q-0.421875 3.75 -2.609375 5.75q-2.1875 1.984375 -5.734375 1.984375q-4.140625 0 -6.53125 -2.734375q-2.390625 -2.75 -2.390625 -7.3125q0 -4.5 2.46875 -7.328125q2.46875 -2.828125 6.65625 -2.828125z" fill-rule="nonzero"></path><path fill="#000000" fill-opacity="0.0" d="m114.91338 205.92389l0 30.456696" fill-rule="nonzero"></path><path stroke="#000000" stroke-width="2.0" stroke-linejoin="round" stroke-linecap="butt" d="m114.91338 217.92389l0 6.4566956" fill-rule="evenodd"></path><path fill="#000000" stroke="#000000" stroke-width="2.0" stroke-linecap="butt" d="m118.21685 217.92389l-3.3034668 -9.076202l-3.3034592 9.076202z" fill-rule="evenodd"></path><path fill="#000000" stroke="#000000" stroke-width="2.0" stroke-linecap="butt" d="m111.609924 224.38058l3.3034592 9.076187l3.3034668 -9.076187z" fill-rule="evenodd"></path><path fill="#000000" fill-opacity="0.0" d="m573.0952 205.92126l0 30.456696" fill-rule="nonzero"></path><path stroke="#000000" stroke-width="2.0" stroke-linejoin="round" stroke-linecap="butt" d="m573.0952 217.92126l0 6.4566956" fill-rule="evenodd"></path><path fill="#000000" stroke="#000000" stroke-width="2.0" stroke-linecap="butt" d="m576.3986 217.92126l-3.3034058 -9.076202l-3.3034668 9.076202z" fill-rule="evenodd"></path><path fill="#000000" stroke="#000000" stroke-width="2.0" stroke-linecap="butt" d="m569.79175 224.37796l3.3034668 9.076187l3.3034058 -9.076187z" fill-rule="evenodd"></path><path fill="#000000" fill-opacity="0.0" d="m466.17847 236.37796l213.82678 0l0 106.58267l-213.82678 0z" fill-rule="nonzero"></path><path stroke="#000000" stroke-width="2.0" stroke-linejoin="round" stroke-linecap="butt" d="m466.17847 236.37796l213.82678 0l0 106.58267l-213.82678 0z" fill-rule="nonzero"></path><path fill="#000000" d="m499.7403 266.1624q2.484375 0 4.328125 1.15625q1.859375 1.15625 2.859375 3.25q1.015625 2.09375 1.015625 4.578125q0 2.5 -1.0 4.578125q-1.0 2.078125 -2.875 3.234375q-1.859375 1.15625 -4.328125 1.15625q-2.484375 0 -4.34375 -1.140625q-1.84375 -1.15625 -2.859375 -3.234375q-1.0 -2.078125 -1.0 -4.59375q0 -3.890625 2.21875 -6.4375q2.234375 -2.546875 5.984375 -2.546875zm-5.9375 8.984375q0 1.90625 0.6875 3.5625q0.703125 1.640625 2.0625 2.5625q1.359375 0.921875 3.1875 0.921875q2.75 0 4.328125 -1.984375q1.59375 -1.984375 1.59375 -5.0625q0 -3.046875 -1.578125 -5.046875q-1.5625 -2.015625 -4.375 -2.015625q-2.75 0 -4.328125 2.015625q-1.578125 2.015625 -1.578125 5.046875zm27.28125 -8.578125q-0.1875 1.140625 -1.046875 1.765625q-0.84375 0.609375 -3.15625 0.828125q-2.328125 0.21875 -3.53125 1.28125q-1.203125 1.0625 -1.703125 3.6875l0.0625 0q0.734375 -1.328125 1.953125 -2.046875q1.21875 -0.734375 2.734375 -0.734375q2.421875 0 3.890625 1.640625q1.484375 1.640625 1.484375 4.5q0 2.953125 -1.671875 4.734375q-1.65625 1.78125 -4.328125 1.78125q-2.84375 0 -4.421875 -1.796875q-1.578125 -1.796875 -1.578125 -5.171875q0 -4.65625 1.515625 -6.828125q1.515625 -2.1875 4.5 -2.65625l1.6875 -0.25q0.84375 -0.125 1.140625 -0.265625q0.3125 -0.15625 0.4375 -0.46875l2.03125 0zm-9.234375 11.0q0 2.078125 1.078125 3.375q1.078125 1.296875 2.859375 1.296875q1.671875 0 2.75 -1.296875q1.078125 -1.296875 1.078125 -3.40625q0 -2.015625 -0.984375 -3.25q-0.96875 -1.234375 -2.75 -1.234375q-1.75 0 -2.890625 1.234375q-1.140625 1.234375 -1.140625 3.28125zm17.671875 -6.546875q2.8125 0 4.421875 1.8125q1.609375 1.8125 1.609375 4.6875q0 2.890625 -1.640625 4.6875q-1.640625 1.796875 -4.390625 1.796875q-2.6875 0 -4.359375 -1.765625q-1.65625 -1.765625 -1.65625 -4.71875q0 -2.953125 1.625 -4.71875q1.625 -1.78125 4.390625 -1.78125zm-3.859375 6.5q0 2.125 1.078125 3.40625q1.09375 1.265625 2.78125 1.265625q1.671875 0 2.765625 -1.265625q1.109375 -1.28125 1.109375 -3.40625q0 -2.125 -1.09375 -3.421875q-1.09375 -1.296875 -2.796875 -1.296875q-1.640625 0 -2.75 1.28125q-1.09375 1.265625 -1.09375 3.4375zm18.40625 -6.5q2.65625 0 4.1875 1.828125q1.53125 1.828125 1.53125 4.6875q0 2.890625 -1.53125 4.6875q-1.515625 1.78125 -4.125 1.78125q-1.171875 0 -2.28125 -0.484375q-1.09375 -0.484375 -1.75 -1.46875l-0.046875 0l0 6.421875l-2.03125 0l0 -17.171875l2.03125 0l0 1.6875l0.046875 0q0.484375 -0.96875 1.515625 -1.46875q1.046875 -0.5 2.453125 -0.5zm-4.078125 6.46875q0 2.15625 1.03125 3.4375q1.046875 1.265625 2.875 1.265625q1.78125 0 2.75 -1.265625q0.96875 -1.265625 0.96875 -3.53125q0 -2.0 -1.03125 -3.296875q-1.015625 -1.296875 -2.828125 -1.296875q-1.78125 0 -2.78125 1.3125q-0.984375 1.3125 -0.984375 3.375zm13.1484375 -6.1875l3.625 10.140625l0.046875 0l3.46875 -10.140625l2.171875 0l-5.265625 13.734375q-0.84375 2.140625 -1.609375 2.890625q-0.765625 0.75 -2.125 0.75q-0.375 0 -0.734375 -0.046875q-0.34375 -0.046875 -0.6875 -0.15625l0 -1.875q0.296875 0.09375 0.59375 0.1875q0.296875 0.09375 0.609375 0.09375q1.234375 0 1.71875 -1.25q0.5 -1.234375 0.796875 -2.0l-4.921875 -12.328125l2.3125 0zm21.359375 0l0 10.59375l1.609375 0l0 5.75l-2.046875 0l0 -3.9375l-9.265625 0l0 3.9375l-2.03125 0l0 -5.75l1.34375 0q0.8125 -1.859375 1.1875 -3.65625q0.375 -1.796875 0.375 -3.765625l0 -3.171875l8.828125 0zm-2.03125 10.59375l0 -8.796875l-4.78125 0l0 0.84375q0 2.828125 -0.390625 4.609375q-0.390625 1.78125 -1.078125 3.34375l6.25 0zm10.84375 -10.875q2.8125 0 4.421875 1.8125q1.609375 1.8125 1.609375 4.6875q0 2.890625 -1.640625 4.6875q-1.640625 1.796875 -4.390625 1.796875q-2.6875 0 -4.359375 -1.765625q-1.65625 -1.765625 -1.65625 -4.71875q0 -2.953125 1.625 -4.71875q1.625 -1.78125 4.390625 -1.78125zm-3.859375 6.5q0 2.125 1.078125 3.40625q1.09375 1.265625 2.78125 1.265625q1.671875 0 2.765625 -1.265625q1.109375 -1.28125 1.109375 -3.40625q0 -2.125 -1.09375 -3.421875q-1.09375 -1.296875 -2.796875 -1.296875q-1.640625 0 -2.75 1.28125q-1.09375 1.265625 -1.09375 3.4375zm18.140625 -6.21875q1.96875 0 3.03125 0.734375q1.078125 0.734375 1.078125 2.28125q0 1.0 -0.484375 1.65625q-0.46875 0.640625 -1.328125 1.046875l0 0.015625q1.21875 0.328125 1.78125 1.09375q0.578125 0.765625 0.578125 1.9375q0 1.625 -1.09375 2.640625q-1.078125 1.0 -2.578125 1.0l-6.84375 0l0 -12.40625l5.859375 0zm-0.09375 5.015625q1.046875 0 1.59375 -0.40625q0.546875 -0.40625 0.546875 -1.25q0 -0.828125 -0.578125 -1.21875q-0.578125 -0.390625 -1.609375 -0.390625l-3.71875 0l0 3.265625l3.765625 0zm0.671875 5.625q0.875 0 1.4375 -0.515625q0.578125 -0.515625 0.578125 -1.40625q0 -0.96875 -0.65625 -1.46875q-0.640625 -0.5 -1.703125 -0.5l-4.09375 0l0 3.890625l4.4375 0zm11.53125 -10.921875q2.53125 0 3.59375 0.90625q1.0625 0.890625 1.0625 2.40625q0 6.453125 0 7.15625q0 0.703125 0.640625 0.703125q0.140625 0 0.296875 -0.03125q0.171875 -0.03125 0.328125 -0.078125l0 1.578125q-0.28125 0.171875 -0.65625 0.25q-0.359375 0.09375 -0.796875 0.09375q-0.84375 0 -1.296875 -0.46875q-0.4375 -0.484375 -0.4375 -1.453125q-0.8125 0.953125 -1.921875 1.4375q-1.09375 0.484375 -2.453125 0.484375q-1.921875 0 -3.015625 -0.90625q-1.078125 -0.921875 -1.078125 -2.578125q0 -1.671875 1.0625 -2.65625q1.0625 -0.984375 5.015625 -1.46875q1.328125 -0.171875 1.796875 -0.515625q0.484375 -0.34375 0.484375 -1.015625q0 -1.03125 -0.671875 -1.546875q-0.65625 -0.515625 -2.09375 -0.515625q-1.515625 0 -2.265625 0.578125q-0.75 0.578125 -0.8125 1.78125l-2.046875 0q0.09375 -2.0625 1.453125 -3.09375q1.359375 -1.046875 3.8125 -1.046875zm-3.578125 9.34375q0 0.875 0.625 1.359375q0.640625 0.46875 1.765625 0.46875q1.734375 0 2.765625 -0.84375q1.03125 -0.859375 1.03125 -1.921875l0 -2.125q-0.515625 0.359375 -1.34375 0.484375q-0.8125 0.125 -2.171875 0.3125q-1.359375 0.203125 -2.015625 0.75q-0.65625 0.53125 -0.65625 1.515625zm13.4375 -9.0625l0 4.9375l6.203125 0l0 -4.9375l2.03125 0l0 12.40625l-2.03125 0l0 -5.65625l-6.203125 0l0 5.65625l-2.046875 0l0 -12.40625l2.046875 0zm13.347656 0l0 10.078125l0.046875 0l5.5625 -10.078125l2.625 0l0 12.40625l-2.03125 0l0 -10.078125l-0.0625 0l-5.5625 10.078125l-2.625 0l0 -12.40625l2.046875 0zm16.457031 -0.28125q2.671875 0 4.140625 1.921875q1.484375 1.921875 1.484375 4.921875l0 0.25l-9.28125 0l0 0.15625q0 1.765625 1.03125 2.84375q1.03125 1.078125 2.828125 1.078125q1.359375 0 2.15625 -0.625q0.8125 -0.640625 1.0625 -1.796875l2.015625 0q-0.421875 2.0625 -1.8125 3.15625q-1.390625 1.078125 -3.484375 1.078125q-1.96875 0 -3.328125 -0.890625q-1.34375 -0.890625 -1.984375 -2.453125q-0.640625 -1.578125 -0.640625 -3.234375q0 -2.75 1.640625 -4.578125q1.65625 -1.828125 4.171875 -1.828125zm-3.65625 5.296875l7.125 0q-0.09375 -1.515625 -1.109375 -2.515625q-1.0 -1.0 -2.5 -1.0q-1.40625 0 -2.40625 0.953125q-0.984375 0.953125 -1.109375 2.5625z" fill-rule="nonzero"></path><path fill="#000000" d="m546.2071 295.56866l4.890625 14.859375l0.046875 0l4.953125 -14.859375l2.359375 0l-6.09375 17.140625l-2.578125 0l-6.0625 -17.140625l2.484375 0zm17.253906 0l5.390625 14.390625l5.4375 -14.390625l3.109375 0l0 17.140625l-2.15625 0l0 -14.265625l-0.046875 0l-5.359375 14.265625l-1.9375 0l-5.359375 -14.265625l-0.046875 0l0 14.265625l-2.15625 0l0 -17.140625l3.125 0zm31.714844 0q3.171875 0 4.3125 1.296875q1.140625 1.28125 1.140625 2.90625q0 1.359375 -0.671875 2.359375q-0.671875 0.984375 -1.875 1.484375l0 0.046875q1.578125 0.34375 2.421875 1.453125q0.84375 1.09375 0.84375 2.671875q0 2.09375 -1.46875 3.515625q-1.453125 1.40625 -3.640625 1.40625l-8.375 0l0 -17.140625l7.3125 0zm-0.359375 7.359375q1.703125 0 2.609375 -0.625q0.921875 -0.640625 0.921875 -2.09375q0 -1.359375 -0.765625 -2.03125q-0.75 -0.6875 -2.75 -0.6875l-4.6875 0l0 5.4375l4.671875 0zm1.125 7.859375q1.390625 0 2.25 -0.828125q0.875 -0.828125 0.875 -2.25q0 -1.4375 -0.984375 -2.140625q-0.984375 -0.71875 -2.828125 -0.71875l-5.109375 0l0 5.9375l5.796875 0z" fill-rule="nonzero"></path><path fill="#000000" fill-opacity="0.0" d="m8.0026245 13.889764l213.82677 0l0 91.90551l-213.82677 0z" fill-rule="nonzero"></path><path stroke="#000000" stroke-width="2.0" stroke-linejoin="round" stroke-linecap="butt" d="m8.0026245 13.889764l213.82677 0l0 91.90551l-213.82677 0z" fill-rule="nonzero"></path><path fill="#000000" d="m52.969147 50.161266l0 19.281254l-2.578125 0l0 -17.109379l-10.140625 0l0 17.109379l-2.5625 0l0 -19.281254l15.28125 0zm10.46904 5.0q3.0 0 4.71875 2.0625q1.71875 2.046875 1.71875 5.28125q0 3.2500038 -1.71875 5.265629q-1.71875 2.0 -4.65625 2.0q-1.296875 0 -2.546875 -0.53125q-1.25 -0.546875 -1.96875 -1.65625l-0.0625 0l0 7.21875l-2.28125 0l0 -19.328129l2.28125 0l0 1.90625l0.0625 0q0.53125 -1.078125 1.703125 -1.640625q1.171875 -0.578125 2.75 -0.578125zm-4.59375 7.296875q0 2.4218788 1.171875 3.8593788q1.1875 1.421875 3.234375 1.421875q2.0 0 3.09375 -1.421875q1.09375 -1.421875 1.09375 -3.9687538q0 -2.25 -1.15625 -3.703125q-1.15625 -1.46875 -3.1875 -1.46875q-2.015625 0 -3.140625 1.484375q-1.109375 1.46875 -1.109375 3.796875zm15.801117 -6.984375l0 11.343754l0.0625 0l6.265625 -11.343754l2.953125 0l0 13.968754l-2.296875 0l0 -11.343754l-0.078125 0l-6.25 11.343754l-2.9375 0l0 -13.968754l2.28125 0zm23.824936 0l0 13.968754l-2.296875 0l0 -11.937504l-5.046875 0l-0.296875 7.375004q-0.078125 2.421875 -1.0625 3.640625q-0.96875 1.21875 -2.671875 1.21875q-0.4375 0 -0.8125 -0.0625q-0.359375 -0.0625 -0.78125 -0.234375l0 -1.890625q0.328125 0.125 0.609375 0.171875q0.28125 0.046875 0.5625 0.046875q0.96875 0 1.40625 -0.71875q0.453125 -0.734375 0.53125 -2.515625l0.296875 -9.062504l9.5625 0zm9.28598 -0.3125q3.171875 0 4.96875 2.046875q1.8125 2.046875 1.8125 5.265625q0 3.2656288 -1.84375 5.281254q-1.84375 2.015625 -4.9375 2.015625q-3.03125 0 -4.90625 -1.984375q-1.875 -1.984375 -1.875 -5.312504q0 -3.3125 1.828125 -5.3125q1.84375 -2.0 4.953125 -2.0zm-4.34375 7.3125q0 2.4062538 1.21875 3.8437538q1.234375 1.421875 3.125 1.421875q1.890625 0 3.125 -1.4375q1.234375 -1.4375 1.234375 -3.8281288q0 -2.375 -1.234375 -3.828125q-1.21875 -1.46875 -3.15625 -1.46875q-1.84375 0 -3.078125 1.4375q-1.234375 1.421875 -1.234375 3.859375zm15.572144 -7.0l5.625 6.34375l0.046875 0l0 -6.34375l2.296875 0l0 6.5l0.046875 0l5.734375 -6.5l2.78125 0l-5.328125 5.828125l6.09375 8.140629l-2.828125 0l-4.765625 -6.703129l-1.734375 1.8125038l0 4.890625l-2.296875 0l0 -4.84375l-1.796875 -1.8593788l-4.734375 6.703129l-2.8125 0l6.125 -8.140629l-5.34375 -5.828125l2.890625 0zm24.567429 -0.3125q3.0 0 4.65625 2.171875q1.671875 2.15625 1.671875 5.546875l0 0.28125l-10.453125 0l0 0.15625q0 2.0000038 1.15625 3.2187538q1.15625 1.203125 3.1875 1.203125q1.53125 0 2.4375 -0.703125q0.90625 -0.71875 1.171875 -2.03125l2.265625 0q-0.453125 2.328125 -2.03125 3.546875q-1.5625 1.21875 -3.921875 1.21875q-2.203125 0 -3.734375 -0.984375q-1.515625 -1.0 -2.25 -2.765625q-0.71875 -1.78125 -0.71875 -3.6406288q0 -3.09375 1.859375 -5.15625q1.859375 -2.0625 4.703125 -2.0625zm-4.125 5.96875l8.015625 0q-0.109375 -1.703125 -1.234375 -2.828125q-1.125 -1.125 -2.8125 -1.125q-1.59375 0 -2.71875 1.078125q-1.109375 1.0625 -1.25 2.875zm14.926697 -5.65625l0 5.578125l6.984375 0l0 -5.578125l2.296875 0l0 13.968754l-2.296875 0l0 -6.375004l-6.984375 0l0 6.375004l-2.28125 0l0 -13.968754l2.28125 0zm14.824936 0l0 11.343754l0.0625 0l6.265625 -11.343754l2.953125 0l0 13.968754l-2.296875 0l0 -11.343754l-0.078125 0l-6.25 11.343754l-2.9375 0l0 -13.968754l2.28125 0zm23.52806 0l0 13.968754l-2.296875 0l0 -5.703129l-3.046875 0l-4.40625 5.703129l-3.046875 0l4.78125 -5.781254q-1.59375 -0.25 -2.515625 -1.328125q-0.921875 -1.09375 -0.921875 -2.71875q0 -1.90625 1.21875 -3.015625q1.21875 -1.125 3.296875 -1.125l6.9375 0zm-9.109375 4.140625q0 1.015625 0.640625 1.5625q0.640625 0.546875 1.8125 0.546875l4.359375 0l0 -4.21875l-4.453125 0q-1.015625 0 -1.6875 0.515625q-0.671875 0.515625 -0.671875 1.59375z" fill-rule="nonzero"></path><path fill="#000000" fill-opacity="0.0" d="m237.08923 114.01312l213.82678 0l0 91.90552l-213.82678 0z" fill-rule="nonzero"></path><path stroke="#000000" stroke-width="2.0" stroke-linejoin="round" stroke-linecap="butt" d="m237.08923 114.01312l213.82678 0l0 91.90552l-213.82678 0z" fill-rule="nonzero"></path><path fill="#000000" d="m278.3387 150.28462l0 2.171875l-10.0625 0l0 17.109375l-2.5625 0l0 -19.28125l12.625 0zm7.723419 5.0q3.171875 0 4.96875 2.046875q1.8125 2.046875 1.8125 5.265625q0 3.265625 -1.84375 5.28125q-1.84375 2.015625 -4.9375 2.015625q-3.03125 0 -4.90625 -1.984375q-1.875 -1.984375 -1.875 -5.3125q0 -3.3125 1.828125 -5.3125q1.84375 -2.0 4.953125 -2.0zm-4.34375 7.3125q0 2.40625 1.21875 3.84375q1.234375 1.421875 3.125 1.421875q1.890625 0 3.125 -1.4375q1.234375 -1.4375 1.234375 -3.828125q0 -2.375 -1.234375 -3.828125q-1.21875 -1.46875 -3.15625 -1.46875q-1.84375 0 -3.078125 1.4375q-1.234375 1.421875 -1.234375 3.859375zm19.447144 -7.3125q2.5625 0 4.15625 1.21875q1.59375 1.203125 1.875 3.578125l-2.375 0q-0.28125 -1.359375 -1.1875 -2.0625q-0.890625 -0.71875 -2.265625 -0.71875q-2.140625 0 -3.25 1.4375q-1.09375 1.421875 -1.09375 4.03125q0 2.3125 1.09375 3.703125q1.09375 1.390625 2.96875 1.390625q1.6875 0 2.65625 -0.890625q0.96875 -0.90625 1.1875 -2.515625l2.34375 0q-0.375 2.625 -1.96875 4.03125q-1.578125 1.40625 -4.1875 1.40625q-3.046875 0 -4.796875 -1.90625q-1.734375 -1.921875 -1.734375 -5.21875q0 -3.4375 1.765625 -5.453125q1.765625 -2.03125 4.8125 -2.03125zm19.161072 0.3125l0 2.03125l-5.0 0l0 11.9375l-2.28125 0l0 -11.9375l-5.0 0l0 -2.03125l12.28125 0zm7.479553 -0.3125q3.0 0 4.65625 2.171875q1.671875 2.15625 1.671875 5.546875l0 0.28125l-10.453125 0l0 0.15625q0 2.0 1.15625 3.21875q1.15625 1.203125 3.1875 1.203125q1.53125 0 2.4375 -0.703125q0.90625 -0.71875 1.171875 -2.03125l2.265625 0q-0.453125 2.328125 -2.03125 3.546875q-1.5625 1.21875 -3.921875 1.21875q-2.203125 0 -3.734375 -0.984375q-1.515625 -1.0 -2.25 -2.765625q-0.71875 -1.78125 -0.71875 -3.640625q0 -3.09375 1.859375 -5.15625q1.859375 -2.0625 4.703125 -2.0625zm-4.125 5.96875l8.015625 0q-0.109375 -1.703125 -1.234375 -2.828125q-1.125 -1.125 -2.8125 -1.125q-1.59375 0 -2.71875 1.078125q-1.109375 1.0625 -1.25 2.875zm19.223572 -5.65625q2.21875 0 3.421875 0.84375q1.203125 0.828125 1.203125 2.5625q0 1.125 -0.546875 1.859375q-0.53125 0.734375 -1.484375 1.171875l0 0.03125q1.359375 0.375 2.0 1.234375q0.640625 0.859375 0.640625 2.171875q0 1.828125 -1.234375 2.96875q-1.21875 1.125 -2.90625 1.125l-7.671875 0l0 -13.96875l6.578125 0zm-0.09375 5.65625q1.171875 0 1.78125 -0.453125q0.609375 -0.46875 0.609375 -1.40625q0 -0.9375 -0.640625 -1.375q-0.640625 -0.4375 -1.828125 -0.4375l-4.171875 0l0 3.671875l4.25 0zm0.75 6.328125q0.984375 0 1.625 -0.578125q0.640625 -0.59375 0.640625 -1.59375q0 -1.078125 -0.734375 -1.640625q-0.734375 -0.578125 -1.9375 -0.578125l-4.59375 0l0 4.390625l5.0 0zm12.786072 -12.296875q2.84375 0 4.03125 1.015625q1.203125 1.015625 1.203125 2.71875q0 7.265625 0 8.0625q0 0.78125 0.71875 0.78125q0.15625 0 0.34375 -0.03125q0.1875 -0.046875 0.359375 -0.09375l0 1.78125q-0.3125 0.171875 -0.734375 0.265625q-0.40625 0.109375 -0.90625 0.109375q-0.9375 0 -1.453125 -0.53125q-0.5 -0.53125 -0.5 -1.625q-0.90625 1.078125 -2.140625 1.625q-1.234375 0.53125 -2.765625 0.53125q-2.171875 0 -3.40625 -1.015625q-1.21875 -1.03125 -1.21875 -2.90625q0 -1.875 1.203125 -2.96875q1.203125 -1.109375 5.640625 -1.671875q1.515625 -0.1875 2.046875 -0.5625q0.53125 -0.390625 0.53125 -1.15625q0 -1.15625 -0.75 -1.734375q-0.734375 -0.578125 -2.359375 -0.578125q-1.703125 0 -2.5625 0.65625q-0.84375 0.640625 -0.90625 2.0l-2.296875 0q0.109375 -2.328125 1.640625 -3.5q1.53125 -1.171875 4.28125 -1.171875zm-4.03125 10.53125q0 0.96875 0.703125 1.515625q0.71875 0.53125 2.0 0.53125q1.9375 0 3.09375 -0.953125q1.15625 -0.96875 1.15625 -2.15625l0 -2.40625q-0.578125 0.421875 -1.5 0.5625q-0.921875 0.140625 -2.453125 0.359375q-1.53125 0.21875 -2.265625 0.828125q-0.734375 0.609375 -0.734375 1.71875zm23.629822 -10.21875l0 13.96875l-2.296875 0l0 -5.703125l-3.046875 0l-4.40625 5.703125l-3.046875 0l4.78125 -5.78125q-1.59375 -0.25 -2.515625 -1.328125q-0.921875 -1.09375 -0.921875 -2.71875q0 -1.90625 1.21875 -3.015625q1.21875 -1.125 3.296875 -1.125l6.9375 0zm-9.109375 4.140625q0 1.015625 0.640625 1.5625q0.640625 0.546875 1.8125 0.546875l4.359375 0l0 -4.21875l-4.453125 0q-1.015625 0 -1.6875 0.515625q-0.671875 0.515625 -0.671875 1.59375zm28.31186 -9.90625q2.8125 0 4.890625 1.296875q2.09375 1.296875 3.21875 3.65625q1.140625 2.34375 1.140625 5.140625q0 2.828125 -1.125 5.171875q-1.125 2.328125 -3.234375 3.640625q-2.109375 1.296875 -4.890625 1.296875q-2.78125 0 -4.875 -1.296875q-2.078125 -1.296875 -3.21875 -3.625q-1.125 -2.34375 -1.125 -5.1875q0 -4.375 2.5 -7.234375q2.515625 -2.859375 6.71875 -2.859375zm-6.65625 10.09375q0 2.15625 0.78125 4.015625q0.78125 1.859375 2.296875 2.890625q1.53125 1.03125 3.578125 1.03125q3.109375 0 4.890625 -2.234375q1.78125 -2.234375 1.78125 -5.703125q0 -3.421875 -1.765625 -5.671875q-1.765625 -2.265625 -4.921875 -2.265625q-3.109375 0 -4.875 2.28125q-1.765625 2.265625 -1.765625 5.65625zm26.940002 -10.09375q3.203125 0 5.359375 1.671875q2.15625 1.65625 2.578125 4.59375l-2.5625 0q-0.421875 -1.984375 -1.859375 -3.046875q-1.421875 -1.0625 -3.546875 -1.0625q-3.046875 0 -4.78125 2.171875q-1.734375 2.15625 -1.734375 5.640625q0 3.6875 1.6875 5.875q1.703125 2.1875 4.859375 2.1875q2.359375 0 3.859375 -1.484375q1.515625 -1.5 1.703125 -4.078125l2.578125 0q-0.421875 3.75 -2.609375 5.75q-2.1875 1.984375 -5.734375 1.984375q-4.140625 0 -6.53125 -2.734375q-2.390625 -2.75 -2.390625 -7.3125q0 -4.5 2.46875 -7.328125q2.46875 -2.828125 6.65625 -2.828125z" fill-rule="nonzero"></path><path fill="#000000" fill-opacity="0.0" d="m237.09186 13.884515l213.82678 0l0 91.90551l-213.82678 0z" fill-rule="nonzero"></path><path stroke="#000000" stroke-width="2.0" stroke-linejoin="round" stroke-linecap="butt" d="m237.09186 13.884515l213.82678 0l0 91.90551l-213.82678 0z" fill-rule="nonzero"></path><path fill="#000000" d="m282.05838 50.156017l0 19.281254l-2.578125 0l0 -17.109379l-10.140625 0l0 17.109379l-2.5625 0l0 -19.281254l15.28125 0zm10.469055 5.0q3.0 0 4.71875 2.0625q1.71875 2.046875 1.71875 5.28125q0 3.2500038 -1.71875 5.265629q-1.71875 2.0 -4.65625 2.0q-1.296875 0 -2.546875 -0.53125q-1.25 -0.546875 -1.96875 -1.65625l-0.0625 0l0 7.21875l-2.28125 0l0 -19.328129l2.28125 0l0 1.90625l0.0625 0q0.53125 -1.078125 1.703125 -1.640625q1.171875 -0.578125 2.75 -0.578125zm-4.59375 7.296875q0 2.4218788 1.171875 3.8593788q1.1875 1.421875 3.234375 1.421875q2.0 0 3.09375 -1.421875q1.09375 -1.421875 1.09375 -3.9687538q0 -2.25 -1.15625 -3.703125q-1.15625 -1.46875 -3.1875 -1.46875q-2.015625 0 -3.140625 1.484375q-1.109375 1.46875 -1.109375 3.796875zm15.801117 -6.984375l0 11.343754l0.0625 0l6.265625 -11.343754l2.953125 0l0 13.968754l-2.296875 0l0 -11.343754l-0.078125 0l-6.25 11.343754l-2.9375 0l0 -13.968754l2.28125 0zm23.82492 0l0 13.968754l-2.296875 0l0 -11.937504l-5.046875 0l-0.296875 7.375004q-0.078125 2.421875 -1.0625 3.640625q-0.96875 1.21875 -2.671875 1.21875q-0.4375 0 -0.8125 -0.0625q-0.359375 -0.0625 -0.78125 -0.234375l0 -1.890625q0.328125 0.125 0.609375 0.171875q0.28125 0.046875 0.5625 0.046875q0.96875 0 1.40625 -0.71875q0.453125 -0.734375 0.53125 -2.515625l0.296875 -9.062504l9.5625 0zm9.28598 -0.3125q3.171875 0 4.96875 2.046875q1.8125 2.046875 1.8125 5.265625q0 3.2656288 -1.84375 5.281254q-1.84375 2.015625 -4.9375 2.015625q-3.03125 0 -4.90625 -1.984375q-1.875 -1.984375 -1.875 -5.312504q0 -3.3125 1.828125 -5.3125q1.84375 -2.0 4.953125 -2.0zm-4.34375 7.3125q0 2.4062538 1.21875 3.8437538q1.234375 1.421875 3.125 1.421875q1.890625 0 3.125 -1.4375q1.234375 -1.4375 1.234375 -3.8281288q0 -2.375 -1.234375 -3.828125q-1.21875 -1.46875 -3.15625 -1.46875q-1.84375 0 -3.078125 1.4375q-1.234375 1.421875 -1.234375 3.859375zm15.572144 -7.0l5.625 6.34375l0.046875 0l0 -6.34375l2.296875 0l0 6.5l0.046875 0l5.734375 -6.5l2.78125 0l-5.328125 5.828125l6.09375 8.140629l-2.828125 0l-4.765625 -6.703129l-1.734375 1.8125038l0 4.890625l-2.296875 0l0 -4.84375l-1.796875 -1.8593788l-4.734375 6.703129l-2.8125 0l6.125 -8.140629l-5.34375 -5.828125l2.890625 0zm24.567444 -0.3125q3.0 0 4.65625 2.171875q1.671875 2.15625 1.671875 5.546875l0 0.28125l-10.453125 0l0 0.15625q0 2.0000038 1.15625 3.2187538q1.15625 1.203125 3.1875 1.203125q1.53125 0 2.4375 -0.703125q0.90625 -0.71875 1.171875 -2.03125l2.265625 0q-0.453125 2.328125 -2.03125 3.546875q-1.5625 1.21875 -3.921875 1.21875q-2.203125 0 -3.734375 -0.984375q-1.515625 -1.0 -2.25 -2.765625q-0.71875 -1.78125 -0.71875 -3.6406288q0 -3.09375 1.859375 -5.15625q1.859375 -2.0625 4.703125 -2.0625zm-4.125 5.96875l8.015625 0q-0.109375 -1.703125 -1.234375 -2.828125q-1.125 -1.125 -2.8125 -1.125q-1.59375 0 -2.71875 1.078125q-1.109375 1.0625 -1.25 2.875zm14.926697 -5.65625l0 5.578125l6.984375 0l0 -5.578125l2.296875 0l0 13.968754l-2.296875 0l0 -6.375004l-6.984375 0l0 6.375004l-2.28125 0l0 -13.968754l2.28125 0zm14.824921 0l0 11.343754l0.0625 0l6.265625 -11.343754l2.953125 0l0 13.968754l-2.296875 0l0 -11.343754l-0.078125 0l-6.25 11.343754l-2.9375 0l0 -13.968754l2.28125 0zm23.528076 0l0 13.968754l-2.296875 0l0 -5.703129l-3.046875 0l-4.40625 5.703129l-3.046875 0l4.78125 -5.781254q-1.59375 -0.25 -2.515625 -1.328125q-0.921875 -1.09375 -0.921875 -2.71875q0 -1.90625 1.21875 -3.015625q1.21875 -1.125 3.296875 -1.125l6.9375 0zm-9.109375 4.140625q0 1.015625 0.640625 1.5625q0.640625 0.546875 1.8125 0.546875l4.359375 0l0 -4.21875l-4.453125 0q-1.015625 0 -1.6875 0.515625q-0.671875 0.515625 -0.671875 1.59375z" fill-rule="nonzero"></path><path fill="#000000" fill-opacity="0.0" d="m466.1811 114.01312l213.82678 0l0 91.90552l-213.82678 0z" fill-rule="nonzero"></path><path stroke="#000000" stroke-width="2.0" stroke-linejoin="round" stroke-linecap="butt" d="m466.1811 114.01312l213.82678 0l0 91.90552l-213.82678 0z" fill-rule="nonzero"></path><path fill="#000000" d="m507.4306 150.28462l0 2.171875l-10.0625 0l0 17.109375l-2.5625 0l0 -19.28125l12.625 0zm7.7233887 5.0q3.171875 0 4.96875 2.046875q1.8125 2.046875 1.8125 5.265625q0 3.265625 -1.84375 5.28125q-1.84375 2.015625 -4.9375 2.015625q-3.03125 0 -4.9062195 -1.984375q-1.875 -1.984375 -1.875 -5.3125q0 -3.3125 1.828125 -5.3125q1.8437195 -2.0 4.9530945 -2.0zm-4.3437195 7.3125q0 2.40625 1.2187195 3.84375q1.234375 1.421875 3.125 1.421875q1.890625 0 3.125 -1.4375q1.234375 -1.4375 1.234375 -3.828125q0 -2.375 -1.234375 -3.828125q-1.21875 -1.46875 -3.15625 -1.46875q-1.84375 0 -3.078125 1.4375q-1.2343445 1.421875 -1.2343445 3.859375zm19.447113 -7.3125q2.5625 0 4.15625 1.21875q1.59375 1.203125 1.875 3.578125l-2.375 0q-0.28125 -1.359375 -1.1875 -2.0625q-0.890625 -0.71875 -2.265625 -0.71875q-2.140625 0 -3.25 1.4375q-1.09375 1.421875 -1.09375 4.03125q0 2.3125 1.09375 3.703125q1.09375 1.390625 2.96875 1.390625q1.6875 0 2.65625 -0.890625q0.96875 -0.90625 1.1875 -2.515625l2.34375 0q-0.375 2.625 -1.96875 4.03125q-1.578125 1.40625 -4.1875 1.40625q-3.046875 0 -4.796875 -1.90625q-1.734375 -1.921875 -1.734375 -5.21875q0 -3.4375 1.765625 -5.453125q1.765625 -2.03125 4.8125 -2.03125zm19.161072 0.3125l0 2.03125l-5.0 0l0 11.9375l-2.28125 0l0 -11.9375l-5.0 0l0 -2.03125l12.28125 0zm7.479553 -0.3125q3.0 0 4.65625 2.171875q1.671875 2.15625 1.671875 5.546875l0 0.28125l-10.453125 0l0 0.15625q0 2.0 1.15625 3.21875q1.15625 1.203125 3.1875 1.203125q1.53125 0 2.4375 -0.703125q0.90625 -0.71875 1.171875 -2.03125l2.265625 0q-0.453125 2.328125 -2.03125 3.546875q-1.5625 1.21875 -3.921875 1.21875q-2.203125 0 -3.734375 -0.984375q-1.515625 -1.0 -2.25 -2.765625q-0.71875 -1.78125 -0.71875 -3.640625q0 -3.09375 1.859375 -5.15625q1.859375 -2.0625 4.703125 -2.0625zm-4.125 5.96875l8.015625 0q-0.109375 -1.703125 -1.234375 -2.828125q-1.125 -1.125 -2.8125 -1.125q-1.59375 0 -2.71875 1.078125q-1.109375 1.0625 -1.25 2.875zm19.223572 -5.65625q2.21875 0 3.421875 0.84375q1.203125 0.828125 1.203125 2.5625q0 1.125 -0.546875 1.859375q-0.53125 0.734375 -1.484375 1.171875l0 0.03125q1.359375 0.375 2.0 1.234375q0.640625 0.859375 0.640625 2.171875q0 1.828125 -1.234375 2.96875q-1.21875 1.125 -2.90625 1.125l-7.671875 0l0 -13.96875l6.578125 0zm-0.09375 5.65625q1.171875 0 1.78125 -0.453125q0.609375 -0.46875 0.609375 -1.40625q0 -0.9375 -0.640625 -1.375q-0.640625 -0.4375 -1.828125 -0.4375l-4.171875 0l0 3.671875l4.25 0zm0.75 6.328125q0.984375 0 1.625 -0.578125q0.640625 -0.59375 0.640625 -1.59375q0 -1.078125 -0.734375 -1.640625q-0.734375 -0.578125 -1.9375 -0.578125l-4.59375 0l0 4.390625l5.0 0zm12.786072 -12.296875q2.84375 0 4.03125 1.015625q1.203125 1.015625 1.203125 2.71875q0 7.265625 0 8.0625q0 0.78125 0.71875 0.78125q0.15625 0 0.34375 -0.03125q0.1875 -0.046875 0.359375 -0.09375l0 1.78125q-0.3125 0.171875 -0.734375 0.265625q-0.40625 0.109375 -0.90625 0.109375q-0.9375 0 -1.453125 -0.53125q-0.5 -0.53125 -0.5 -1.625q-0.90625 1.078125 -2.140625 1.625q-1.234375 0.53125 -2.765625 0.53125q-2.171875 0 -3.40625 -1.015625q-1.21875 -1.03125 -1.21875 -2.90625q0 -1.875 1.203125 -2.96875q1.203125 -1.109375 5.640625 -1.671875q1.515625 -0.1875 2.046875 -0.5625q0.53125 -0.390625 0.53125 -1.15625q0 -1.15625 -0.75 -1.734375q-0.734375 -0.578125 -2.359375 -0.578125q-1.703125 0 -2.5625 0.65625q-0.84375 0.640625 -0.90625 2.0l-2.296875 0q0.109375 -2.328125 1.640625 -3.5q1.53125 -1.171875 4.28125 -1.171875zm-4.03125 10.53125q0 0.96875 0.703125 1.515625q0.71875 0.53125 2.0 0.53125q1.9375 0 3.09375 -0.953125q1.15625 -0.96875 1.15625 -2.15625l0 -2.40625q-0.578125 0.421875 -1.5 0.5625q-0.921875 0.140625 -2.453125 0.359375q-1.53125 0.21875 -2.265625 0.828125q-0.734375 0.609375 -0.734375 1.71875zm23.629822 -10.21875l0 13.96875l-2.296875 0l0 -5.703125l-3.046875 0l-4.40625 5.703125l-3.046875 0l4.78125 -5.78125q-1.59375 -0.25 -2.515625 -1.328125q-0.921875 -1.09375 -0.921875 -2.71875q0 -1.90625 1.21875 -3.015625q1.21875 -1.125 3.296875 -1.125l6.9375 0zm-9.109375 4.140625q0 1.015625 0.640625 1.5625q0.640625 0.546875 1.8125 0.546875l4.359375 0l0 -4.21875l-4.453125 0q-1.015625 0 -1.6875 0.515625q-0.671875 0.515625 -0.671875 1.59375zm28.31189 -9.90625q2.8125 0 4.890625 1.296875q2.09375 1.296875 3.21875 3.65625q1.140625 2.34375 1.140625 5.140625q0 2.828125 -1.125 5.171875q-1.125 2.328125 -3.234375 3.640625q-2.109375 1.296875 -4.890625 1.296875q-2.78125 0 -4.875 -1.296875q-2.078125 -1.296875 -3.21875 -3.625q-1.125 -2.34375 -1.125 -5.1875q0 -4.375 2.5 -7.234375q2.515625 -2.859375 6.71875 -2.859375zm-6.65625 10.09375q0 2.15625 0.78125 4.015625q0.78125 1.859375 2.296875 2.890625q1.53125 1.03125 3.578125 1.03125q3.109375 0 4.890625 -2.234375q1.78125 -2.234375 1.78125 -5.703125q0 -3.421875 -1.765625 -5.671875q-1.765625 -2.265625 -4.921875 -2.265625q-3.109375 0 -4.875 2.28125q-1.765625 2.265625 -1.765625 5.65625zm26.940002 -10.09375q3.203125 0 5.359375 1.671875q2.15625 1.65625 2.578125 4.59375l-2.5625 0q-0.421875 -1.984375 -1.859375 -3.046875q-1.421875 -1.0625 -3.546875 -1.0625q-3.046875 0 -4.78125 2.171875q-1.734375 2.15625 -1.734375 5.640625q0 3.6875 1.6875 5.875q1.703125 2.1875 4.859375 2.1875q2.359375 0 3.859375 -1.484375q1.515625 -1.5 1.703125 -4.078125l2.578125 0q-0.421875 3.75 -2.609375 5.75q-2.1875 1.984375 -5.734375 1.984375q-4.140625 0 -6.53125 -2.734375q-2.390625 -2.75 -2.390625 -7.3125q0 -4.5 2.46875 -7.328125q2.46875 -2.828125 6.65625 -2.828125z" fill-rule="nonzero"></path><path fill="#000000" fill-opacity="0.0" d="m466.18372 13.884515l213.82678 0l0 91.90551l-213.82678 0z" fill-rule="nonzero"></path><path stroke="#000000" stroke-width="2.0" stroke-linejoin="round" stroke-linecap="butt" d="m466.18372 13.884515l213.82678 0l0 91.90551l-213.82678 0z" fill-rule="nonzero"></path><path fill="#000000" d="m511.15024 50.156017l0 19.281254l-2.578125 0l0 -17.109379l-10.140625 0l0 17.109379l-2.5625 0l0 -19.281254l15.28125 0zm10.469025 5.0q3.0 0 4.71875 2.0625q1.71875 2.046875 1.71875 5.28125q0 3.2500038 -1.71875 5.265629q-1.71875 2.0 -4.65625 2.0q-1.296875 0 -2.546875 -0.53125q-1.25 -0.546875 -1.96875 -1.65625l-0.0625 0l0 7.21875l-2.28125 0l0 -19.328129l2.28125 0l0 1.90625l0.0625 0q0.53125 -1.078125 1.703125 -1.640625q1.171875 -0.578125 2.75 -0.578125zm-4.59375 7.296875q0 2.4218788 1.171875 3.8593788q1.1875 1.421875 3.234375 1.421875q2.0 0 3.09375 -1.421875q1.09375 -1.421875 1.09375 -3.9687538q0 -2.25 -1.15625 -3.703125q-1.15625 -1.46875 -3.1875 -1.46875q-2.015625 0 -3.140625 1.484375q-1.109375 1.46875 -1.109375 3.796875zm15.801147 -6.984375l0 11.343754l0.0625 0l6.265625 -11.343754l2.953125 0l0 13.968754l-2.296875 0l0 -11.343754l-0.078125 0l-6.25 11.343754l-2.9375 0l0 -13.968754l2.28125 0zm23.824951 0l0 13.968754l-2.296875 0l0 -11.937504l-5.046875 0l-0.296875 7.375004q-0.078125 2.421875 -1.0625 3.640625q-0.96875 1.21875 -2.671875 1.21875q-0.4375 0 -0.8125 -0.0625q-0.359375 -0.0625 -0.78125 -0.234375l0 -1.890625q0.328125 0.125 0.609375 0.171875q0.28125 0.046875 0.5625 0.046875q0.96875 0 1.40625 -0.71875q0.453125 -0.734375 0.53125 -2.515625l0.296875 -9.062504l9.5625 0zm9.28595 -0.3125q3.171875 0 4.96875 2.046875q1.8125 2.046875 1.8125 5.265625q0 3.2656288 -1.84375 5.281254q-1.84375 2.015625 -4.9375 2.015625q-3.03125 0 -4.90625 -1.984375q-1.875 -1.984375 -1.875 -5.312504q0 -3.3125 1.828125 -5.3125q1.84375 -2.0 4.953125 -2.0zm-4.34375 7.3125q0 2.4062538 1.21875 3.8437538q1.234375 1.421875 3.125 1.421875q1.890625 0 3.125 -1.4375q1.234375 -1.4375 1.234375 -3.8281288q0 -2.375 -1.234375 -3.828125q-1.21875 -1.46875 -3.15625 -1.46875q-1.84375 0 -3.078125 1.4375q-1.234375 1.421875 -1.234375 3.859375zm15.572144 -7.0l5.625 6.34375l0.046875 0l0 -6.34375l2.296875 0l0 6.5l0.046875 0l5.734375 -6.5l2.78125 0l-5.328125 5.828125l6.09375 8.140629l-2.828125 0l-4.765625 -6.703129l-1.734375 1.8125038l0 4.890625l-2.296875 0l0 -4.84375l-1.796875 -1.8593788l-4.734375 6.703129l-2.8125 0l6.125 -8.140629l-5.34375 -5.828125l2.890625 0zm24.567444 -0.3125q3.0 0 4.65625 2.171875q1.671875 2.15625 1.671875 5.546875l0 0.28125l-10.453125 0l0 0.15625q0 2.0000038 1.15625 3.2187538q1.15625 1.203125 3.1875 1.203125q1.53125 0 2.4375 -0.703125q0.90625 -0.71875 1.171875 -2.03125l2.265625 0q-0.453125 2.328125 -2.03125 3.546875q-1.5625 1.21875 -3.921875 1.21875q-2.203125 0 -3.734375 -0.984375q-1.515625 -1.0 -2.25 -2.765625q-0.71875 -1.78125 -0.71875 -3.6406288q0 -3.09375 1.859375 -5.15625q1.859375 -2.0625 4.703125 -2.0625zm-4.125 5.96875l8.015625 0q-0.109375 -1.703125 -1.234375 -2.828125q-1.125 -1.125 -2.8125 -1.125q-1.59375 0 -2.71875 1.078125q-1.109375 1.0625 -1.25 2.875zm14.926697 -5.65625l0 5.578125l6.984375 0l0 -5.578125l2.296875 0l0 13.968754l-2.296875 0l0 -6.375004l-6.984375 0l0 6.375004l-2.28125 0l0 -13.968754l2.28125 0zm14.824951 0l0 11.343754l0.0625 0l6.265625 -11.343754l2.953125 0l0 13.968754l-2.296875 0l0 -11.343754l-0.078125 0l-6.25 11.343754l-2.9375 0l0 -13.968754l2.28125 0zm23.528015 0l0 13.968754l-2.296875 0l0 -5.703129l-3.046875 0l-4.40625 5.703129l-3.046875 0l4.78125 -5.781254q-1.59375 -0.25 -2.515625 -1.328125q-0.921875 -1.09375 -0.921875 -2.71875q0 -1.90625 1.21875 -3.015625q1.21875 -1.125 3.296875 -1.125l6.9375 0zm-9.109375 4.140625q0 1.015625 0.640625 1.5625q0.640625 0.546875 1.8125 0.546875l4.359375 0l0 -4.21875l-4.453125 0q-1.015625 0 -1.6875 0.515625q-0.671875 0.515625 -0.671875 1.59375z" fill-rule="nonzero"></path><path fill="#000000" fill-opacity="0.0" d="m344.0007 205.92389l0 30.456696" fill-rule="nonzero"></path><path stroke="#000000" stroke-width="2.0" stroke-linejoin="round" stroke-linecap="butt" d="m344.00073 217.92389l0 6.4566956" fill-rule="evenodd"></path><path fill="#000000" stroke="#000000" stroke-width="2.0" stroke-linecap="butt" d="m347.30417 217.92389l-3.3034363 -9.076202l-3.3034668 9.076202z" fill-rule="evenodd"></path><path fill="#000000" stroke="#000000" stroke-width="2.0" stroke-linecap="butt" d="m340.69727 224.38058l3.3034668 9.076187l3.3034363 -9.076187z" fill-rule="evenodd"></path><path fill="#000000" fill-opacity="0.0" d="m229.46529 342.96063l0 30.456696" fill-rule="nonzero"></path><path stroke="#000000" stroke-width="2.0" stroke-linejoin="round" stroke-linecap="butt" d="m229.46529 354.96063l0 6.4566956" fill-rule="evenodd"></path><path fill="#000000" stroke="#000000" stroke-width="2.0" stroke-linecap="butt" d="m232.76875 354.96063l-3.3034668 -9.076202l-3.3034668 9.076202z" fill-rule="evenodd"></path><path fill="#000000" stroke="#000000" stroke-width="2.0" stroke-linecap="butt" d="m226.16182 361.41733l3.3034668 9.076202l3.3034668 -9.076202z" fill-rule="evenodd"></path><path fill="#000000" fill-opacity="0.0" d="m573.09784 342.96063l0 30.456696" fill-rule="nonzero"></path><path stroke="#000000" stroke-width="2.0" stroke-linejoin="round" stroke-linecap="butt" d="m573.09784 354.96063l0 6.4566956" fill-rule="evenodd"></path><path fill="#000000" stroke="#000000" stroke-width="2.0" stroke-linecap="butt" d="m576.40125 354.96063l-3.3034058 -9.076202l-3.3034668 9.076202z" fill-rule="evenodd"></path><path fill="#000000" stroke="#000000" stroke-width="2.0" stroke-linecap="butt" d="m569.7944 361.41733l3.3034668 9.076202l3.3034058 -9.076202z" fill-rule="evenodd"></path></g></svg>

