<?xml version="1.0" standalone="yes"?>

<svg version="1.1" viewBox="0.0 0.0 687.0 487.0" fill="none" stroke="none" stroke-linecap="square" stroke-miterlimit="10" xmlns="http://www.w3.org/2000/svg" xmlns:xlink="http://www.w3.org/1999/xlink"><clipPath id="p.0"><path d="m0 0l687.0 0l0 487.0l-687.0 0l0 -487.0z" clip-rule="nonzero"></path></clipPath><g clip-path="url(#p.0)"><path fill="#000000" fill-opacity="0.0" d="m0 0l687.0 0l0 487.0l-687.0 0z" fill-rule="nonzero"></path><path fill="#000000" fill-opacity="0.0" d="m8.0 373.41934l672.0 0l0 106.5827l-672.0 0z" fill-rule="nonzero"></path><path stroke="#000000" stroke-width="2.0" stroke-linejoin="round" stroke-linecap="butt" d="m8.0 373.41934l672.0 0l0 106.5827l-672.0 0z" fill-rule="nonzero"></path><path fill="#000000" d="m248.67773 412.5482l11.15625 28.5625l-4.203125 0l-3.109375 -8.59375l-12.078125 0l-3.203125 8.59375l-3.921875 0l11.15625 -28.5625l4.203125 0zm-2.203125 3.4375l-4.828125 13.328125l9.671875 0l-4.75 -13.328125l-0.09375 0zm32.73047 4.4375l0 20.6875l-3.390625 0l0 -17.671875l-10.34375 0l0 17.671875l-3.390625 0l0 -20.6875l17.125 0zm22.246094 0l0 20.6875l-3.390625 0l0 -17.671875l-10.34375 0l0 17.671875l-3.390625 0l0 -20.6875l17.125 0zm13.574219 -0.46875q4.21875 0 5.984375 1.515625q1.765625 1.5 1.765625 4.015625q0 10.765625 0 11.9375q0 1.171875 1.078125 1.171875q0.234375 0 0.5 -0.0625q0.28125 -0.0625 0.53125 -0.140625l0 2.640625q-0.46875 0.28125 -1.078125 0.421875q-0.609375 0.140625 -1.34375 0.140625q-1.40625 0 -2.15625 -0.78125q-0.734375 -0.796875 -0.734375 -2.421875q-1.34375 1.609375 -3.1875 2.40625q-1.828125 0.796875 -4.09375 0.796875q-3.203125 0 -5.015625 -1.515625q-1.8125 -1.515625 -1.8125 -4.28125q0 -2.796875 1.765625 -4.421875q1.78125 -1.640625 8.359375 -2.453125q2.234375 -0.296875 3.015625 -0.859375q0.796875 -0.5625 0.796875 -1.703125q0 -1.71875 -1.109375 -2.5625q-1.09375 -0.859375 -3.5 -0.859375q-2.515625 0 -3.78125 0.96875q-1.25 0.953125 -1.359375 2.96875l-3.390625 0q0.15625 -3.4375 2.421875 -5.171875q2.265625 -1.75 6.34375 -1.75zm-5.96875 15.59375q0 1.4375 1.046875 2.25q1.0625 0.796875 2.953125 0.796875q2.875 0 4.59375 -1.421875q1.71875 -1.4375 1.71875 -3.1875l0 -3.5625q-0.859375 0.609375 -2.234375 0.828125q-1.359375 0.203125 -3.625 0.515625q-2.265625 0.34375 -3.359375 1.25q-1.09375 0.890625 -1.09375 2.53125zm29.1875 -15.59375q4.4375 0 6.984375 3.046875q2.546875 3.046875 2.546875 7.828125q0 4.8125 -2.546875 7.796875q-2.53125 2.96875 -6.875 2.96875q-1.9375 0 -3.78125 -0.796875q-1.84375 -0.796875 -2.921875 -2.4375l-0.078125 0l0 10.6875l-3.40625 0l0 -28.625l3.40625 0l0 2.8125l0.078125 0q0.796875 -1.59375 2.515625 -2.4375q1.734375 -0.84375 4.078125 -0.84375zm-6.796875 10.796875q0 3.59375 1.734375 5.71875q1.75 2.125 4.796875 2.125q2.953125 0 4.5625 -2.109375q1.625 -2.109375 1.625 -5.890625q0 -3.328125 -1.71875 -5.484375q-1.703125 -2.171875 -4.703125 -2.171875q-2.984375 0 -4.640625 2.1875q-1.65625 2.1875 -1.65625 5.625zm28.773438 -10.796875q4.21875 0 5.984375 1.515625q1.765625 1.5 1.765625 4.015625q0 10.765625 0 11.9375q0 1.171875 1.078125 1.171875q0.234375 0 0.5 -0.0625q0.28125 -0.0625 0.53125 -0.140625l0 2.640625q-0.46875 0.28125 -1.078125 0.421875q-0.609375 0.140625 -1.34375 0.140625q-1.40625 0 -2.15625 -0.78125q-0.734375 -0.796875 -0.734375 -2.421875q-1.34375 1.609375 -3.1875 2.40625q-1.828125 0.796875 -4.09375 0.796875q-3.203125 0 -5.015625 -1.515625q-1.8125 -1.515625 -1.8125 -4.28125q0 -2.796875 1.765625 -4.421875q1.78125 -1.640625 8.359375 -2.453125q2.234375 -0.296875 3.015625 -0.859375q0.796875 -0.5625 0.796875 -1.703125q0 -1.71875 -1.109375 -2.5625q-1.09375 -0.859375 -3.5 -0.859375q-2.515625 0 -3.78125 0.96875q-1.25 0.953125 -1.359375 2.96875l-3.390625 0q0.15625 -3.4375 2.421875 -5.171875q2.265625 -1.75 6.34375 -1.75zm-5.96875 15.59375q0 1.4375 1.046875 2.25q1.0625 0.796875 2.953125 0.796875q2.875 0 4.59375 -1.421875q1.71875 -1.4375 1.71875 -3.1875l0 -3.5625q-0.859375 0.609375 -2.234375 0.828125q-1.359375 0.203125 -3.625 0.515625q-2.265625 0.34375 -3.359375 1.25q-1.09375 0.890625 -1.09375 2.53125zm34.796875 -15.125l0 3.015625l-7.40625 0l0 17.671875l-3.390625 0l0 -17.671875l-7.40625 0l0 -3.015625l18.203125 0zm4.3125 0l6.046875 16.921875l0.078125 0l5.796875 -16.921875l3.609375 0l-8.78125 22.890625q-1.390625 3.578125 -2.671875 4.828125q-1.28125 1.25 -3.546875 1.25q-0.625 0 -1.21875 -0.078125q-0.578125 -0.078125 -1.140625 -0.265625l0 -3.125q0.484375 0.15625 0.984375 0.3125q0.5 0.15625 1.0 0.15625q2.078125 0 2.890625 -2.078125q0.828125 -2.0625 1.3125 -3.328125l-8.203125 -20.5625l3.84375 0zm28.59375 -0.46875q4.4375 0 6.984375 3.046875q2.546875 3.046875 2.546875 7.828125q0 4.8125 -2.546875 7.796875q-2.53125 2.96875 -6.875 2.96875q-1.9375 0 -3.78125 -0.796875q-1.84375 -0.796875 -2.921875 -2.4375l-0.078125 0l0 10.6875l-3.40625 0l0 -28.625l3.40625 0l0 2.8125l0.078125 0q0.796875 -1.59375 2.515625 -2.4375q1.734375 -0.84375 4.078125 -0.84375zm-6.796875 10.796875q0 3.59375 1.734375 5.71875q1.75 2.125 4.796875 2.125q2.953125 0 4.5625 -2.109375q1.625 -2.109375 1.625 -5.890625q0 -3.328125 -1.71875 -5.484375q-1.703125 -2.171875 -4.703125 -2.171875q-2.984375 0 -4.640625 2.1875q-1.65625 2.1875 -1.65625 5.625zm28.773438 -10.796875q4.21875 0 5.984375 1.515625q1.765625 1.5 1.765625 4.015625q0 10.765625 0 11.9375q0 1.171875 1.078125 1.171875q0.234375 0 0.5 -0.0625q0.28125 -0.0625 0.53125 -0.140625l0 2.640625q-0.46875 0.28125 -1.078125 0.421875q-0.609375 0.140625 -1.34375 0.140625q-1.40625 0 -2.15625 -0.78125q-0.734375 -0.796875 -0.734375 -2.421875q-1.34375 1.609375 -3.1875 2.40625q-1.828125 0.796875 -4.09375 0.796875q-3.203125 0 -5.015625 -1.515625q-1.8125 -1.515625 -1.8125 -4.28125q0 -2.796875 1.765625 -4.421875q1.78125 -1.640625 8.359375 -2.453125q2.234375 -0.296875 3.015625 -0.859375q0.796875 -0.5625 0.796875 -1.703125q0 -1.71875 -1.109375 -2.5625q-1.09375 -0.859375 -3.5 -0.859375q-2.515625 0 -3.78125 0.96875q-1.25 0.953125 -1.359375 2.96875l-3.390625 0q0.15625 -3.4375 2.421875 -5.171875q2.265625 -1.75 6.34375 -1.75zm-5.96875 15.59375q0 1.4375 1.046875 2.25q1.0625 0.796875 2.953125 0.796875q2.875 0 4.59375 -1.421875q1.71875 -1.4375 1.71875 -3.1875l0 -3.5625q-0.859375 0.609375 -2.234375 0.828125q-1.359375 0.203125 -3.625 0.515625q-2.265625 0.34375 -3.359375 1.25q-1.09375 0.890625 -1.09375 2.53125z" fill-rule="nonzero"></path><path fill="#000000" fill-opacity="0.0" d="m8.0 236.3871l672.0 0l0 106.58269l-672.0 0z" fill-rule="nonzero"></path><path stroke="#000000" stroke-width="2.0" stroke-linejoin="round" stroke-linecap="butt" d="m8.0 236.3871l672.0 0l0 106.58269l-672.0 0z" fill-rule="nonzero"></path><path fill="#000000" d="m254.75977 275.51593l0 3.203125l-14.921875 0l0 25.359375l-3.796875 0l0 -28.5625l18.71875 0zm6.1796875 7.875l0 16.796875l0.078125 0l9.28125 -16.796875l4.375 0l0 20.6875l-3.390625 0l0 -16.796875l-0.109375 0l-9.265625 16.796875l-4.359375 0l0 -20.6875l3.390625 0zm35.98047 0l0 20.6875l-3.390625 0l0 -17.671875l-10.34375 0l0 17.671875l-3.390625 0l0 -20.6875l17.125 0zm13.714844 -0.46875q4.453125 0 6.90625 3.203125q2.46875 3.203125 2.46875 8.21875l0 0.421875l-15.484375 0l0 0.25q0 2.953125 1.71875 4.75q1.71875 1.796875 4.71875 1.796875q2.265625 0 3.59375 -1.046875q1.34375 -1.0625 1.765625 -3.0l3.359375 0q-0.6875 3.4375 -3.015625 5.25q-2.328125 1.796875 -5.8125 1.796875q-3.265625 0 -5.53125 -1.46875q-2.25 -1.484375 -3.328125 -4.109375q-1.0625 -2.625 -1.0625 -5.375q0 -4.578125 2.75 -7.625q2.75 -3.0625 6.953125 -3.0625zm-6.109375 8.828125l11.875 0q-0.15625 -2.515625 -1.828125 -4.171875q-1.671875 -1.671875 -4.171875 -1.671875q-2.34375 0 -4.015625 1.59375q-1.65625 1.578125 -1.859375 4.25zm29.1875 -8.828125q4.4375 0 6.984375 3.046875q2.546875 3.046875 2.546875 7.828125q0 4.8125 -2.546875 7.796875q-2.53125 2.96875 -6.875 2.96875q-1.9375 0 -3.78125 -0.796875q-1.84375 -0.796875 -2.921875 -2.4375l-0.078125 0l0 10.6875l-3.40625 0l0 -28.625l3.40625 0l0 2.8125l0.078125 0q0.796875 -1.59375 2.515625 -2.4375q1.734375 -0.84375 4.078125 -0.84375zm-6.796875 10.796875q0 3.59375 1.734375 5.71875q1.75 2.125 4.796875 2.125q2.953125 0 4.5625 -2.109375q1.625 -2.109375 1.625 -5.890625q0 -3.328125 -1.71875 -5.484375q-1.703125 -2.171875 -4.703125 -2.171875q-2.984375 0 -4.640625 2.1875q-1.65625 2.1875 -1.65625 5.625zm30.085938 -10.328125q3.28125 0 5.046875 1.234375q1.78125 1.234375 1.78125 3.8125q0 1.65625 -0.796875 2.75q-0.78125 1.078125 -2.203125 1.734375l0 0.046875q2.015625 0.546875 2.96875 1.828125q0.953125 1.265625 0.953125 3.203125q0 2.71875 -1.8125 4.40625q-1.8125 1.671875 -4.3125 1.671875l-11.390625 0l0 -20.6875l9.765625 0zm-0.15625 8.359375q1.734375 0 2.640625 -0.671875q0.90625 -0.671875 0.90625 -2.078125q0 -1.390625 -0.953125 -2.03125q-0.953125 -0.640625 -2.6875 -0.640625l-6.203125 0l0 5.421875l6.296875 0zm1.109375 9.390625q1.46875 0 2.40625 -0.859375q0.953125 -0.875 0.953125 -2.359375q0 -1.59375 -1.09375 -2.4375q-1.078125 -0.84375 -2.84375 -0.84375l-6.828125 0l0 6.5l7.40625 0zm14.15625 -17.75l0 16.796875l0.078125 0l9.28125 -16.796875l4.375 0l0 20.6875l-3.390625 0l0 -16.796875l-0.109375 0l-9.265625 16.796875l-4.359375 0l0 -20.6875l3.390625 0zm26.417969 -0.46875q3.5625 0 5.625 1.5625q2.078125 1.5625 2.078125 4.28125q0 1.484375 -0.828125 2.515625q-0.8125 1.015625 -2.5625 1.640625l0 0.078125q1.96875 0.53125 3.015625 1.8125q1.0625 1.28125 1.0625 3.1875q0 2.96875 -2.4375 4.765625q-2.421875 1.796875 -6.3125 1.796875q-4.15625 0 -6.375 -1.78125q-2.203125 -1.796875 -2.390625 -5.234375l3.4375 0q0.171875 2.09375 1.53125 3.171875q1.375 1.078125 3.796875 1.078125q2.421875 0 3.828125 -1.015625q1.40625 -1.015625 1.40625 -2.703125q0 -1.640625 -1.109375 -2.5q-1.109375 -0.859375 -3.125 -0.859375l-3.015625 0l0 -2.921875l2.5 0q2.0 0 3.0625 -0.703125q1.078125 -0.703125 1.078125 -2.171875q0 -1.46875 -1.125 -2.359375q-1.109375 -0.890625 -3.1875 -0.890625q-2.296875 0 -3.625 0.9375q-1.328125 0.9375 -1.5625 2.78125l-3.4375 0q0.265625 -3.125 2.53125 -4.796875q2.28125 -1.671875 6.140625 -1.671875zm21.359375 0q4.6875 0 7.359375 3.03125q2.6875 3.03125 2.6875 7.8125q0 4.828125 -2.734375 7.8125q-2.734375 2.984375 -7.3125 2.984375q-4.484375 0 -7.265625 -2.9375q-2.765625 -2.9375 -2.765625 -7.859375q0 -4.921875 2.703125 -7.875q2.71875 -2.96875 7.328125 -2.96875zm-6.4375 10.84375q0 3.546875 1.8125 5.671875q1.8125 2.125 4.625 2.125q2.796875 0 4.625 -2.125q1.828125 -2.140625 1.828125 -5.671875q0 -3.53125 -1.828125 -5.6875q-1.8125 -2.171875 -4.65625 -2.171875q-2.734375 0 -4.578125 2.125q-1.828125 2.125 -1.828125 5.734375zm30.671875 -10.84375q4.4375 0 6.984375 3.046875q2.546875 3.046875 2.546875 7.828125q0 4.8125 -2.546875 7.796875q-2.53125 2.96875 -6.875 2.96875q-1.9375 0 -3.78125 -0.796875q-1.84375 -0.796875 -2.921875 -2.4375l-0.078125 0l0 10.6875l-3.40625 0l0 -28.625l3.40625 0l0 2.8125l0.078125 0q0.796875 -1.59375 2.515625 -2.4375q1.734375 -0.84375 4.078125 -0.84375zm-6.796875 10.796875q0 3.59375 1.734375 5.71875q1.75 2.125 4.796875 2.125q2.953125 0 4.5625 -2.109375q1.625 -2.109375 1.625 -5.890625q0 -3.328125 -1.71875 -5.484375q-1.703125 -2.171875 -4.703125 -2.171875q-2.984375 0 -4.640625 2.1875q-1.65625 2.1875 -1.65625 5.625z" fill-rule="nonzero"></path><path fill="#000000" fill-opacity="0.0" d="m8.0 81.14173l213.82677 0l0 124.75591l-213.82677 0z" fill-rule="nonzero"></path><path stroke="#000000" stroke-width="2.0" stroke-linejoin="round" stroke-linecap="butt" d="m8.0 81.14173l213.82677 0l0 124.75591l-213.82677 0z" fill-rule="nonzero"></path><path fill="#000000" d="m36.319565 127.01906l3.828125 10.203125l3.84375 -10.203125l2.21875 0l0 12.140625l-1.53125 0l0 -10.109375l-0.03125 0l-3.796875 10.109375l-1.375 0l-3.796875 -10.109375l-0.03125 0l0 10.109375l-1.53125 0l0 -12.140625l2.203125 0zm16.406921 3.15625q2.0 0 3.125 1.28125q1.140625 1.28125 1.140625 3.3125q0 2.0625 -1.15625 3.328125q-1.15625 1.265625 -3.109375 1.265625q-1.90625 0 -3.09375 -1.25q-1.171875 -1.25 -1.171875 -3.34375q0 -2.078125 1.15625 -3.328125q1.15625 -1.265625 3.109375 -1.265625zm-2.734375 4.59375q0 1.515625 0.765625 2.421875q0.78125 0.890625 1.96875 0.890625q1.1875 0 1.96875 -0.890625q0.78125 -0.90625 0.78125 -2.421875q0 -1.5 -0.78125 -2.40625q-0.765625 -0.921875 -1.984375 -0.921875q-1.15625 0 -1.9375 0.90625q-0.78125 0.890625 -0.78125 2.421875zm16.21576 -4.40625l0 7.515625l1.125 0l0 4.078125l-1.4375 0l0 -2.796875l-6.5625 0l0 2.796875l-1.453125 0l0 -4.078125l0.953125 0q0.578125 -1.3125 0.84375 -2.578125q0.265625 -1.28125 0.265625 -2.6875l0 -2.25l6.265625 0zm-1.453125 7.515625l0 -6.234375l-3.390625 0l0 0.59375q0 2.0 -0.28125 3.265625q-0.265625 1.265625 -0.75 2.375l4.421875 0zm5.5282593 -7.515625l0 7.140625l0.03125 0l3.953125 -7.140625l1.859375 0l0 8.796875l-1.453125 0l0 -7.140625l-0.046875 0l-3.9375 7.140625l-1.84375 0l0 -8.796875l1.4375 0zm14.637085 -3.34375l0 4.09375l0.046875 0q0.4375 -0.46875 0.9375 -0.703125q0.5 -0.234375 1.109375 -0.234375q1.5 0 2.40625 1.203125q0.90625 1.203125 0.90625 3.25q0 2.234375 -0.9375 3.484375q-0.921875 1.25 -2.59375 1.25q-0.5 0 -1.0 -0.203125q-0.484375 -0.21875 -0.828125 -0.65625l-0.046875 0l0 4.03125l-1.453125 0l0 -4.078125l-0.03125 0q-0.40625 0.46875 -0.921875 0.6875q-0.515625 0.21875 -1.078125 0.21875q-1.59375 0 -2.484375 -1.265625q-0.875 -1.28125 -0.875 -3.46875q0 -2.0625 0.921875 -3.25q0.921875 -1.203125 2.484375 -1.203125q0.640625 0 1.140625 0.265625q0.515625 0.25 0.796875 0.671875l0.046875 0l0 -4.09375l1.453125 0zm-5.359375 7.65625q0 1.625 0.5625 2.5625q0.578125 0.921875 1.65625 0.921875q0.46875 0 0.875 -0.1875q0.40625 -0.203125 0.609375 -0.484375q0.203125 -0.296875 0.203125 -0.46875l0 -4.421875q-0.25 -0.59375 -0.71875 -0.90625q-0.46875 -0.3125 -1.078125 -0.3125q-1.0 0 -1.5625 0.84375q-0.546875 0.828125 -0.546875 2.453125zm5.359375 2.328125q0.109375 0.515625 0.59375 0.84375q0.484375 0.3125 1.109375 0.3125q1.078125 0 1.640625 -0.921875q0.5625 -0.9375 0.5625 -2.5625q0 -1.609375 -0.546875 -2.453125q-0.546875 -0.84375 -1.59375 -0.84375q-0.59375 0 -1.0625 0.296875q-0.453125 0.28125 -0.703125 0.90625l0 4.421875zm8.876038 -6.640625l0 7.140625l0.03125 0l3.953125 -7.140625l1.859375 0l0 8.796875l-1.453125 0l0 -7.140625l-0.046875 0l-3.9375 7.140625l-1.84375 0l0 -8.796875l1.4375 0zm9.637085 0l0 7.515625l4.3125 0l0 -7.515625l1.453125 0l0 7.515625l1.140625 0l0 4.078125l-1.4375 0l0 -2.796875l-6.90625 0l0 -8.796875l1.4375 0zm9.840149 0l0 7.140625l0.03125 0l3.953125 -7.140625l1.859375 0l0 8.796875l-1.453125 0l0 -7.140625l-0.046875 0l-3.9375 7.140625l-1.84375 0l0 -8.796875l1.4375 0zm12.52771 -0.1875q1.890625 0 2.96875 1.296875q1.078125 1.28125 1.078125 3.328125q0 2.03125 -1.078125 3.296875q-1.078125 1.265625 -2.921875 1.265625q-0.828125 0 -1.609375 -0.328125q-0.78125 -0.34375 -1.25 -1.046875l-0.03125 0l0 4.546875l-1.4375 0l0 -12.171875l1.4375 0l0 1.203125l0.03125 0q0.34375 -0.6875 1.078125 -1.03125q0.734375 -0.359375 1.734375 -0.359375zm-2.890625 4.578125q0 1.53125 0.734375 2.4375q0.75 0.890625 2.03125 0.890625q1.265625 0 1.953125 -0.890625q0.6875 -0.890625 0.6875 -2.5q0 -1.421875 -0.734375 -2.328125q-0.71875 -0.921875 -2.0 -0.921875q-1.265625 0 -1.96875 0.9375q-0.703125 0.921875 -0.703125 2.375zm12.615402 -4.578125q2.0 0 3.125 1.28125q1.140625 1.28125 1.140625 3.3125q0 2.0625 -1.15625 3.328125q-1.15625 1.265625 -3.109375 1.265625q-1.90625 0 -3.09375 -1.25q-1.171875 -1.25 -1.171875 -3.34375q0 -2.078125 1.15625 -3.328125q1.15625 -1.265625 3.109375 -1.265625zm-2.734375 4.59375q0 1.515625 0.765625 2.421875q0.78125 0.890625 1.96875 0.890625q1.1875 0 1.96875 -0.890625q0.78125 -0.90625 0.78125 -2.421875q0 -1.5 -0.78125 -2.40625q-0.765625 -0.921875 -1.984375 -0.921875q-1.15625 0 -1.9375 0.90625q-0.78125 0.890625 -0.78125 2.421875zm13.043884 -4.40625q1.390625 0 2.140625 0.53125q0.765625 0.515625 0.765625 1.609375q0 0.71875 -0.34375 1.1875q-0.328125 0.453125 -0.9375 0.734375l0 0.015625q0.859375 0.234375 1.265625 0.78125q0.40625 0.53125 0.40625 1.359375q0 1.15625 -0.78125 1.875q-0.765625 0.703125 -1.828125 0.703125l-4.828125 0l0 -8.796875l4.140625 0zm-0.0625 3.5625q0.734375 0 1.125 -0.28125q0.390625 -0.296875 0.390625 -0.890625q0 -0.59375 -0.40625 -0.859375q-0.40625 -0.28125 -1.15625 -0.28125l-2.625 0l0 2.3125l2.671875 0zm0.46875 3.984375q0.625 0 1.03125 -0.359375q0.40625 -0.375 0.40625 -1.0q0 -0.6875 -0.46875 -1.046875q-0.453125 -0.359375 -1.21875 -0.359375l-2.890625 0l0 2.765625l3.140625 0zm8.353973 -7.734375q1.78125 0 2.53125 0.640625q0.765625 0.625 0.765625 1.703125q0 4.578125 0 5.078125q0 0.484375 0.453125 0.484375q0.09375 0 0.203125 -0.015625q0.125 -0.03125 0.234375 -0.0625l0 1.125q-0.203125 0.109375 -0.46875 0.171875q-0.25 0.0625 -0.5625 0.0625q-0.59375 0 -0.921875 -0.328125q-0.3125 -0.34375 -0.3125 -1.03125q-0.5625 0.6875 -1.34375 1.03125q-0.78125 0.328125 -1.75 0.328125q-1.359375 0 -2.140625 -0.640625q-0.765625 -0.640625 -0.765625 -1.828125q0 -1.171875 0.75 -1.859375q0.765625 -0.703125 3.5625 -1.0625q0.953125 -0.109375 1.28125 -0.34375q0.34375 -0.25 0.34375 -0.734375q0 -0.734375 -0.46875 -1.09375q-0.46875 -0.359375 -1.5 -0.359375q-1.0625 0 -1.609375 0.40625q-0.53125 0.40625 -0.5625 1.265625l-1.453125 0q0.0625 -1.46875 1.03125 -2.203125q0.96875 -0.734375 2.703125 -0.734375zm-2.546875 6.625q0 0.609375 0.4375 0.953125q0.453125 0.328125 1.265625 0.328125q1.21875 0 1.953125 -0.59375q0.734375 -0.609375 0.734375 -1.359375l0 -1.515625q-0.375 0.265625 -0.953125 0.359375q-0.578125 0.09375 -1.546875 0.21875q-0.953125 0.140625 -1.421875 0.53125q-0.46875 0.375 -0.46875 1.078125zm9.697723 -6.4375l0 3.515625l4.390625 0l0 -3.515625l1.453125 0l0 8.796875l-1.453125 0l0 -4.015625l-4.390625 0l0 4.015625l-1.4375 0l0 -8.796875l1.4375 0zm9.637085 0l0 3.515625l4.390625 0l0 -3.515625l1.453125 0l0 8.796875l-1.453125 0l0 -4.015625l-4.390625 0l0 4.015625l-1.4375 0l0 -8.796875l1.4375 0zm11.793335 -0.1875q1.78125 0 2.53125 0.640625q0.765625 0.625 0.765625 1.703125q0 4.578125 0 5.078125q0 0.484375 0.453125 0.484375q0.09375 0 0.203125 -0.015625q0.125 -0.03125 0.234375 -0.0625l0 1.125q-0.203125 0.109375 -0.46875 0.171875q-0.25 0.0625 -0.5625 0.0625q-0.59375 0 -0.921875 -0.328125q-0.3125 -0.34375 -0.3125 -1.03125q-0.5625 0.6875 -1.34375 1.03125q-0.78125 0.328125 -1.75 0.328125q-1.359375 0 -2.140625 -0.640625q-0.765625 -0.640625 -0.765625 -1.828125q0 -1.171875 0.75 -1.859375q0.765625 -0.703125 3.5625 -1.0625q0.953125 -0.109375 1.28125 -0.34375q0.34375 -0.25 0.34375 -0.734375q0 -0.734375 -0.46875 -1.09375q-0.46875 -0.359375 -1.5 -0.359375q-1.0625 0 -1.609375 0.40625q-0.53125 0.40625 -0.5625 1.265625l-1.453125 0q0.0625 -1.46875 1.03125 -2.203125q0.96875 -0.734375 2.703125 -0.734375zm-2.546875 6.625q0 0.609375 0.4375 0.953125q0.453125 0.328125 1.265625 0.328125q1.21875 0 1.953125 -0.59375q0.734375 -0.609375 0.734375 -1.359375l0 -1.515625q-0.375 0.265625 -0.953125 0.359375q-0.578125 0.09375 -1.546875 0.21875q-0.953125 0.140625 -1.421875 0.53125q-0.46875 0.375 -0.46875 1.078125zm15.182098 -6.4375l0 8.796875l-1.453125 0l0 -3.59375l-1.921875 0l-2.765625 3.59375l-1.921875 0l3.015625 -3.640625q-1.015625 -0.15625 -1.59375 -0.828125q-0.578125 -0.6875 -0.578125 -1.71875q0 -1.203125 0.765625 -1.90625q0.765625 -0.703125 2.078125 -0.703125l4.375 0zm-5.734375 2.609375q0 0.640625 0.390625 0.984375q0.40625 0.34375 1.140625 0.34375l2.75 0l0 -2.65625l-2.796875 0q-0.640625 0 -1.0625 0.328125q-0.421875 0.328125 -0.421875 1.0z" fill-rule="nonzero"></path><path fill="#000000" d="m70.884476 151.36281l0 1.28125l-4.578125 0l0 7.515625l-1.4375 0l0 -8.796875l6.015625 0zm5.0759277 -0.1875q2.0 0 3.125 1.28125q1.140625 1.28125 1.140625 3.3125q0 2.0625 -1.15625 3.328125q-1.15625 1.265625 -3.109375 1.265625q-1.90625 0 -3.09375 -1.25q-1.171875 -1.25 -1.171875 -3.34375q0 -2.078125 1.15625 -3.328125q1.15625 -1.265625 3.109375 -1.265625zm-2.734375 4.59375q0 1.515625 0.765625 2.421875q0.78125 0.890625 1.96875 0.890625q1.1875 0 1.96875 -0.890625q0.78125 -0.90625 0.78125 -2.421875q0 -1.5 -0.78125 -2.40625q-0.765625 -0.921875 -1.984375 -0.921875q-1.15625 0 -1.9375 0.90625q-0.78125 0.890625 -0.78125 2.421875zm12.559509 -4.59375q1.609375 0 2.609375 0.765625q1.015625 0.75 1.1875 2.25l-1.484375 0q-0.1875 -0.859375 -0.75 -1.296875q-0.5625 -0.453125 -1.4375 -0.453125q-1.34375 0 -2.046875 0.90625q-0.6875 0.890625 -0.6875 2.53125q0 1.453125 0.6875 2.328125q0.6875 0.875 1.875 0.875q1.0625 0 1.671875 -0.5625q0.609375 -0.5625 0.75 -1.578125l1.46875 0q-0.234375 1.65625 -1.234375 2.546875q-1.0 0.875 -2.640625 0.875q-1.90625 0 -3.015625 -1.203125q-1.09375 -1.203125 -1.09375 -3.28125q0 -2.15625 1.109375 -3.421875q1.109375 -1.28125 3.03125 -1.28125zm12.353973 0.1875l0 1.28125l-3.140625 0l0 7.515625l-1.4375 0l0 -7.515625l-3.15625 0l0 -1.28125l7.734375 0zm4.9585266 -0.1875q1.890625 0 2.9375 1.359375q1.046875 1.359375 1.046875 3.484375l0 0.1875l-6.578125 0l0 0.09375q0 1.265625 0.734375 2.03125q0.734375 0.75 2.0 0.75q0.96875 0 1.53125 -0.4375q0.578125 -0.453125 0.75 -1.28125l1.421875 0q-0.28125 1.46875 -1.28125 2.234375q-0.984375 0.765625 -2.46875 0.765625q-1.390625 0 -2.34375 -0.625q-0.953125 -0.625 -1.421875 -1.734375q-0.453125 -1.125 -0.453125 -2.296875q0 -1.9375 1.171875 -3.234375q1.171875 -1.296875 2.953125 -1.296875zm-2.59375 3.75l5.046875 0q-0.0625 -1.078125 -0.78125 -1.78125q-0.703125 -0.703125 -1.765625 -0.703125q-1.0 0 -1.703125 0.671875q-0.703125 0.671875 -0.796875 1.8125zm12.400848 -3.5625q1.390625 0 2.140625 0.53125q0.765625 0.515625 0.765625 1.609375q0 0.71875 -0.34375 1.1875q-0.328125 0.453125 -0.9375 0.734375l0 0.015625q0.859375 0.234375 1.265625 0.78125q0.40625 0.53125 0.40625 1.359375q0 1.15625 -0.78125 1.875q-0.765625 0.703125 -1.828125 0.703125l-4.828125 0l0 -8.796875l4.140625 0zm-0.0625 3.5625q0.734375 0 1.125 -0.28125q0.390625 -0.296875 0.390625 -0.890625q0 -0.59375 -0.40625 -0.859375q-0.40625 -0.28125 -1.15625 -0.28125l-2.625 0l0 2.3125l2.671875 0zm0.46875 3.984375q0.625 0 1.03125 -0.359375q0.40625 -0.375 0.40625 -1.0q0 -0.6875 -0.46875 -1.046875q-0.453125 -0.359375 -1.21875 -0.359375l-2.890625 0l0 2.765625l3.140625 0zm8.353973 -7.734375q1.78125 0 2.53125 0.640625q0.765625 0.625 0.765625 1.703125q0 4.578125 0 5.078125q0 0.484375 0.453125 0.484375q0.09375 0 0.203125 -0.015625q0.125 -0.03125 0.234375 -0.0625l0 1.125q-0.203125 0.109375 -0.46875 0.171875q-0.25 0.0625 -0.5625 0.0625q-0.59375 0 -0.921875 -0.328125q-0.3125 -0.34375 -0.3125 -1.03125q-0.5625 0.6875 -1.34375 1.03125q-0.78125 0.328125 -1.75 0.328125q-1.359375 0 -2.140625 -0.640625q-0.765625 -0.640625 -0.765625 -1.828125q0 -1.171875 0.75 -1.859375q0.765625 -0.703125 3.5625 -1.0625q0.953125 -0.109375 1.28125 -0.34375q0.34375 -0.25 0.34375 -0.734375q0 -0.734375 -0.46875 -1.09375q-0.46875 -0.359375 -1.5 -0.359375q-1.0625 0 -1.609375 0.40625q-0.53125 0.40625 -0.5625 1.265625l-1.453125 0q0.0625 -1.46875 1.03125 -2.203125q0.96875 -0.734375 2.703125 -0.734375zm-2.546875 6.625q0 0.609375 0.4375 0.953125q0.453125 0.328125 1.265625 0.328125q1.21875 0 1.953125 -0.59375q0.734375 -0.609375 0.734375 -1.359375l0 -1.515625q-0.375 0.265625 -0.953125 0.359375q-0.578125 0.09375 -1.546875 0.21875q-0.953125 0.140625 -1.421875 0.53125q-0.46875 0.375 -0.46875 1.078125zm15.182098 -6.4375l0 8.796875l-1.453125 0l0 -3.59375l-1.921875 0l-2.765625 3.59375l-1.921875 0l3.015625 -3.640625q-1.015625 -0.15625 -1.59375 -0.828125q-0.578125 -0.6875 -0.578125 -1.71875q0 -1.203125 0.765625 -1.90625q0.765625 -0.703125 2.078125 -0.703125l4.375 0zm-5.734375 2.609375q0 0.640625 0.390625 0.984375q0.40625 0.34375 1.140625 0.34375l2.75 0l0 -2.65625l-2.796875 0q-0.640625 0 -1.0625 0.328125q-0.421875 0.328125 -0.421875 1.0zm18.259445 -6.234375q1.765625 0 3.078125 0.8125q1.3125 0.8125 2.03125 2.296875q0.71875 1.484375 0.71875 3.25q0 1.765625 -0.71875 3.25q-0.703125 1.46875 -2.03125 2.296875q-1.328125 0.8125 -3.078125 0.8125q-1.75 0 -3.0625 -0.8125q-1.3125 -0.828125 -2.03125 -2.296875q-0.71875 -1.46875 -0.71875 -3.25q0 -2.765625 1.578125 -4.5625q1.59375 -1.796875 4.234375 -1.796875zm-4.1875 6.359375q0 1.34375 0.484375 2.515625q0.5 1.171875 1.453125 1.828125q0.953125 0.640625 2.25 0.640625q1.953125 0 3.078125 -1.40625q1.125 -1.40625 1.125 -3.578125q0 -2.15625 -1.109375 -3.578125q-1.109375 -1.421875 -3.109375 -1.421875q-1.953125 0 -3.0625 1.4375q-1.109375 1.421875 -1.109375 3.5625zm17.368439 -6.359375q2.015625 0 3.375 1.046875q1.359375 1.046875 1.625 2.890625l-1.609375 0q-0.265625 -1.25 -1.171875 -1.90625q-0.890625 -0.671875 -2.234375 -0.671875q-1.921875 0 -3.015625 1.359375q-1.09375 1.359375 -1.09375 3.546875q0 2.328125 1.0625 3.703125q1.078125 1.375 3.0625 1.375q1.484375 0 2.4375 -0.9375q0.953125 -0.9375 1.078125 -2.5625l1.609375 0q-0.265625 2.359375 -1.640625 3.625q-1.375 1.25 -3.609375 1.25q-2.609375 0 -4.109375 -1.71875q-1.5 -1.734375 -1.5 -4.609375q0 -2.828125 1.546875 -4.609375q1.546875 -1.78125 4.1875 -1.78125z" fill-rule="nonzero"></path><path fill="#000000" fill-opacity="0.0" d="m114.91338 205.89764l0 30.45668" fill-rule="nonzero"></path><path stroke="#000000" stroke-width="2.0" stroke-linejoin="round" stroke-linecap="butt" d="m114.91338 217.89764l0 6.4566803" fill-rule="evenodd"></path><path fill="#000000" stroke="#000000" stroke-width="2.0" stroke-linecap="butt" d="m118.21685 217.89764l-3.3034668 -9.076202l-3.3034592 9.076202z" fill-rule="evenodd"></path><path fill="#000000" stroke="#000000" stroke-width="2.0" stroke-linecap="butt" d="m111.609924 224.35432l3.3034592 9.076202l3.3034668 -9.076202z" fill-rule="evenodd"></path><path fill="#000000" fill-opacity="0.0" d="m344.0 205.9304l0 30.456696" fill-rule="nonzero"></path><path stroke="#000000" stroke-width="2.0" stroke-linejoin="round" stroke-linecap="butt" d="m344.0 217.9304l0 6.4566956" fill-rule="evenodd"></path><path fill="#000000" stroke="#000000" stroke-width="2.0" stroke-linecap="butt" d="m347.30347 217.9304l-3.3034668 -9.076202l-3.3034668 9.076202z" fill-rule="evenodd"></path><path fill="#000000" stroke="#000000" stroke-width="2.0" stroke-linecap="butt" d="m340.69653 224.3871l3.3034668 9.076187l3.3034668 -9.076187z" fill-rule="evenodd"></path><path fill="#000000" fill-opacity="0.0" d="m573.0952 205.92126l0 30.456696" fill-rule="nonzero"></path><path stroke="#000000" stroke-width="2.0" stroke-linejoin="round" stroke-linecap="butt" d="m573.0952 217.92126l0 6.4566956" fill-rule="evenodd"></path><path fill="#000000" stroke="#000000" stroke-width="2.0" stroke-linecap="butt" d="m576.3986 217.92126l-3.3034058 -9.076202l-3.3034668 9.076202z" fill-rule="evenodd"></path><path fill="#000000" stroke="#000000" stroke-width="2.0" stroke-linecap="butt" d="m569.79175 224.37796l3.3034668 9.076187l3.3034058 -9.076187z" fill-rule="evenodd"></path><path fill="#000000" fill-opacity="0.0" d="m344.0 342.9698l0 30.456665" fill-rule="nonzero"></path><path stroke="#000000" stroke-width="2.0" stroke-linejoin="round" stroke-linecap="butt" d="m344.0 354.9698l0 6.4566956" fill-rule="evenodd"></path><path fill="#000000" stroke="#000000" stroke-width="2.0" stroke-linecap="butt" d="m347.30347 354.9698l-3.3034668 -9.076202l-3.3034668 9.076202z" fill-rule="evenodd"></path><path fill="#000000" stroke="#000000" stroke-width="2.0" stroke-linecap="butt" d="m340.69653 361.42648l3.3034668 9.076172l3.3034668 -9.076172z" fill-rule="evenodd"></path><path fill="#000000" fill-opacity="0.0" d="m8.0026245 10.71916l213.82677 0l0 64.28346l-213.82677 0z" fill-rule="nonzero"></path><path stroke="#000000" stroke-width="2.0" stroke-linejoin="round" stroke-linecap="butt" d="m8.0026245 10.71916l213.82677 0l0 64.28346l-213.82677 0z" fill-rule="nonzero"></path><path fill="#000000" d="m52.969147 33.17964l0 19.28125l-2.578125 0l0 -17.109375l-10.140625 0l0 17.109375l-2.5625 0l0 -19.28125l15.28125 0zm10.46904 5.0q3.0 0 4.71875 2.0625q1.71875 2.046875 1.71875 5.28125q0 3.25 -1.71875 5.265625q-1.71875 2.0 -4.65625 2.0q-1.296875 0 -2.546875 -0.53125q-1.25 -0.546875 -1.96875 -1.65625l-0.0625 0l0 7.21875l-2.28125 0l0 -19.328125l2.28125 0l0 1.90625l0.0625 0q0.53125 -1.078125 1.703125 -1.640625q1.171875 -0.578125 2.75 -0.578125zm-4.59375 7.296875q0 2.421875 1.171875 3.859375q1.1875 1.421875 3.234375 1.421875q2.0 0 3.09375 -1.421875q1.09375 -1.421875 1.09375 -3.96875q0 -2.25 -1.15625 -3.703125q-1.15625 -1.46875 -3.1875 -1.46875q-2.015625 0 -3.140625 1.484375q-1.109375 1.46875 -1.109375 3.796875zm15.801117 -6.984375l0 11.34375l0.0625 0l6.265625 -11.34375l2.953125 0l0 13.96875l-2.296875 0l0 -11.34375l-0.078125 0l-6.25 11.34375l-2.9375 0l0 -13.96875l2.28125 0zm23.824936 0l0 13.96875l-2.296875 0l0 -11.9375l-5.046875 0l-0.296875 7.375q-0.078125 2.421875 -1.0625 3.640625q-0.96875 1.21875 -2.671875 1.21875q-0.4375 0 -0.8125 -0.0625q-0.359375 -0.0625 -0.78125 -0.234375l0 -1.890625q0.328125 0.125 0.609375 0.171875q0.28125 0.046875 0.5625 0.046875q0.96875 0 1.40625 -0.71875q0.453125 -0.734375 0.53125 -2.515625l0.296875 -9.0625l9.5625 0zm9.28598 -0.3125q3.171875 0 4.96875 2.046875q1.8125 2.046875 1.8125 5.265625q0 3.265625 -1.84375 5.28125q-1.84375 2.015625 -4.9375 2.015625q-3.03125 0 -4.90625 -1.984375q-1.875 -1.984375 -1.875 -5.3125q0 -3.3125 1.828125 -5.3125q1.84375 -2.0 4.953125 -2.0zm-4.34375 7.3125q0 2.40625 1.21875 3.84375q1.234375 1.421875 3.125 1.421875q1.890625 0 3.125 -1.4375q1.234375 -1.4375 1.234375 -3.828125q0 -2.375 -1.234375 -3.828125q-1.21875 -1.46875 -3.15625 -1.46875q-1.84375 0 -3.078125 1.4375q-1.234375 1.421875 -1.234375 3.859375zm15.572144 -7.0l5.625 6.34375l0.046875 0l0 -6.34375l2.296875 0l0 6.5l0.046875 0l5.734375 -6.5l2.78125 0l-5.328125 5.828125l6.09375 8.140625l-2.828125 0l-4.765625 -6.703125l-1.734375 1.8125l0 4.890625l-2.296875 0l0 -4.84375l-1.796875 -1.859375l-4.734375 6.703125l-2.8125 0l6.125 -8.140625l-5.34375 -5.828125l2.890625 0zm24.567429 -0.3125q3.0 0 4.65625 2.171875q1.671875 2.15625 1.671875 5.546875l0 0.28125l-10.453125 0l0 0.15625q0 2.0 1.15625 3.21875q1.15625 1.203125 3.1875 1.203125q1.53125 0 2.4375 -0.703125q0.90625 -0.71875 1.171875 -2.03125l2.265625 0q-0.453125 2.328125 -2.03125 3.546875q-1.5625 1.21875 -3.921875 1.21875q-2.203125 0 -3.734375 -0.984375q-1.515625 -1.0 -2.25 -2.765625q-0.71875 -1.78125 -0.71875 -3.640625q0 -3.09375 1.859375 -5.15625q1.859375 -2.0625 4.703125 -2.0625zm-4.125 5.96875l8.015625 0q-0.109375 -1.703125 -1.234375 -2.828125q-1.125 -1.125 -2.8125 -1.125q-1.59375 0 -2.71875 1.078125q-1.109375 1.0625 -1.25 2.875zm14.926697 -5.65625l0 5.578125l6.984375 0l0 -5.578125l2.296875 0l0 13.96875l-2.296875 0l0 -6.375l-6.984375 0l0 6.375l-2.28125 0l0 -13.96875l2.28125 0zm14.824936 0l0 11.34375l0.0625 0l6.265625 -11.34375l2.953125 0l0 13.96875l-2.296875 0l0 -11.34375l-0.078125 0l-6.25 11.34375l-2.9375 0l0 -13.96875l2.28125 0zm23.52806 0l0 13.96875l-2.296875 0l0 -5.703125l-3.046875 0l-4.40625 5.703125l-3.046875 0l4.78125 -5.78125q-1.59375 -0.25 -2.515625 -1.328125q-0.921875 -1.09375 -0.921875 -2.71875q0 -1.90625 1.21875 -3.015625q1.21875 -1.125 3.296875 -1.125l6.9375 0zm-9.109375 4.140625q0 1.015625 0.640625 1.5625q0.640625 0.546875 1.8125 0.546875l4.359375 0l0 -4.21875l-4.453125 0q-1.015625 0 -1.6875 0.515625q-0.671875 0.515625 -0.671875 1.59375z" fill-rule="nonzero"></path><path fill="#000000" fill-opacity="0.0" d="m237.08923 81.178474l213.82678 0l0 124.75591l-213.82678 0z" fill-rule="nonzero"></path><path stroke="#000000" stroke-width="2.0" stroke-linejoin="round" stroke-linecap="butt" d="m237.08923 81.178474l213.82678 0l0 124.75591l-213.82678 0z" fill-rule="nonzero"></path><path fill="#000000" d="m265.4088 127.0558l3.828125 10.203125l3.84375 -10.203125l2.21875 0l0 12.140625l-1.53125 0l0 -10.109375l-0.03125 0l-3.796875 10.109375l-1.375 0l-3.796875 -10.109375l-0.03125 0l0 10.109375l-1.53125 0l0 -12.140625l2.203125 0zm16.406921 3.15625q2.0 0 3.125 1.28125q1.140625 1.28125 1.140625 3.3125q0 2.0625 -1.15625 3.328125q-1.15625 1.265625 -3.109375 1.265625q-1.90625 0 -3.09375 -1.25q-1.171875 -1.25 -1.171875 -3.34375q0 -2.078125 1.15625 -3.328125q1.15625 -1.265625 3.109375 -1.265625zm-2.734375 4.59375q0 1.515625 0.765625 2.421875q0.78125 0.890625 1.96875 0.890625q1.1875 0 1.96875 -0.890625q0.78125 -0.90625 0.78125 -2.421875q0 -1.5 -0.78125 -2.40625q-0.765625 -0.921875 -1.984375 -0.921875q-1.15625 0 -1.9375 0.90625q-0.78125 0.890625 -0.78125 2.421875zm16.21576 -4.40625l0 7.515625l1.125 0l0 4.078125l-1.4375 0l0 -2.796875l-6.5625 0l0 2.796875l-1.453125 0l0 -4.078125l0.953125 0q0.578125 -1.3125 0.84375 -2.578125q0.265625 -1.28125 0.265625 -2.6875l0 -2.25l6.265625 0zm-1.453125 7.515625l0 -6.234375l-3.390625 0l0 0.59375q0 2.0 -0.28125 3.265625q-0.265625 1.265625 -0.75 2.375l4.421875 0zm5.5282593 -7.515625l0 7.140625l0.03125 0l3.953125 -7.140625l1.859375 0l0 8.796875l-1.453125 0l0 -7.140625l-0.046875 0l-3.9375 7.140625l-1.84375 0l0 -8.796875l1.4375 0zm14.637085 -3.34375l0 4.09375l0.046875 0q0.4375 -0.46875 0.9375 -0.703125q0.5 -0.234375 1.109375 -0.234375q1.5 0 2.40625 1.203125q0.90625 1.203125 0.90625 3.25q0 2.234375 -0.9375 3.484375q-0.921875 1.25 -2.59375 1.25q-0.5 0 -1.0 -0.203125q-0.484375 -0.21875 -0.828125 -0.65625l-0.046875 0l0 4.03125l-1.453125 0l0 -4.078125l-0.03125 0q-0.40625 0.46875 -0.921875 0.6875q-0.515625 0.21875 -1.078125 0.21875q-1.59375 0 -2.484375 -1.265625q-0.875 -1.28125 -0.875 -3.46875q0 -2.0625 0.921875 -3.25q0.921875 -1.203125 2.484375 -1.203125q0.640625 0 1.140625 0.265625q0.515625 0.25 0.796875 0.671875l0.046875 0l0 -4.09375l1.453125 0zm-5.359375 7.65625q0 1.625 0.5625 2.5625q0.578125 0.921875 1.65625 0.921875q0.46875 0 0.875 -0.1875q0.40625 -0.203125 0.609375 -0.484375q0.203125 -0.296875 0.203125 -0.46875l0 -4.421875q-0.25 -0.59375 -0.71875 -0.90625q-0.46875 -0.3125 -1.078125 -0.3125q-1.0 0 -1.5625 0.84375q-0.546875 0.828125 -0.546875 2.453125zm5.359375 2.328125q0.109375 0.515625 0.59375 0.84375q0.484375 0.3125 1.109375 0.3125q1.078125 0 1.640625 -0.921875q0.5625 -0.9375 0.5625 -2.5625q0 -1.609375 -0.546875 -2.453125q-0.546875 -0.84375 -1.59375 -0.84375q-0.59375 0 -1.0625 0.296875q-0.453125 0.28125 -0.703125 0.90625l0 4.421875zm8.876038 -6.640625l0 7.140625l0.03125 0l3.953125 -7.140625l1.859375 0l0 8.796875l-1.453125 0l0 -7.140625l-0.046875 0l-3.9375 7.140625l-1.84375 0l0 -8.796875l1.4375 0zm9.637085 0l0 7.515625l4.3125 0l0 -7.515625l1.453125 0l0 7.515625l1.140625 0l0 4.078125l-1.4375 0l0 -2.796875l-6.90625 0l0 -8.796875l1.4375 0zm9.840149 0l0 7.140625l0.03125 0l3.953125 -7.140625l1.859375 0l0 8.796875l-1.453125 0l0 -7.140625l-0.046875 0l-3.9375 7.140625l-1.84375 0l0 -8.796875l1.4375 0zm12.52771 -0.1875q1.890625 0 2.96875 1.296875q1.078125 1.28125 1.078125 3.328125q0 2.03125 -1.078125 3.296875q-1.078125 1.265625 -2.921875 1.265625q-0.828125 0 -1.609375 -0.328125q-0.78125 -0.34375 -1.25 -1.046875l-0.03125 0l0 4.546875l-1.4375 0l0 -12.171875l1.4375 0l0 1.203125l0.03125 0q0.34375 -0.6875 1.078125 -1.03125q0.734375 -0.359375 1.734375 -0.359375zm-2.890625 4.578125q0 1.53125 0.734375 2.4375q0.75 0.890625 2.03125 0.890625q1.265625 0 1.953125 -0.890625q0.6875 -0.890625 0.6875 -2.5q0 -1.421875 -0.734375 -2.328125q-0.71875 -0.921875 -2.0 -0.921875q-1.265625 0 -1.96875 0.9375q-0.703125 0.921875 -0.703125 2.375zm12.615387 -4.578125q2.0 0 3.125 1.28125q1.140625 1.28125 1.140625 3.3125q0 2.0625 -1.15625 3.328125q-1.15625 1.265625 -3.109375 1.265625q-1.90625 0 -3.09375 -1.25q-1.171875 -1.25 -1.171875 -3.34375q0 -2.078125 1.15625 -3.328125q1.15625 -1.265625 3.109375 -1.265625zm-2.734375 4.59375q0 1.515625 0.765625 2.421875q0.78125 0.890625 1.96875 0.890625q1.1875 0 1.96875 -0.890625q0.78125 -0.90625 0.78125 -2.421875q0 -1.5 -0.78125 -2.40625q-0.765625 -0.921875 -1.984375 -0.921875q-1.15625 0 -1.9375 0.90625q-0.78125 0.890625 -0.78125 2.421875zm13.043884 -4.40625q1.390625 0 2.140625 0.53125q0.765625 0.515625 0.765625 1.609375q0 0.71875 -0.34375 1.1875q-0.328125 0.453125 -0.9375 0.734375l0 0.015625q0.859375 0.234375 1.265625 0.78125q0.40625 0.53125 0.40625 1.359375q0 1.15625 -0.78125 1.875q-0.765625 0.703125 -1.828125 0.703125l-4.828125 0l0 -8.796875l4.140625 0zm-0.0625 3.5625q0.734375 0 1.125 -0.28125q0.390625 -0.296875 0.390625 -0.890625q0 -0.59375 -0.40625 -0.859375q-0.40625 -0.28125 -1.15625 -0.28125l-2.625 0l0 2.3125l2.671875 0zm0.46875 3.984375q0.625 0 1.03125 -0.359375q0.40625 -0.375 0.40625 -1.0q0 -0.6875 -0.46875 -1.046875q-0.453125 -0.359375 -1.21875 -0.359375l-2.890625 0l0 2.765625l3.140625 0zm8.353973 -7.734375q1.78125 0 2.53125 0.640625q0.765625 0.625 0.765625 1.703125q0 4.578125 0 5.078125q0 0.484375 0.453125 0.484375q0.09375 0 0.203125 -0.015625q0.125 -0.03125 0.234375 -0.0625l0 1.125q-0.203125 0.109375 -0.46875 0.171875q-0.25 0.0625 -0.5625 0.0625q-0.59375 0 -0.921875 -0.328125q-0.3125 -0.34375 -0.3125 -1.03125q-0.5625 0.6875 -1.34375 1.03125q-0.78125 0.328125 -1.75 0.328125q-1.359375 0 -2.140625 -0.640625q-0.765625 -0.640625 -0.765625 -1.828125q0 -1.171875 0.75 -1.859375q0.765625 -0.703125 3.5625 -1.0625q0.953125 -0.109375 1.28125 -0.34375q0.34375 -0.25 0.34375 -0.734375q0 -0.734375 -0.46875 -1.09375q-0.46875 -0.359375 -1.5 -0.359375q-1.0625 0 -1.609375 0.40625q-0.53125 0.40625 -0.5625 1.265625l-1.453125 0q0.0625 -1.46875 1.03125 -2.203125q0.96875 -0.734375 2.703125 -0.734375zm-2.546875 6.625q0 0.609375 0.4375 0.953125q0.453125 0.328125 1.265625 0.328125q1.21875 0 1.953125 -0.59375q0.734375 -0.609375 0.734375 -1.359375l0 -1.515625q-0.375 0.265625 -0.953125 0.359375q-0.578125 0.09375 -1.546875 0.21875q-0.953125 0.140625 -1.421875 0.53125q-0.46875 0.375 -0.46875 1.078125zm9.697723 -6.4375l0 3.515625l4.390625 0l0 -3.515625l1.453125 0l0 8.796875l-1.453125 0l0 -4.015625l-4.390625 0l0 4.015625l-1.4375 0l0 -8.796875l1.4375 0zm9.637085 0l0 3.515625l4.390625 0l0 -3.515625l1.453125 0l0 8.796875l-1.453125 0l0 -4.015625l-4.390625 0l0 4.015625l-1.4375 0l0 -8.796875l1.4375 0zm11.793335 -0.1875q1.78125 0 2.53125 0.640625q0.765625 0.625 0.765625 1.703125q0 4.578125 0 5.078125q0 0.484375 0.453125 0.484375q0.09375 0 0.203125 -0.015625q0.125 -0.03125 0.234375 -0.0625l0 1.125q-0.203125 0.109375 -0.46875 0.171875q-0.25 0.0625 -0.5625 0.0625q-0.59375 0 -0.921875 -0.328125q-0.3125 -0.34375 -0.3125 -1.03125q-0.5625 0.6875 -1.34375 1.03125q-0.78125 0.328125 -1.75 0.328125q-1.359375 0 -2.140625 -0.640625q-0.765625 -0.640625 -0.765625 -1.828125q0 -1.171875 0.75 -1.859375q0.765625 -0.703125 3.5625 -1.0625q0.953125 -0.109375 1.28125 -0.34375q0.34375 -0.25 0.34375 -0.734375q0 -0.734375 -0.46875 -1.09375q-0.46875 -0.359375 -1.5 -0.359375q-1.0625 0 -1.609375 0.40625q-0.53125 0.40625 -0.5625 1.265625l-1.453125 0q0.0625 -1.46875 1.03125 -2.203125q0.96875 -0.734375 2.703125 -0.734375zm-2.546875 6.625q0 0.609375 0.4375 0.953125q0.453125 0.328125 1.265625 0.328125q1.21875 0 1.953125 -0.59375q0.734375 -0.609375 0.734375 -1.359375l0 -1.515625q-0.375 0.265625 -0.953125 0.359375q-0.578125 0.09375 -1.546875 0.21875q-0.953125 0.140625 -1.421875 0.53125q-0.46875 0.375 -0.46875 1.078125zm15.182098 -6.4375l0 8.796875l-1.453125 0l0 -3.59375l-1.921875 0l-2.765625 3.59375l-1.921875 0l3.015625 -3.640625q-1.015625 -0.15625 -1.59375 -0.828125q-0.578125 -0.6875 -0.578125 -1.71875q0 -1.203125 0.765625 -1.90625q0.765625 -0.703125 2.078125 -0.703125l4.375 0zm-5.734375 2.609375q0 0.640625 0.390625 0.984375q0.40625 0.34375 1.140625 0.34375l2.75 0l0 -2.65625l-2.796875 0q-0.640625 0 -1.0625 0.328125q-0.421875 0.328125 -0.421875 1.0z" fill-rule="nonzero"></path><path fill="#000000" d="m299.97372 151.39955l0 1.28125l-4.578125 0l0 7.515625l-1.4375 0l0 -8.796875l6.015625 0zm5.0759277 -0.1875q2.0 0 3.125 1.28125q1.140625 1.28125 1.140625 3.3125q0 2.0625 -1.15625 3.328125q-1.15625 1.265625 -3.109375 1.265625q-1.90625 0 -3.09375 -1.25q-1.171875 -1.25 -1.171875 -3.34375q0 -2.078125 1.15625 -3.328125q1.15625 -1.265625 3.109375 -1.265625zm-2.734375 4.59375q0 1.515625 0.765625 2.421875q0.78125 0.890625 1.96875 0.890625q1.1875 0 1.96875 -0.890625q0.78125 -0.90625 0.78125 -2.421875q0 -1.5 -0.78125 -2.40625q-0.765625 -0.921875 -1.984375 -0.921875q-1.15625 0 -1.9375 0.90625q-0.78125 0.890625 -0.78125 2.421875zm12.559509 -4.59375q1.609375 0 2.609375 0.765625q1.015625 0.75 1.1875 2.25l-1.484375 0q-0.1875 -0.859375 -0.75 -1.296875q-0.5625 -0.453125 -1.4375 -0.453125q-1.34375 0 -2.046875 0.90625q-0.6875 0.890625 -0.6875 2.53125q0 1.453125 0.6875 2.328125q0.6875 0.875 1.875 0.875q1.0625 0 1.671875 -0.5625q0.609375 -0.5625 0.75 -1.578125l1.46875 0q-0.234375 1.65625 -1.234375 2.546875q-1.0 0.875 -2.640625 0.875q-1.90625 0 -3.015625 -1.203125q-1.09375 -1.203125 -1.09375 -3.28125q0 -2.15625 1.109375 -3.421875q1.109375 -1.28125 3.03125 -1.28125zm12.353973 0.1875l0 1.28125l-3.140625 0l0 7.515625l-1.4375 0l0 -7.515625l-3.15625 0l0 -1.28125l7.734375 0zm4.9585266 -0.1875q1.890625 0 2.9375 1.359375q1.046875 1.359375 1.046875 3.484375l0 0.1875l-6.578125 0l0 0.09375q0 1.265625 0.734375 2.03125q0.734375 0.75 2.0 0.75q0.96875 0 1.53125 -0.4375q0.578125 -0.453125 0.75 -1.28125l1.421875 0q-0.28125 1.46875 -1.28125 2.234375q-0.984375 0.765625 -2.46875 0.765625q-1.390625 0 -2.34375 -0.625q-0.953125 -0.625 -1.421875 -1.734375q-0.453125 -1.125 -0.453125 -2.296875q0 -1.9375 1.171875 -3.234375q1.171875 -1.296875 2.953125 -1.296875zm-2.59375 3.75l5.046875 0q-0.0625 -1.078125 -0.78125 -1.78125q-0.703125 -0.703125 -1.765625 -0.703125q-1.0 0 -1.703125 0.671875q-0.703125 0.671875 -0.796875 1.8125zm12.400848 -3.5625q1.390625 0 2.140625 0.53125q0.765625 0.515625 0.765625 1.609375q0 0.71875 -0.34375 1.1875q-0.328125 0.453125 -0.9375 0.734375l0 0.015625q0.859375 0.234375 1.265625 0.78125q0.40625 0.53125 0.40625 1.359375q0 1.15625 -0.78125 1.875q-0.765625 0.703125 -1.828125 0.703125l-4.828125 0l0 -8.796875l4.140625 0zm-0.0625 3.5625q0.734375 0 1.125 -0.28125q0.390625 -0.296875 0.390625 -0.890625q0 -0.59375 -0.40625 -0.859375q-0.40625 -0.28125 -1.15625 -0.28125l-2.625 0l0 2.3125l2.671875 0zm0.46875 3.984375q0.625 0 1.03125 -0.359375q0.40625 -0.375 0.40625 -1.0q0 -0.6875 -0.46875 -1.046875q-0.453125 -0.359375 -1.21875 -0.359375l-2.890625 0l0 2.765625l3.140625 0zm8.353973 -7.734375q1.78125 0 2.53125 0.640625q0.765625 0.625 0.765625 1.703125q0 4.578125 0 5.078125q0 0.484375 0.453125 0.484375q0.09375 0 0.203125 -0.015625q0.125 -0.03125 0.234375 -0.0625l0 1.125q-0.203125 0.109375 -0.46875 0.171875q-0.25 0.0625 -0.5625 0.0625q-0.59375 0 -0.921875 -0.328125q-0.3125 -0.34375 -0.3125 -1.03125q-0.5625 0.6875 -1.34375 1.03125q-0.78125 0.328125 -1.75 0.328125q-1.359375 0 -2.140625 -0.640625q-0.765625 -0.640625 -0.765625 -1.828125q0 -1.171875 0.75 -1.859375q0.765625 -0.703125 3.5625 -1.0625q0.953125 -0.109375 1.28125 -0.34375q0.34375 -0.25 0.34375 -0.734375q0 -0.734375 -0.46875 -1.09375q-0.46875 -0.359375 -1.5 -0.359375q-1.0625 0 -1.609375 0.40625q-0.53125 0.40625 -0.5625 1.265625l-1.453125 0q0.0625 -1.46875 1.03125 -2.203125q0.96875 -0.734375 2.703125 -0.734375zm-2.546875 6.625q0 0.609375 0.4375 0.953125q0.453125 0.328125 1.265625 0.328125q1.21875 0 1.953125 -0.59375q0.734375 -0.609375 0.734375 -1.359375l0 -1.515625q-0.375 0.265625 -0.953125 0.359375q-0.578125 0.09375 -1.546875 0.21875q-0.953125 0.140625 -1.421875 0.53125q-0.46875 0.375 -0.46875 1.078125zm15.182098 -6.4375l0 8.796875l-1.453125 0l0 -3.59375l-1.921875 0l-2.765625 3.59375l-1.921875 0l3.015625 -3.640625q-1.015625 -0.15625 -1.59375 -0.828125q-0.578125 -0.6875 -0.578125 -1.71875q0 -1.203125 0.765625 -1.90625q0.765625 -0.703125 2.078125 -0.703125l4.375 0zm-5.734375 2.609375q0 0.640625 0.390625 0.984375q0.40625 0.34375 1.140625 0.34375l2.75 0l0 -2.65625l-2.796875 0q-0.640625 0 -1.0625 0.328125q-0.421875 0.328125 -0.421875 1.0zm18.25943 -6.234375q1.765625 0 3.078125 0.8125q1.3125 0.8125 2.03125 2.296875q0.71875 1.484375 0.71875 3.25q0 1.765625 -0.71875 3.25q-0.703125 1.46875 -2.03125 2.296875q-1.328125 0.8125 -3.078125 0.8125q-1.75 0 -3.0625 -0.8125q-1.3125 -0.828125 -2.03125 -2.296875q-0.71875 -1.46875 -0.71875 -3.25q0 -2.765625 1.578125 -4.5625q1.59375 -1.796875 4.234375 -1.796875zm-4.1875 6.359375q0 1.34375 0.484375 2.515625q0.5 1.171875 1.453125 1.828125q0.953125 0.640625 2.25 0.640625q1.953125 0 3.078125 -1.40625q1.125 -1.40625 1.125 -3.578125q0 -2.15625 -1.109375 -3.578125q-1.109375 -1.421875 -3.109375 -1.421875q-1.953125 0 -3.0625 1.4375q-1.109375 1.421875 -1.109375 3.5625zm17.368439 -6.359375q2.015625 0 3.375 1.046875q1.359375 1.046875 1.625 2.890625l-1.609375 0q-0.265625 -1.25 -1.171875 -1.90625q-0.890625 -0.671875 -2.234375 -0.671875q-1.921875 0 -3.015625 1.359375q-1.09375 1.359375 -1.09375 3.546875q0 2.328125 1.0625 3.703125q1.078125 1.375 3.0625 1.375q1.484375 0 2.4375 -0.9375q0.953125 -0.9375 1.078125 -2.5625l1.609375 0q-0.265625 2.359375 -1.640625 3.625q-1.375 1.25 -3.609375 1.25q-2.609375 0 -4.109375 -1.71875q-1.5 -1.734375 -1.5 -4.609375q0 -2.828125 1.546875 -4.609375q1.546875 -1.78125 4.1875 -1.78125z" fill-rule="nonzero"></path><path fill="#000000" fill-opacity="0.0" d="m237.09186 10.745407l213.82678 0l0 64.28346l-213.82678 0z" fill-rule="nonzero"></path><path stroke="#000000" stroke-width="2.0" stroke-linejoin="round" stroke-linecap="butt" d="m237.09186 10.745407l213.82678 0l0 64.28346l-213.82678 0z" fill-rule="nonzero"></path><path fill="#000000" d="m282.05838 33.205887l0 19.28125l-2.578125 0l0 -17.109375l-10.140625 0l0 17.109375l-2.5625 0l0 -19.28125l15.28125 0zm10.469055 5.0q3.0 0 4.71875 2.0625q1.71875 2.046875 1.71875 5.28125q0 3.25 -1.71875 5.265625q-1.71875 2.0 -4.65625 2.0q-1.296875 0 -2.546875 -0.53125q-1.25 -0.546875 -1.96875 -1.65625l-0.0625 0l0 7.21875l-2.28125 0l0 -19.328125l2.28125 0l0 1.90625l0.0625 0q0.53125 -1.078125 1.703125 -1.640625q1.171875 -0.578125 2.75 -0.578125zm-4.59375 7.296875q0 2.421875 1.171875 3.859375q1.1875 1.421875 3.234375 1.421875q2.0 0 3.09375 -1.421875q1.09375 -1.421875 1.09375 -3.96875q0 -2.25 -1.15625 -3.703125q-1.15625 -1.46875 -3.1875 -1.46875q-2.015625 0 -3.140625 1.484375q-1.109375 1.46875 -1.109375 3.796875zm15.801117 -6.984375l0 11.34375l0.0625 0l6.265625 -11.34375l2.953125 0l0 13.96875l-2.296875 0l0 -11.34375l-0.078125 0l-6.25 11.34375l-2.9375 0l0 -13.96875l2.28125 0zm23.82492 0l0 13.96875l-2.296875 0l0 -11.9375l-5.046875 0l-0.296875 7.375q-0.078125 2.421875 -1.0625 3.640625q-0.96875 1.21875 -2.671875 1.21875q-0.4375 0 -0.8125 -0.0625q-0.359375 -0.0625 -0.78125 -0.234375l0 -1.890625q0.328125 0.125 0.609375 0.171875q0.28125 0.046875 0.5625 0.046875q0.96875 0 1.40625 -0.71875q0.453125 -0.734375 0.53125 -2.515625l0.296875 -9.0625l9.5625 0zm9.28598 -0.3125q3.171875 0 4.96875 2.046875q1.8125 2.046875 1.8125 5.265625q0 3.265625 -1.84375 5.28125q-1.84375 2.015625 -4.9375 2.015625q-3.03125 0 -4.90625 -1.984375q-1.875 -1.984375 -1.875 -5.3125q0 -3.3125 1.828125 -5.3125q1.84375 -2.0 4.953125 -2.0zm-4.34375 7.3125q0 2.40625 1.21875 3.84375q1.234375 1.421875 3.125 1.421875q1.890625 0 3.125 -1.4375q1.234375 -1.4375 1.234375 -3.828125q0 -2.375 -1.234375 -3.828125q-1.21875 -1.46875 -3.15625 -1.46875q-1.84375 0 -3.078125 1.4375q-1.234375 1.421875 -1.234375 3.859375zm15.572144 -7.0l5.625 6.34375l0.046875 0l0 -6.34375l2.296875 0l0 6.5l0.046875 0l5.734375 -6.5l2.78125 0l-5.328125 5.828125l6.09375 8.140625l-2.828125 0l-4.765625 -6.703125l-1.734375 1.8125l0 4.890625l-2.296875 0l0 -4.84375l-1.796875 -1.859375l-4.734375 6.703125l-2.8125 0l6.125 -8.140625l-5.34375 -5.828125l2.890625 0zm24.567444 -0.3125q3.0 0 4.65625 2.171875q1.671875 2.15625 1.671875 5.546875l0 0.28125l-10.453125 0l0 0.15625q0 2.0 1.15625 3.21875q1.15625 1.203125 3.1875 1.203125q1.53125 0 2.4375 -0.703125q0.90625 -0.71875 1.171875 -2.03125l2.265625 0q-0.453125 2.328125 -2.03125 3.546875q-1.5625 1.21875 -3.921875 1.21875q-2.203125 0 -3.734375 -0.984375q-1.515625 -1.0 -2.25 -2.765625q-0.71875 -1.78125 -0.71875 -3.640625q0 -3.09375 1.859375 -5.15625q1.859375 -2.0625 4.703125 -2.0625zm-4.125 5.96875l8.015625 0q-0.109375 -1.703125 -1.234375 -2.828125q-1.125 -1.125 -2.8125 -1.125q-1.59375 0 -2.71875 1.078125q-1.109375 1.0625 -1.25 2.875zm14.926697 -5.65625l0 5.578125l6.984375 0l0 -5.578125l2.296875 0l0 13.96875l-2.296875 0l0 -6.375l-6.984375 0l0 6.375l-2.28125 0l0 -13.96875l2.28125 0zm14.824921 0l0 11.34375l0.0625 0l6.265625 -11.34375l2.953125 0l0 13.96875l-2.296875 0l0 -11.34375l-0.078125 0l-6.25 11.34375l-2.9375 0l0 -13.96875l2.28125 0zm23.528076 0l0 13.96875l-2.296875 0l0 -5.703125l-3.046875 0l-4.40625 5.703125l-3.046875 0l4.78125 -5.78125q-1.59375 -0.25 -2.515625 -1.328125q-0.921875 -1.09375 -0.921875 -2.71875q0 -1.90625 1.21875 -3.015625q1.21875 -1.125 3.296875 -1.125l6.9375 0zm-9.109375 4.140625q0 1.015625 0.640625 1.5625q0.640625 0.546875 1.8125 0.546875l4.359375 0l0 -4.21875l-4.453125 0q-1.015625 0 -1.6875 0.515625q-0.671875 0.515625 -0.671875 1.59375z" fill-rule="nonzero"></path><path fill="#000000" fill-opacity="0.0" d="m466.1811 81.16798l213.82678 0l0 124.75591l-213.82678 0z" fill-rule="nonzero"></path><path stroke="#000000" stroke-width="2.0" stroke-linejoin="round" stroke-linecap="butt" d="m466.1811 81.16798l213.82678 0l0 124.75591l-213.82678 0z" fill-rule="nonzero"></path><path fill="#000000" d="m494.50067 127.0453l3.828125 10.203125l3.84375 -10.203125l2.21875 0l0 12.140625l-1.53125 0l0 -10.109375l-0.03125 0l-3.796875 10.109375l-1.375 0l-3.796875 -10.109375l-0.03125 0l0 10.109375l-1.53125 0l0 -12.140625l2.203125 0zm16.406921 3.15625q2.0 0 3.125 1.28125q1.140625 1.28125 1.140625 3.3125q0 2.0625 -1.15625 3.328125q-1.15625 1.265625 -3.109375 1.265625q-1.90625 0 -3.09375 -1.25q-1.171875 -1.25 -1.171875 -3.34375q0 -2.078125 1.15625 -3.328125q1.15625 -1.265625 3.109375 -1.265625zm-2.734375 4.59375q0 1.515625 0.765625 2.421875q0.78125 0.890625 1.96875 0.890625q1.1875 0 1.96875 -0.890625q0.78125 -0.90625 0.78125 -2.421875q0 -1.5 -0.78125 -2.40625q-0.765625 -0.921875 -1.984375 -0.921875q-1.15625 0 -1.9375 0.90625q-0.78125 0.890625 -0.78125 2.421875zm16.21576 -4.40625l0 7.515625l1.125 0l0 4.078125l-1.4375 0l0 -2.796875l-6.5625 0l0 2.796875l-1.453125 0l0 -4.078125l0.953125 0q0.578125 -1.3125 0.84375 -2.578125q0.265625 -1.28125 0.265625 -2.6875l0 -2.25l6.265625 0zm-1.453125 7.515625l0 -6.234375l-3.390625 0l0 0.59375q0 2.0 -0.28125 3.265625q-0.265625 1.265625 -0.75 2.375l4.421875 0zm5.5282593 -7.515625l0 7.140625l0.03125 0l3.953125 -7.140625l1.859375 0l0 8.796875l-1.453125 0l0 -7.140625l-0.046875 0l-3.9375 7.140625l-1.84375 0l0 -8.796875l1.4375 0zm14.637085 -3.34375l0 4.09375l0.046875 0q0.4375 -0.46875 0.9375 -0.703125q0.5 -0.234375 1.109375 -0.234375q1.5 0 2.40625 1.203125q0.90625 1.203125 0.90625 3.25q0 2.234375 -0.9375 3.484375q-0.921875 1.25 -2.59375 1.25q-0.5 0 -1.0 -0.203125q-0.484375 -0.21875 -0.828125 -0.65625l-0.046875 0l0 4.03125l-1.453125 0l0 -4.078125l-0.03125 0q-0.40625 0.46875 -0.921875 0.6875q-0.515625 0.21875 -1.078125 0.21875q-1.59375 0 -2.484375 -1.265625q-0.875 -1.28125 -0.875 -3.46875q0 -2.0625 0.921875 -3.25q0.921875 -1.203125 2.484375 -1.203125q0.640625 0 1.140625 0.265625q0.515625 0.25 0.796875 0.671875l0.046875 0l0 -4.09375l1.453125 0zm-5.359375 7.65625q0 1.625 0.5625 2.5625q0.578125 0.921875 1.65625 0.921875q0.46875 0 0.875 -0.1875q0.40625 -0.203125 0.609375 -0.484375q0.203125 -0.296875 0.203125 -0.46875l0 -4.421875q-0.25 -0.59375 -0.71875 -0.90625q-0.46875 -0.3125 -1.078125 -0.3125q-1.0 0 -1.5625 0.84375q-0.546875 0.828125 -0.546875 2.453125zm5.359375 2.328125q0.109375 0.515625 0.59375 0.84375q0.484375 0.3125 1.109375 0.3125q1.078125 0 1.640625 -0.921875q0.5625 -0.9375 0.5625 -2.5625q0 -1.609375 -0.546875 -2.453125q-0.546875 -0.84375 -1.59375 -0.84375q-0.59375 0 -1.0625 0.296875q-0.453125 0.28125 -0.703125 0.90625l0 4.421875zm8.876038 -6.640625l0 7.140625l0.03125 0l3.953125 -7.140625l1.859375 0l0 8.796875l-1.453125 0l0 -7.140625l-0.046875 0l-3.9375 7.140625l-1.84375 0l0 -8.796875l1.4375 0zm9.637085 0l0 7.515625l4.3125 0l0 -7.515625l1.453125 0l0 7.515625l1.140625 0l0 4.078125l-1.4375 0l0 -2.796875l-6.90625 0l0 -8.796875l1.4375 0zm9.840149 0l0 7.140625l0.03125 0l3.953125 -7.140625l1.859375 0l0 8.796875l-1.453125 0l0 -7.140625l-0.046875 0l-3.9375 7.140625l-1.84375 0l0 -8.796875l1.4375 0zm12.52771 -0.1875q1.890625 0 2.96875 1.296875q1.078125 1.28125 1.078125 3.328125q0 2.03125 -1.078125 3.296875q-1.078125 1.265625 -2.921875 1.265625q-0.828125 0 -1.609375 -0.328125q-0.78125 -0.34375 -1.25 -1.046875l-0.03125 0l0 4.546875l-1.4375 0l0 -12.171875l1.4375 0l0 1.203125l0.03125 0q0.34375 -0.6875 1.078125 -1.03125q0.734375 -0.359375 1.734375 -0.359375zm-2.890625 4.578125q0 1.53125 0.734375 2.4375q0.75 0.890625 2.03125 0.890625q1.265625 0 1.953125 -0.890625q0.6875 -0.890625 0.6875 -2.5q0 -1.421875 -0.734375 -2.328125q-0.71875 -0.921875 -2.0 -0.921875q-1.265625 0 -1.96875 0.9375q-0.703125 0.921875 -0.703125 2.375zm12.6154175 -4.578125q2.0 0 3.125 1.28125q1.140625 1.28125 1.140625 3.3125q0 2.0625 -1.15625 3.328125q-1.15625 1.265625 -3.109375 1.265625q-1.90625 0 -3.09375 -1.25q-1.171875 -1.25 -1.171875 -3.34375q0 -2.078125 1.15625 -3.328125q1.15625 -1.265625 3.109375 -1.265625zm-2.734375 4.59375q0 1.515625 0.765625 2.421875q0.78125 0.890625 1.96875 0.890625q1.1875 0 1.96875 -0.890625q0.78125 -0.90625 0.78125 -2.421875q0 -1.5 -0.78125 -2.40625q-0.765625 -0.921875 -1.984375 -0.921875q-1.15625 0 -1.9375 0.90625q-0.78125 0.890625 -0.78125 2.421875zm13.043884 -4.40625q1.390625 0 2.140625 0.53125q0.765625 0.515625 0.765625 1.609375q0 0.71875 -0.34375 1.1875q-0.328125 0.453125 -0.9375 0.734375l0 0.015625q0.859375 0.234375 1.265625 0.78125q0.40625 0.53125 0.40625 1.359375q0 1.15625 -0.78125 1.875q-0.765625 0.703125 -1.828125 0.703125l-4.828125 0l0 -8.796875l4.140625 0zm-0.0625 3.5625q0.734375 0 1.125 -0.28125q0.390625 -0.296875 0.390625 -0.890625q0 -0.59375 -0.40625 -0.859375q-0.40625 -0.28125 -1.15625 -0.28125l-2.625 0l0 2.3125l2.671875 0zm0.46875 3.984375q0.625 0 1.03125 -0.359375q0.40625 -0.375 0.40625 -1.0q0 -0.6875 -0.46875 -1.046875q-0.453125 -0.359375 -1.21875 -0.359375l-2.890625 0l0 2.765625l3.140625 0zm8.353943 -7.734375q1.78125 0 2.53125 0.640625q0.765625 0.625 0.765625 1.703125q0 4.578125 0 5.078125q0 0.484375 0.453125 0.484375q0.09375 0 0.203125 -0.015625q0.125 -0.03125 0.234375 -0.0625l0 1.125q-0.203125 0.109375 -0.46875 0.171875q-0.25 0.0625 -0.5625 0.0625q-0.59375 0 -0.921875 -0.328125q-0.3125 -0.34375 -0.3125 -1.03125q-0.5625 0.6875 -1.34375 1.03125q-0.78125 0.328125 -1.75 0.328125q-1.359375 0 -2.140625 -0.640625q-0.765625 -0.640625 -0.765625 -1.828125q0 -1.171875 0.75 -1.859375q0.765625 -0.703125 3.5625 -1.0625q0.953125 -0.109375 1.28125 -0.34375q0.34375 -0.25 0.34375 -0.734375q0 -0.734375 -0.46875 -1.09375q-0.46875 -0.359375 -1.5 -0.359375q-1.0625 0 -1.609375 0.40625q-0.53125 0.40625 -0.5625 1.265625l-1.453125 0q0.0625 -1.46875 1.03125 -2.203125q0.96875 -0.734375 2.703125 -0.734375zm-2.546875 6.625q0 0.609375 0.4375 0.953125q0.453125 0.328125 1.265625 0.328125q1.21875 0 1.953125 -0.59375q0.734375 -0.609375 0.734375 -1.359375l0 -1.515625q-0.375 0.265625 -0.953125 0.359375q-0.578125 0.09375 -1.546875 0.21875q-0.953125 0.140625 -1.421875 0.53125q-0.46875 0.375 -0.46875 1.078125zm9.697754 -6.4375l0 3.515625l4.390625 0l0 -3.515625l1.453125 0l0 8.796875l-1.453125 0l0 -4.015625l-4.390625 0l0 4.015625l-1.4375 0l0 -8.796875l1.4375 0zm9.637085 0l0 3.515625l4.390625 0l0 -3.515625l1.453125 0l0 8.796875l-1.453125 0l0 -4.015625l-4.390625 0l0 4.015625l-1.4375 0l0 -8.796875l1.4375 0zm11.793335 -0.1875q1.78125 0 2.53125 0.640625q0.765625 0.625 0.765625 1.703125q0 4.578125 0 5.078125q0 0.484375 0.453125 0.484375q0.09375 0 0.203125 -0.015625q0.125 -0.03125 0.234375 -0.0625l0 1.125q-0.203125 0.109375 -0.46875 0.171875q-0.25 0.0625 -0.5625 0.0625q-0.59375 0 -0.921875 -0.328125q-0.3125 -0.34375 -0.3125 -1.03125q-0.5625 0.6875 -1.34375 1.03125q-0.78125 0.328125 -1.75 0.328125q-1.359375 0 -2.140625 -0.640625q-0.765625 -0.640625 -0.765625 -1.828125q0 -1.171875 0.75 -1.859375q0.765625 -0.703125 3.5625 -1.0625q0.953125 -0.109375 1.28125 -0.34375q0.34375 -0.25 0.34375 -0.734375q0 -0.734375 -0.46875 -1.09375q-0.46875 -0.359375 -1.5 -0.359375q-1.0625 0 -1.609375 0.40625q-0.53125 0.40625 -0.5625 1.265625l-1.453125 0q0.0625 -1.46875 1.03125 -2.203125q0.96875 -0.734375 2.703125 -0.734375zm-2.546875 6.625q0 0.609375 0.4375 0.953125q0.453125 0.328125 1.265625 0.328125q1.21875 0 1.953125 -0.59375q0.734375 -0.609375 0.734375 -1.359375l0 -1.515625q-0.375 0.265625 -0.953125 0.359375q-0.578125 0.09375 -1.546875 0.21875q-0.953125 0.140625 -1.421875 0.53125q-0.46875 0.375 -0.46875 1.078125zm15.182068 -6.4375l0 8.796875l-1.453125 0l0 -3.59375l-1.921875 0l-2.765625 3.59375l-1.921875 0l3.015625 -3.640625q-1.015625 -0.15625 -1.59375 -0.828125q-0.578125 -0.6875 -0.578125 -1.71875q0 -1.203125 0.765625 -1.90625q0.765625 -0.703125 2.078125 -0.703125l4.375 0zm-5.734375 2.609375q0 0.640625 0.390625 0.984375q0.40625 0.34375 1.140625 0.34375l2.75 0l0 -2.65625l-2.796875 0q-0.640625 0 -1.0625 0.328125q-0.421875 0.328125 -0.421875 1.0z" fill-rule="nonzero"></path><path fill="#000000" d="m529.06555 151.38905l0 1.28125l-4.578125 0l0 7.515625l-1.4375 0l0 -8.796875l6.015625 0zm5.0759277 -0.1875q2.0 0 3.125 1.28125q1.140625 1.28125 1.140625 3.3125q0 2.0625 -1.15625 3.328125q-1.15625 1.265625 -3.109375 1.265625q-1.90625 0 -3.09375 -1.25q-1.171875 -1.25 -1.171875 -3.34375q0 -2.078125 1.15625 -3.328125q1.15625 -1.265625 3.109375 -1.265625zm-2.734375 4.59375q0 1.515625 0.765625 2.421875q0.78125 0.890625 1.96875 0.890625q1.1875 0 1.96875 -0.890625q0.78125 -0.90625 0.78125 -2.421875q0 -1.5 -0.78125 -2.40625q-0.765625 -0.921875 -1.984375 -0.921875q-1.15625 0 -1.9375 0.90625q-0.78125 0.890625 -0.78125 2.421875zm12.559509 -4.59375q1.609375 0 2.609375 0.765625q1.015625 0.75 1.1875 2.25l-1.484375 0q-0.1875 -0.859375 -0.75 -1.296875q-0.5625 -0.453125 -1.4375 -0.453125q-1.34375 0 -2.046875 0.90625q-0.6875 0.890625 -0.6875 2.53125q0 1.453125 0.6875 2.328125q0.6875 0.875 1.875 0.875q1.0625 0 1.671875 -0.5625q0.609375 -0.5625 0.75 -1.578125l1.46875 0q-0.234375 1.65625 -1.234375 2.546875q-1.0 0.875 -2.640625 0.875q-1.90625 0 -3.015625 -1.203125q-1.09375 -1.203125 -1.09375 -3.28125q0 -2.15625 1.109375 -3.421875q1.109375 -1.28125 3.03125 -1.28125zm12.354004 0.1875l0 1.28125l-3.140625 0l0 7.515625l-1.4375 0l0 -7.515625l-3.15625 0l0 -1.28125l7.734375 0zm4.958496 -0.1875q1.890625 0 2.9375 1.359375q1.046875 1.359375 1.046875 3.484375l0 0.1875l-6.578125 0l0 0.09375q0 1.265625 0.734375 2.03125q0.734375 0.75 2.0 0.75q0.96875 0 1.53125 -0.4375q0.578125 -0.453125 0.75 -1.28125l1.421875 0q-0.28125 1.46875 -1.28125 2.234375q-0.984375 0.765625 -2.46875 0.765625q-1.390625 0 -2.34375 -0.625q-0.953125 -0.625 -1.421875 -1.734375q-0.453125 -1.125 -0.453125 -2.296875q0 -1.9375 1.171875 -3.234375q1.171875 -1.296875 2.953125 -1.296875zm-2.59375 3.75l5.046875 0q-0.0625 -1.078125 -0.78125 -1.78125q-0.703125 -0.703125 -1.765625 -0.703125q-1.0 0 -1.703125 0.671875q-0.703125 0.671875 -0.796875 1.8125zm12.400879 -3.5625q1.390625 0 2.140625 0.53125q0.765625 0.515625 0.765625 1.609375q0 0.71875 -0.34375 1.1875q-0.328125 0.453125 -0.9375 0.734375l0 0.015625q0.859375 0.234375 1.265625 0.78125q0.40625 0.53125 0.40625 1.359375q0 1.15625 -0.78125 1.875q-0.765625 0.703125 -1.828125 0.703125l-4.828125 0l0 -8.796875l4.140625 0zm-0.0625 3.5625q0.734375 0 1.125 -0.28125q0.390625 -0.296875 0.390625 -0.890625q0 -0.59375 -0.40625 -0.859375q-0.40625 -0.28125 -1.15625 -0.28125l-2.625 0l0 2.3125l2.671875 0zm0.46875 3.984375q0.625 0 1.03125 -0.359375q0.40625 -0.375 0.40625 -1.0q0 -0.6875 -0.46875 -1.046875q-0.453125 -0.359375 -1.21875 -0.359375l-2.890625 0l0 2.765625l3.140625 0zm8.353943 -7.734375q1.78125 0 2.53125 0.640625q0.765625 0.625 0.765625 1.703125q0 4.578125 0 5.078125q0 0.484375 0.453125 0.484375q0.09375 0 0.203125 -0.015625q0.125 -0.03125 0.234375 -0.0625l0 1.125q-0.203125 0.109375 -0.46875 0.171875q-0.25 0.0625 -0.5625 0.0625q-0.59375 0 -0.921875 -0.328125q-0.3125 -0.34375 -0.3125 -1.03125q-0.5625 0.6875 -1.34375 1.03125q-0.78125 0.328125 -1.75 0.328125q-1.359375 0 -2.140625 -0.640625q-0.765625 -0.640625 -0.765625 -1.828125q0 -1.171875 0.75 -1.859375q0.765625 -0.703125 3.5625 -1.0625q0.953125 -0.109375 1.28125 -0.34375q0.34375 -0.25 0.34375 -0.734375q0 -0.734375 -0.46875 -1.09375q-0.46875 -0.359375 -1.5 -0.359375q-1.0625 0 -1.609375 0.40625q-0.53125 0.40625 -0.5625 1.265625l-1.453125 0q0.0625 -1.46875 1.03125 -2.203125q0.96875 -0.734375 2.703125 -0.734375zm-2.546875 6.625q0 0.609375 0.4375 0.953125q0.453125 0.328125 1.265625 0.328125q1.21875 0 1.953125 -0.59375q0.734375 -0.609375 0.734375 -1.359375l0 -1.515625q-0.375 0.265625 -0.953125 0.359375q-0.578125 0.09375 -1.546875 0.21875q-0.953125 0.140625 -1.421875 0.53125q-0.46875 0.375 -0.46875 1.078125zm15.182129 -6.4375l0 8.796875l-1.453125 0l0 -3.59375l-1.921875 0l-2.765625 3.59375l-1.921875 0l3.015625 -3.640625q-1.015625 -0.15625 -1.59375 -0.828125q-0.578125 -0.6875 -0.578125 -1.71875q0 -1.203125 0.765625 -1.90625q0.765625 -0.703125 2.078125 -0.703125l4.375 0zm-5.734375 2.609375q0 0.640625 0.390625 0.984375q0.40625 0.34375 1.140625 0.34375l2.75 0l0 -2.65625l-2.796875 0q-0.640625 0 -1.0625 0.328125q-0.421875 0.328125 -0.421875 1.0zm18.25946 -6.234375q1.765625 0 3.078125 0.8125q1.3125 0.8125 2.03125 2.296875q0.71875 1.484375 0.71875 3.25q0 1.765625 -0.71875 3.25q-0.703125 1.46875 -2.03125 2.296875q-1.328125 0.8125 -3.078125 0.8125q-1.75 0 -3.0625 -0.8125q-1.3125 -0.828125 -2.03125 -2.296875q-0.71875 -1.46875 -0.71875 -3.25q0 -2.765625 1.578125 -4.5625q1.59375 -1.796875 4.234375 -1.796875zm-4.1875 6.359375q0 1.34375 0.484375 2.515625q0.5 1.171875 1.453125 1.828125q0.953125 0.640625 2.25 0.640625q1.953125 0 3.078125 -1.40625q1.125 -1.40625 1.125 -3.578125q0 -2.15625 -1.109375 -3.578125q-1.109375 -1.421875 -3.109375 -1.421875q-1.953125 0 -3.0625 1.4375q-1.109375 1.421875 -1.109375 3.5625zm17.368408 -6.359375q2.015625 0 3.375 1.046875q1.359375 1.046875 1.625 2.890625l-1.609375 0q-0.265625 -1.25 -1.171875 -1.90625q-0.890625 -0.671875 -2.234375 -0.671875q-1.921875 0 -3.015625 1.359375q-1.09375 1.359375 -1.09375 3.546875q0 2.328125 1.0625 3.703125q1.078125 1.375 3.0625 1.375q1.484375 0 2.4375 -0.9375q0.953125 -0.9375 1.078125 -2.5625l1.609375 0q-0.265625 2.359375 -1.640625 3.625q-1.375 1.25 -3.609375 1.25q-2.609375 0 -4.109375 -1.71875q-1.5 -1.734375 -1.5 -4.609375q0 -2.828125 1.546875 -4.609375q1.546875 -1.78125 4.1875 -1.78125z" fill-rule="nonzero"></path><path fill="#000000" fill-opacity="0.0" d="m466.18372 10.724409l213.82678 0l0 64.28346l-213.82678 0z" fill-rule="nonzero"></path><path stroke="#000000" stroke-width="2.0" stroke-linejoin="round" stroke-linecap="butt" d="m466.18372 10.724409l213.82678 0l0 64.28346l-213.82678 0z" fill-rule="nonzero"></path><path fill="#000000" d="m511.15024 33.18489l0 19.28125l-2.578125 0l0 -17.109375l-10.140625 0l0 17.109375l-2.5625 0l0 -19.28125l15.28125 0zm10.469025 5.0q3.0 0 4.71875 2.0625q1.71875 2.046875 1.71875 5.28125q0 3.25 -1.71875 5.265625q-1.71875 2.0 -4.65625 2.0q-1.296875 0 -2.546875 -0.53125q-1.25 -0.546875 -1.96875 -1.65625l-0.0625 0l0 7.21875l-2.28125 0l0 -19.328125l2.28125 0l0 1.90625l0.0625 0q0.53125 -1.078125 1.703125 -1.640625q1.171875 -0.578125 2.75 -0.578125zm-4.59375 7.296875q0 2.421875 1.171875 3.859375q1.1875 1.421875 3.234375 1.421875q2.0 0 3.09375 -1.421875q1.09375 -1.421875 1.09375 -3.96875q0 -2.25 -1.15625 -3.703125q-1.15625 -1.46875 -3.1875 -1.46875q-2.015625 0 -3.140625 1.484375q-1.109375 1.46875 -1.109375 3.796875zm15.801147 -6.984375l0 11.34375l0.0625 0l6.265625 -11.34375l2.953125 0l0 13.96875l-2.296875 0l0 -11.34375l-0.078125 0l-6.25 11.34375l-2.9375 0l0 -13.96875l2.28125 0zm23.824951 0l0 13.96875l-2.296875 0l0 -11.9375l-5.046875 0l-0.296875 7.375q-0.078125 2.421875 -1.0625 3.640625q-0.96875 1.21875 -2.671875 1.21875q-0.4375 0 -0.8125 -0.0625q-0.359375 -0.0625 -0.78125 -0.234375l0 -1.890625q0.328125 0.125 0.609375 0.171875q0.28125 0.046875 0.5625 0.046875q0.96875 0 1.40625 -0.71875q0.453125 -0.734375 0.53125 -2.515625l0.296875 -9.0625l9.5625 0zm9.28595 -0.3125q3.171875 0 4.96875 2.046875q1.8125 2.046875 1.8125 5.265625q0 3.265625 -1.84375 5.28125q-1.84375 2.015625 -4.9375 2.015625q-3.03125 0 -4.90625 -1.984375q-1.875 -1.984375 -1.875 -5.3125q0 -3.3125 1.828125 -5.3125q1.84375 -2.0 4.953125 -2.0zm-4.34375 7.3125q0 2.40625 1.21875 3.84375q1.234375 1.421875 3.125 1.421875q1.890625 0 3.125 -1.4375q1.234375 -1.4375 1.234375 -3.828125q0 -2.375 -1.234375 -3.828125q-1.21875 -1.46875 -3.15625 -1.46875q-1.84375 0 -3.078125 1.4375q-1.234375 1.421875 -1.234375 3.859375zm15.572144 -7.0l5.625 6.34375l0.046875 0l0 -6.34375l2.296875 0l0 6.5l0.046875 0l5.734375 -6.5l2.78125 0l-5.328125 5.828125l6.09375 8.140625l-2.828125 0l-4.765625 -6.703125l-1.734375 1.8125l0 4.890625l-2.296875 0l0 -4.84375l-1.796875 -1.859375l-4.734375 6.703125l-2.8125 0l6.125 -8.140625l-5.34375 -5.828125l2.890625 0zm24.567444 -0.3125q3.0 0 4.65625 2.171875q1.671875 2.15625 1.671875 5.546875l0 0.28125l-10.453125 0l0 0.15625q0 2.0 1.15625 3.21875q1.15625 1.203125 3.1875 1.203125q1.53125 0 2.4375 -0.703125q0.90625 -0.71875 1.171875 -2.03125l2.265625 0q-0.453125 2.328125 -2.03125 3.546875q-1.5625 1.21875 -3.921875 1.21875q-2.203125 0 -3.734375 -0.984375q-1.515625 -1.0 -2.25 -2.765625q-0.71875 -1.78125 -0.71875 -3.640625q0 -3.09375 1.859375 -5.15625q1.859375 -2.0625 4.703125 -2.0625zm-4.125 5.96875l8.015625 0q-0.109375 -1.703125 -1.234375 -2.828125q-1.125 -1.125 -2.8125 -1.125q-1.59375 0 -2.71875 1.078125q-1.109375 1.0625 -1.25 2.875zm14.926697 -5.65625l0 5.578125l6.984375 0l0 -5.578125l2.296875 0l0 13.96875l-2.296875 0l0 -6.375l-6.984375 0l0 6.375l-2.28125 0l0 -13.96875l2.28125 0zm14.824951 0l0 11.34375l0.0625 0l6.265625 -11.34375l2.953125 0l0 13.96875l-2.296875 0l0 -11.34375l-0.078125 0l-6.25 11.34375l-2.9375 0l0 -13.96875l2.28125 0zm23.528015 0l0 13.96875l-2.296875 0l0 -5.703125l-3.046875 0l-4.40625 5.703125l-3.046875 0l4.78125 -5.78125q-1.59375 -0.25 -2.515625 -1.328125q-0.921875 -1.09375 -0.921875 -2.71875q0 -1.90625 1.21875 -3.015625q1.21875 -1.125 3.296875 -1.125l6.9375 0zm-9.109375 4.140625q0 1.015625 0.640625 1.5625q0.640625 0.546875 1.8125 0.546875l4.359375 0l0 -4.21875l-4.453125 0q-1.015625 0 -1.6875 0.515625q-0.671875 0.515625 -0.671875 1.59375z" fill-rule="nonzero"></path></g></svg>

