<?xml version="1.0" standalone="yes"?>

<svg version="1.1" viewBox="0.0 0.0 687.0 487.0" fill="none" stroke="none" stroke-linecap="square" stroke-miterlimit="10" xmlns="http://www.w3.org/2000/svg" xmlns:xlink="http://www.w3.org/1999/xlink"><clipPath id="p.0"><path d="m0 0l687.0 0l0 487.0l-687.0 0l0 -487.0z" clip-rule="nonzero"></path></clipPath><g clip-path="url(#p.0)"><path fill="#000000" fill-opacity="0.0" d="m0 0l687.0 0l0 487.0l-687.0 0z" fill-rule="nonzero"></path><path fill="#000000" fill-opacity="0.0" d="m8.0 373.41934l672.0 0l0 106.5827l-672.0 0z" fill-rule="nonzero"></path><path stroke="#000000" stroke-width="2.0" stroke-linejoin="round" stroke-linecap="butt" d="m8.0 373.41934l672.0 0l0 106.5827l-672.0 0z" fill-rule="nonzero"></path><path fill="#000000" d="m248.67773 412.5482l11.15625 28.5625l-4.203125 0l-3.109375 -8.59375l-12.078125 0l-3.203125 8.59375l-3.921875 0l11.15625 -28.5625l4.203125 0zm-2.203125 3.4375l-4.828125 13.328125l9.671875 0l-4.75 -13.328125l-0.09375 0zm32.73047 4.4375l0 20.6875l-3.390625 0l0 -17.671875l-10.34375 0l0 17.671875l-3.390625 0l0 -20.6875l17.125 0zm22.246094 0l0 20.6875l-3.390625 0l0 -17.671875l-10.34375 0l0 17.671875l-3.390625 0l0 -20.6875l17.125 0zm13.574219 -0.46875q4.21875 0 5.984375 1.515625q1.765625 1.5 1.765625 4.015625q0 10.765625 0 11.9375q0 1.171875 1.078125 1.171875q0.234375 0 0.5 -0.0625q0.28125 -0.0625 0.53125 -0.140625l0 2.640625q-0.46875 0.28125 -1.078125 0.421875q-0.609375 0.140625 -1.34375 0.140625q-1.40625 0 -2.15625 -0.78125q-0.734375 -0.796875 -0.734375 -2.421875q-1.34375 1.609375 -3.1875 2.40625q-1.828125 0.796875 -4.09375 0.796875q-3.203125 0 -5.015625 -1.515625q-1.8125 -1.515625 -1.8125 -4.28125q0 -2.796875 1.765625 -4.421875q1.78125 -1.640625 8.359375 -2.453125q2.234375 -0.296875 3.015625 -0.859375q0.796875 -0.5625 0.796875 -1.703125q0 -1.71875 -1.109375 -2.5625q-1.09375 -0.859375 -3.5 -0.859375q-2.515625 0 -3.78125 0.96875q-1.25 0.953125 -1.359375 2.96875l-3.390625 0q0.15625 -3.4375 2.421875 -5.171875q2.265625 -1.75 6.34375 -1.75zm-5.96875 15.59375q0 1.4375 1.046875 2.25q1.0625 0.796875 2.953125 0.796875q2.875 0 4.59375 -1.421875q1.71875 -1.4375 1.71875 -3.1875l0 -3.5625q-0.859375 0.609375 -2.234375 0.828125q-1.359375 0.203125 -3.625 0.515625q-2.265625 0.34375 -3.359375 1.25q-1.09375 0.890625 -1.09375 2.53125zm29.1875 -15.59375q4.4375 0 6.984375 3.046875q2.546875 3.046875 2.546875 7.828125q0 4.8125 -2.546875 7.796875q-2.53125 2.96875 -6.875 2.96875q-1.9375 0 -3.78125 -0.796875q-1.84375 -0.796875 -2.921875 -2.4375l-0.078125 0l0 10.6875l-3.40625 0l0 -28.625l3.40625 0l0 2.8125l0.078125 0q0.796875 -1.59375 2.515625 -2.4375q1.734375 -0.84375 4.078125 -0.84375zm-6.796875 10.796875q0 3.59375 1.734375 5.71875q1.75 2.125 4.796875 2.125q2.953125 0 4.5625 -2.109375q1.625 -2.109375 1.625 -5.890625q0 -3.328125 -1.71875 -5.484375q-1.703125 -2.171875 -4.703125 -2.171875q-2.984375 0 -4.640625 2.1875q-1.65625 2.1875 -1.65625 5.625zm28.773438 -10.796875q4.21875 0 5.984375 1.515625q1.765625 1.5 1.765625 4.015625q0 10.765625 0 11.9375q0 1.171875 1.078125 1.171875q0.234375 0 0.5 -0.0625q0.28125 -0.0625 0.53125 -0.140625l0 2.640625q-0.46875 0.28125 -1.078125 0.421875q-0.609375 0.140625 -1.34375 0.140625q-1.40625 0 -2.15625 -0.78125q-0.734375 -0.796875 -0.734375 -2.421875q-1.34375 1.609375 -3.1875 2.40625q-1.828125 0.796875 -4.09375 0.796875q-3.203125 0 -5.015625 -1.515625q-1.8125 -1.515625 -1.8125 -4.28125q0 -2.796875 1.765625 -4.421875q1.78125 -1.640625 8.359375 -2.453125q2.234375 -0.296875 3.015625 -0.859375q0.796875 -0.5625 0.796875 -1.703125q0 -1.71875 -1.109375 -2.5625q-1.09375 -0.859375 -3.5 -0.859375q-2.515625 0 -3.78125 0.96875q-1.25 0.953125 -1.359375 2.96875l-3.390625 0q0.15625 -3.4375 2.421875 -5.171875q2.265625 -1.75 6.34375 -1.75zm-5.96875 15.59375q0 1.4375 1.046875 2.25q1.0625 0.796875 2.953125 0.796875q2.875 0 4.59375 -1.421875q1.71875 -1.4375 1.71875 -3.1875l0 -3.5625q-0.859375 0.609375 -2.234375 0.828125q-1.359375 0.203125 -3.625 0.515625q-2.265625 0.34375 -3.359375 1.25q-1.09375 0.890625 -1.09375 2.53125zm34.796875 -15.125l0 3.015625l-7.40625 0l0 17.671875l-3.390625 0l0 -17.671875l-7.40625 0l0 -3.015625l18.203125 0zm4.3125 0l6.046875 16.921875l0.078125 0l5.796875 -16.921875l3.609375 0l-8.78125 22.890625q-1.390625 3.578125 -2.671875 4.828125q-1.28125 1.25 -3.546875 1.25q-0.625 0 -1.21875 -0.078125q-0.578125 -0.078125 -1.140625 -0.265625l0 -3.125q0.484375 0.15625 0.984375 0.3125q0.5 0.15625 1.0 0.15625q2.078125 0 2.890625 -2.078125q0.828125 -2.0625 1.3125 -3.328125l-8.203125 -20.5625l3.84375 0zm28.59375 -0.46875q4.4375 0 6.984375 3.046875q2.546875 3.046875 2.546875 7.828125q0 4.8125 -2.546875 7.796875q-2.53125 2.96875 -6.875 2.96875q-1.9375 0 -3.78125 -0.796875q-1.84375 -0.796875 -2.921875 -2.4375l-0.078125 0l0 10.6875l-3.40625 0l0 -28.625l3.40625 0l0 2.8125l0.078125 0q0.796875 -1.59375 2.515625 -2.4375q1.734375 -0.84375 4.078125 -0.84375zm-6.796875 10.796875q0 3.59375 1.734375 5.71875q1.75 2.125 4.796875 2.125q2.953125 0 4.5625 -2.109375q1.625 -2.109375 1.625 -5.890625q0 -3.328125 -1.71875 -5.484375q-1.703125 -2.171875 -4.703125 -2.171875q-2.984375 0 -4.640625 2.1875q-1.65625 2.1875 -1.65625 5.625zm28.773438 -10.796875q4.21875 0 5.984375 1.515625q1.765625 1.5 1.765625 4.015625q0 10.765625 0 11.9375q0 1.171875 1.078125 1.171875q0.234375 0 0.5 -0.0625q0.28125 -0.0625 0.53125 -0.140625l0 2.640625q-0.46875 0.28125 -1.078125 0.421875q-0.609375 0.140625 -1.34375 0.140625q-1.40625 0 -2.15625 -0.78125q-0.734375 -0.796875 -0.734375 -2.421875q-1.34375 1.609375 -3.1875 2.40625q-1.828125 0.796875 -4.09375 0.796875q-3.203125 0 -5.015625 -1.515625q-1.8125 -1.515625 -1.8125 -4.28125q0 -2.796875 1.765625 -4.421875q1.78125 -1.640625 8.359375 -2.453125q2.234375 -0.296875 3.015625 -0.859375q0.796875 -0.5625 0.796875 -1.703125q0 -1.71875 -1.109375 -2.5625q-1.09375 -0.859375 -3.5 -0.859375q-2.515625 0 -3.78125 0.96875q-1.25 0.953125 -1.359375 2.96875l-3.390625 0q0.15625 -3.4375 2.421875 -5.171875q2.265625 -1.75 6.34375 -1.75zm-5.96875 15.59375q0 1.4375 1.046875 2.25q1.0625 0.796875 2.953125 0.796875q2.875 0 4.59375 -1.421875q1.71875 -1.4375 1.71875 -3.1875l0 -3.5625q-0.859375 0.609375 -2.234375 0.828125q-1.359375 0.203125 -3.625 0.515625q-2.265625 0.34375 -3.359375 1.25q-1.09375 0.890625 -1.09375 2.53125z" fill-rule="nonzero"></path><path fill="#000000" fill-opacity="0.0" d="m8.0 236.3871l672.0 0l0 106.58269l-672.0 0z" fill-rule="nonzero"></path><path stroke="#000000" stroke-width="2.0" stroke-linejoin="round" stroke-linecap="butt" d="m8.0 236.3871l672.0 0l0 106.58269l-672.0 0z" fill-rule="nonzero"></path><path fill="#000000" d="m165.60156 274.84406q4.75 0 7.9375 2.46875q3.203125 2.453125 3.828125 6.796875l-3.796875 0q-0.625 -2.921875 -2.75 -4.484375q-2.109375 -1.578125 -5.25 -1.578125q-4.53125 0 -7.109375 3.203125q-2.5625 3.203125 -2.5625 8.359375q0 5.46875 2.515625 8.71875q2.515625 3.234375 7.1875 3.234375q3.5 0 5.734375 -2.21875q2.234375 -2.21875 2.515625 -6.03125l3.796875 0q-0.625 5.546875 -3.859375 8.5q-3.21875 2.953125 -8.5 2.953125q-6.125 0 -9.671875 -4.0625q-3.53125 -4.0625 -3.53125 -10.828125q0 -6.65625 3.65625 -10.84375q3.65625 -4.1875 9.859375 -4.1875zm32.933594 8.546875l0 20.6875l-3.40625 0l0 -17.671875l-7.46875 0l-0.4375 10.90625q-0.109375 3.59375 -1.5625 5.40625q-1.4375 1.8125 -3.984375 1.8125q-0.640625 0 -1.1875 -0.109375q-0.53125 -0.09375 -1.15625 -0.34375l0 -2.796875q0.46875 0.171875 0.890625 0.25q0.421875 0.0625 0.828125 0.0625q1.453125 0 2.09375 -1.0625q0.65625 -1.078125 0.78125 -3.71875l0.453125 -13.421875l14.15625 0zm14.0390625 -0.46875q4.6875 0 7.359375 3.03125q2.6875 3.03125 2.6875 7.8125q0 4.828125 -2.734375 7.8125q-2.734375 2.984375 -7.3125 2.984375q-4.484375 0 -7.265625 -2.9375q-2.765625 -2.9375 -2.765625 -7.859375q0 -4.921875 2.703125 -7.875q2.71875 -2.96875 7.328125 -2.96875zm-6.4375 10.84375q0 3.546875 1.8125 5.671875q1.8125 2.125 4.625 2.125q2.796875 0 4.625 -2.125q1.828125 -2.140625 1.828125 -5.671875q0 -3.53125 -1.828125 -5.6875q-1.8125 -2.171875 -4.65625 -2.171875q-2.734375 0 -4.578125 2.125q-1.828125 2.125 -1.828125 5.734375zm23.875 -10.375l0 16.796875l0.078125 0l9.28125 -16.796875l4.375 0l0 20.6875l-3.390625 0l0 -16.796875l-0.109375 0l-9.265625 16.796875l-4.359375 0l0 -20.6875l3.390625 0zm-0.75 -8.46875l2.0 0q0.484375 1.671875 1.609375 2.5q1.125 0.8125 2.875 0.8125q1.453125 0 2.359375 -0.734375q0.90625 -0.734375 1.59375 -2.578125l2.046875 0q-0.515625 2.671875 -2.171875 4.09375q-1.640625 1.421875 -4.15625 1.421875q-2.65625 0 -4.203125 -1.359375q-1.546875 -1.375 -1.953125 -4.15625zm40.484375 8.46875q3.28125 0 5.046875 1.234375q1.78125 1.234375 1.78125 3.8125q0 1.65625 -0.796875 2.75q-0.78125 1.078125 -2.203125 1.734375l0 0.046875q2.015625 0.546875 2.96875 1.828125q0.953125 1.265625 0.953125 3.203125q0 2.71875 -1.8125 4.40625q-1.8125 1.671875 -4.3125 1.671875l-11.390625 0l0 -20.6875l9.765625 0zm-0.15625 8.359375q1.734375 0 2.640625 -0.671875q0.90625 -0.671875 0.90625 -2.078125q0 -1.390625 -0.953125 -2.03125q-0.953125 -0.640625 -2.6875 -0.640625l-6.203125 0l0 5.421875l6.296875 0zm1.109375 9.390625q1.46875 0 2.40625 -0.859375q0.953125 -0.875 0.953125 -2.359375q0 -1.59375 -1.09375 -2.4375q-1.078125 -0.84375 -2.84375 -0.84375l-6.828125 0l0 6.5l7.40625 0zm14.15625 -17.75l0 16.796875l0.078125 0l9.28125 -16.796875l4.375 0l0 20.6875l-3.390625 0l0 -16.796875l-0.109375 0l-9.265625 16.796875l-4.359375 0l0 -20.6875l3.390625 0zm29.042969 -0.46875q4.4375 0 6.984375 3.046875q2.546875 3.046875 2.546875 7.828125q0 4.8125 -2.546875 7.796875q-2.53125 2.96875 -6.875 2.96875q-1.9375 0 -3.78125 -0.796875q-1.84375 -0.796875 -2.921875 -2.4375l-0.078125 0l0 10.6875l-3.40625 0l0 -28.625l3.40625 0l0 2.8125l0.078125 0q0.796875 -1.59375 2.515625 -2.4375q1.734375 -0.84375 4.078125 -0.84375zm-6.796875 10.796875q0 3.59375 1.734375 5.71875q1.75 2.125 4.796875 2.125q2.953125 0 4.5625 -2.109375q1.625 -2.109375 1.625 -5.890625q0 -3.328125 -1.71875 -5.484375q-1.703125 -2.171875 -4.703125 -2.171875q-2.984375 0 -4.640625 2.1875q-1.65625 2.1875 -1.65625 5.625zm36.117188 -10.328125l0 3.015625l-7.40625 0l0 17.671875l-3.390625 0l0 -17.671875l-7.40625 0l0 -3.015625l18.203125 0zm4.3125 0l6.046875 16.921875l0.078125 0l5.796875 -16.921875l3.609375 0l-8.78125 22.890625q-1.390625 3.578125 -2.671875 4.828125q-1.28125 1.25 -3.546875 1.25q-0.625 0 -1.21875 -0.078125q-0.578125 -0.078125 -1.140625 -0.265625l0 -3.125q0.484375 0.15625 0.984375 0.3125q0.5 0.15625 1.0 0.15625q2.078125 0 2.890625 -2.078125q0.828125 -2.0625 1.3125 -3.328125l-8.203125 -20.5625l3.84375 0zm26.859375 -0.46875q4.21875 0 5.984375 1.515625q1.765625 1.5 1.765625 4.015625q0 10.765625 0 11.9375q0 1.171875 1.078125 1.171875q0.234375 0 0.5 -0.0625q0.28125 -0.0625 0.53125 -0.140625l0 2.640625q-0.46875 0.28125 -1.078125 0.421875q-0.609375 0.140625 -1.34375 0.140625q-1.40625 0 -2.15625 -0.78125q-0.734375 -0.796875 -0.734375 -2.421875q-1.34375 1.609375 -3.1875 2.40625q-1.828125 0.796875 -4.09375 0.796875q-3.203125 0 -5.015625 -1.515625q-1.8125 -1.515625 -1.8125 -4.28125q0 -2.796875 1.765625 -4.421875q1.78125 -1.640625 8.359375 -2.453125q2.234375 -0.296875 3.015625 -0.859375q0.796875 -0.5625 0.796875 -1.703125q0 -1.71875 -1.109375 -2.5625q-1.09375 -0.859375 -3.5 -0.859375q-2.515625 0 -3.78125 0.96875q-1.25 0.953125 -1.359375 2.96875l-3.390625 0q0.15625 -3.4375 2.421875 -5.171875q2.265625 -1.75 6.34375 -1.75zm-5.96875 15.59375q0 1.4375 1.046875 2.25q1.0625 0.796875 2.953125 0.796875q2.875 0 4.59375 -1.421875q1.71875 -1.4375 1.71875 -3.1875l0 -3.5625q-0.859375 0.609375 -2.234375 0.828125q-1.359375 0.203125 -3.625 0.515625q-2.265625 0.34375 -3.359375 1.25q-1.09375 0.890625 -1.09375 2.53125zm35.71875 -15.125l0 20.6875l-3.40625 0l0 -17.671875l-7.46875 0l-0.4375 10.90625q-0.109375 3.59375 -1.5625 5.40625q-1.4375 1.8125 -3.984375 1.8125q-0.640625 0 -1.1875 -0.109375q-0.53125 -0.09375 -1.15625 -0.34375l0 -2.796875q0.46875 0.171875 0.890625 0.25q0.421875 0.0625 0.828125 0.0625q1.453125 0 2.09375 -1.0625q0.65625 -1.078125 0.78125 -3.71875l0.453125 -13.421875l14.15625 0zm8.5078125 0l0 16.796875l0.078125 0l9.28125 -16.796875l4.375 0l0 20.6875l-3.390625 0l0 -16.796875l-0.109375 0l-9.265625 16.796875l-4.359375 0l0 -20.6875l3.390625 0zm26.417969 -0.46875q3.5625 0 5.625 1.5625q2.078125 1.5625 2.078125 4.28125q0 1.484375 -0.828125 2.515625q-0.8125 1.015625 -2.5625 1.640625l0 0.078125q1.96875 0.53125 3.015625 1.8125q1.0625 1.28125 1.0625 3.1875q0 2.96875 -2.4375 4.765625q-2.421875 1.796875 -6.3125 1.796875q-4.15625 0 -6.375 -1.78125q-2.203125 -1.796875 -2.390625 -5.234375l3.4375 0q0.171875 2.09375 1.53125 3.171875q1.375 1.078125 3.796875 1.078125q2.421875 0 3.828125 -1.015625q1.40625 -1.015625 1.40625 -2.703125q0 -1.640625 -1.109375 -2.5q-1.109375 -0.859375 -3.125 -0.859375l-3.015625 0l0 -2.921875l2.5 0q2.0 0 3.0625 -0.703125q1.078125 -0.703125 1.078125 -2.171875q0 -1.46875 -1.125 -2.359375q-1.109375 -0.890625 -3.1875 -0.890625q-2.296875 0 -3.625 0.9375q-1.328125 0.9375 -1.5625 2.78125l-3.4375 0q0.265625 -3.125 2.53125 -4.796875q2.28125 -1.671875 6.140625 -1.671875zm20.890625 0q4.21875 0 5.984375 1.515625q1.765625 1.5 1.765625 4.015625q0 10.765625 0 11.9375q0 1.171875 1.078125 1.171875q0.234375 0 0.5 -0.0625q0.28125 -0.0625 0.53125 -0.140625l0 2.640625q-0.46875 0.28125 -1.078125 0.421875q-0.609375 0.140625 -1.34375 0.140625q-1.40625 0 -2.15625 -0.78125q-0.734375 -0.796875 -0.734375 -2.421875q-1.34375 1.609375 -3.1875 2.40625q-1.828125 0.796875 -4.09375 0.796875q-3.203125 0 -5.015625 -1.515625q-1.8125 -1.515625 -1.8125 -4.28125q0 -2.796875 1.765625 -4.421875q1.78125 -1.640625 8.359375 -2.453125q2.234375 -0.296875 3.015625 -0.859375q0.796875 -0.5625 0.796875 -1.703125q0 -1.71875 -1.109375 -2.5625q-1.09375 -0.859375 -3.5 -0.859375q-2.515625 0 -3.78125 0.96875q-1.25 0.953125 -1.359375 2.96875l-3.390625 0q0.15625 -3.4375 2.421875 -5.171875q2.265625 -1.75 6.34375 -1.75zm-5.96875 15.59375q0 1.4375 1.046875 2.25q1.0625 0.796875 2.953125 0.796875q2.875 0 4.59375 -1.421875q1.71875 -1.4375 1.71875 -3.1875l0 -3.5625q-0.859375 0.609375 -2.234375 0.828125q-1.359375 0.203125 -3.625 0.515625q-2.265625 0.34375 -3.359375 1.25q-1.09375 0.890625 -1.09375 2.53125zm22.390625 -15.125l0 17.671875l10.15625 0l0 -17.671875l3.40625 0l0 17.671875l2.6875 0l0 9.578125l-3.390625 0l0 -6.5625l-16.25 0l0 -20.6875l3.390625 0zm22.714844 0l0 16.796875l0.078125 0l9.28125 -16.796875l4.375 0l0 20.6875l-3.390625 0l0 -16.796875l-0.109375 0l-9.265625 16.796875l-4.359375 0l0 -20.6875l3.390625 0zm22.246094 0l0 16.796875l0.078125 0l9.28125 -16.796875l4.375 0l0 20.6875l-3.390625 0l0 -16.796875l-0.109375 0l-9.265625 16.796875l-4.359375 0l0 -20.6875l3.390625 0z" fill-rule="nonzero"></path><path fill="#000000" fill-opacity="0.0" d="m8.0 81.14173l213.82677 0l0 124.75591l-213.82677 0z" fill-rule="nonzero"></path><path stroke="#000000" stroke-width="2.0" stroke-linejoin="round" stroke-linecap="butt" d="m8.0 81.14173l213.82677 0l0 124.75591l-213.82677 0z" fill-rule="nonzero"></path><path fill="#000000" d="m41.64971 120.01281q2.484375 0 4.328125 1.15625q1.859375 1.15625 2.859375 3.25q1.015625 2.09375 1.015625 4.5781326q0 2.5 -1.0 4.578125q-1.0 2.078125 -2.875 3.234375q-1.859375 1.15625 -4.328125 1.15625q-2.484375 0 -4.34375 -1.140625q-1.84375 -1.15625 -2.859375 -3.234375q-1.0 -2.078125 -1.0 -4.59375q0 -3.8906326 2.21875 -6.4375076q2.234375 -2.546875 5.984375 -2.546875zm-5.9375 8.984383q0 1.90625 0.6875 3.5625q0.703125 1.640625 2.0625 2.5625q1.359375 0.921875 3.1875 0.921875q2.75 0 4.328125 -1.984375q1.59375 -1.984375 1.59375 -5.0625q0 -3.0468826 -1.578125 -5.0468826q-1.5625 -2.015625 -4.375 -2.015625q-2.75 0 -4.328125 2.015625q-1.578125 2.015625 -1.578125 5.0468826zm26.859375 -3.8437576l0 12.406258l-2.03125 0l0 -10.609383l-6.203125 0l0 10.609383l-2.046875 0l0 -12.406258l10.28125 0zm8.222656 -0.28125q2.671875 0 4.140625 1.921875q1.484375 1.9218826 1.484375 4.9218826l0 0.25l-9.28125 0l0 0.15625q0 1.765625 1.03125 2.84375q1.03125 1.078125 2.828125 1.078125q1.359375 0 2.15625 -0.625q0.8125 -0.640625 1.0625 -1.796875l2.015625 0q-0.421875 2.0625 -1.8125 3.15625q-1.390625 1.078125 -3.484375 1.078125q-1.96875 0 -3.328125 -0.890625q-1.34375 -0.890625 -1.984375 -2.453125q-0.640625 -1.578125 -0.640625 -3.234375q0 -2.75 1.640625 -4.5781326q1.65625 -1.828125 4.171875 -1.828125zm-3.65625 5.2968826l7.125 0q-0.09375 -1.515625 -1.109375 -2.5156326q-1.0 -1.0 -2.5 -1.0q-1.40625 0 -2.40625 0.953125q-0.984375 0.9531326 -1.109375 2.5625076zm17.515625 -5.2968826q2.65625 0 4.1875 1.828125q1.53125 1.8281326 1.53125 4.6875076q0 2.890625 -1.53125 4.6875q-1.515625 1.78125 -4.125 1.78125q-1.171875 0 -2.28125 -0.484375q-1.09375 -0.484375 -1.75 -1.46875l-0.046875 0l0 6.421875l-2.03125 0l0 -17.171883l2.03125 0l0 1.6875l0.046875 0q0.484375 -0.96875 1.515625 -1.46875q1.046875 -0.5 2.453125 -0.5zm-4.078125 6.4687576q0 2.15625 1.03125 3.4375q1.046875 1.265625 2.875 1.265625q1.78125 0 2.75 -1.265625q0.96875 -1.265625 0.96875 -3.53125q0 -2.0 -1.03125 -3.2968826q-1.015625 -1.296875 -2.828125 -1.296875q-1.78125 0 -2.78125 1.3125q-0.984375 1.3125076 -0.984375 3.3750076zm17.257812 -6.4687576q2.53125 0 3.59375 0.90625q1.0625 0.890625 1.0625 2.4062576q0 6.453125 0 7.15625q0 0.703125 0.640625 0.703125q0.140625 0 0.296875 -0.03125q0.171875 -0.03125 0.328125 -0.078125l0 1.578125q-0.28125 0.171875 -0.65625 0.25q-0.359375 0.09375 -0.796875 0.09375q-0.84375 0 -1.296875 -0.46875q-0.4375 -0.484375 -0.4375 -1.453125q-0.8125 0.953125 -1.921875 1.4375q-1.09375 0.484375 -2.453125 0.484375q-1.921875 0 -3.015625 -0.90625q-1.078125 -0.921875 -1.078125 -2.578125q0 -1.671875 1.0625 -2.65625q1.0625 -0.984375 5.015625 -1.46875q1.328125 -0.171875 1.796875 -0.515625q0.484375 -0.34375 0.484375 -1.015625q0 -1.0312576 -0.671875 -1.5468826q-0.65625 -0.515625 -2.09375 -0.515625q-1.515625 0 -2.265625 0.578125q-0.75 0.578125 -0.8125 1.7812576l-2.046875 0q0.09375 -2.0625076 1.453125 -3.0937576q1.359375 -1.046875 3.8125 -1.046875zm-3.578125 9.343758q0 0.875 0.625 1.359375q0.640625 0.46875 1.765625 0.46875q1.734375 0 2.765625 -0.84375q1.03125 -0.859375 1.03125 -1.921875l0 -2.125q-0.515625 0.359375 -1.34375 0.484375q-0.8125 0.125 -2.171875 0.3125q-1.359375 0.203125 -2.015625 0.75q-0.65625 0.53125 -0.65625 1.515625zm13.4375 -9.062508l0 10.593758l6.09375 0l0 -10.593758l2.03125 0l0 10.593758l1.625 0l0 5.75l-2.046875 0l0 -3.9375l-9.75 0l0 -12.406258l2.046875 0zm13.628906 0l0 10.078133l0.046875 0l5.5625 -10.078133l2.6250076 0l0 12.406258l-2.0312576 0l0 -10.078133l-0.0625 0l-5.5625 10.078133l-2.625 0l0 -12.406258l2.046875 0zm16.660164 -0.28125q2.8125 0 4.421875 1.8125q1.609375 1.8125076 1.609375 4.6875076q0 2.890625 -1.640625 4.6875q-1.640625 1.796875 -4.390625 1.796875q-2.6875 0 -4.359375 -1.765625q-1.65625 -1.765625 -1.65625 -4.71875q0 -2.953125 1.625 -4.7187576q1.625 -1.78125 4.390625 -1.78125zm-3.859375 6.5000076q0 2.125 1.078125 3.40625q1.09375 1.265625 2.78125 1.265625q1.671875 0 2.765625 -1.265625q1.109375 -1.28125 1.109375 -3.40625q0 -2.125 -1.09375 -3.4218826q-1.09375 -1.296875 -2.796875 -1.296875q-1.640625 0 -2.75 1.28125q-1.09375 1.2656326 -1.09375 3.4375076zm14.328125 -6.2187576l0 4.9375076l6.203125 0l0 -4.9375076l2.03125 0l0 12.406258l-2.03125 0l0 -5.65625l-6.203125 0l0 5.65625l-2.046875 0l0 -12.406258l2.046875 0zm13.347656 0l0 4.9375076l6.203125 0l0 -4.9375076l2.03125 0l0 12.406258l-2.03125 0l0 -5.65625l-6.203125 0l0 5.65625l-2.046875 0l0 -12.406258l2.046875 0zm16.378906 -0.28125q2.53125 0 3.59375 0.90625q1.0625 0.890625 1.0625 2.4062576q0 6.453125 0 7.15625q0 0.703125 0.640625 0.703125q0.140625 0 0.296875 -0.03125q0.171875 -0.03125 0.328125 -0.078125l0 1.578125q-0.28125 0.171875 -0.65625 0.25q-0.359375 0.09375 -0.796875 0.09375q-0.84375 0 -1.296875 -0.46875q-0.4375 -0.484375 -0.4375 -1.453125q-0.8125 0.953125 -1.921875 1.4375q-1.09375 0.484375 -2.453125 0.484375q-1.921875 0 -3.015625 -0.90625q-1.078125 -0.921875 -1.078125 -2.578125q0 -1.671875 1.0625 -2.65625q1.0625 -0.984375 5.015625 -1.46875q1.328125 -0.171875 1.796875 -0.515625q0.484375 -0.34375 0.484375 -1.015625q0 -1.0312576 -0.671875 -1.5468826q-0.65625 -0.515625 -2.09375 -0.515625q-1.515625 0 -2.265625 0.578125q-0.75 0.578125 -0.8125 1.7812576l-2.046875 0q0.09375 -2.0625076 1.453125 -3.0937576q1.359375 -1.046875 3.8125 -1.046875zm-3.578125 9.343758q0 0.875 0.625 1.359375q0.640625 0.46875 1.765625 0.46875q1.734375 0 2.765625 -0.84375q1.03125 -0.859375 1.03125 -1.921875l0 -2.125q-0.515625 0.359375 -1.34375 0.484375q-0.8125 0.125 -2.171875 0.3125q-1.359375 0.203125 -2.015625 0.75q-0.65625 0.53125 -0.65625 1.515625zm21.171875 -9.062508l0 12.406258l-2.046875 0l0 -5.0625l-2.71875 0l-3.90625 5.0625l-2.71875 0l4.265625 -5.140625q-1.421875 -0.234375 -2.25 -1.1875q-0.8125 -0.96875 -0.8125 -2.40625q0 -1.7031326 1.078125 -2.6875076q1.09375 -0.984375 2.9375 -0.984375l6.171875 0zm-8.09375 3.6718826q0 0.90625 0.5625 1.390625q0.5625 0.46875 1.609375 0.46875l3.875 0l0 -3.7343826l-3.953125 0q-0.90625 0 -1.5 0.46875q-0.59375 0.453125 -0.59375 1.4062576z" fill-rule="nonzero"></path><path fill="#000000" d="m75.36651 153.8722q2.265625 0 3.6875 1.078125q1.421875 1.078125 1.671875 3.1875l-2.109375 0q-0.25 -1.21875 -1.0625 -1.84375q-0.796875 -0.640625 -2.015625 -0.640625q-1.890625 0 -2.875 1.28125q-0.984375 1.265625 -0.984375 3.578125q0 2.0625 0.96875 3.296875q0.96875 1.234375 2.640625 1.234375q1.5 0 2.359375 -0.796875q0.859375 -0.8125 1.0625 -2.21875l2.078125 0q-0.34375 2.3125 -1.75 3.578125q-1.40625 1.25 -3.71875 1.25q-2.703125 0 -4.25 -1.703125q-1.546875 -1.71875 -1.546875 -4.640625q0 -3.046875 1.5625 -4.84375q1.5625 -1.796875 4.28125 -1.796875zm9.75 0.28125l0 10.078125l0.046875 0l5.5625 -10.078125l2.625 0l0 12.40625l-2.03125 0l0 -10.078125l-0.0625 0l-5.5625 10.078125l-2.625 0l0 -12.40625l2.046875 0zm16.488281 -0.28125q2.265625 0 3.6875 1.078125q1.421875 1.078125 1.671875 3.1875l-2.109375 0q-0.25 -1.21875 -1.0625 -1.84375q-0.796875 -0.640625 -2.015625 -0.640625q-1.890625 0 -2.875 1.28125q-0.984375 1.265625 -0.984375 3.578125q0 2.0625 0.96875 3.296875q0.96875 1.234375 2.640625 1.234375q1.5 0 2.359375 -0.796875q0.859375 -0.8125 1.0625 -2.21875l2.078125 0q-0.34375 2.3125 -1.75 3.578125q-1.40625 1.25 -3.71875 1.25q-2.703125 0 -4.25 -1.703125q-1.546875 -1.71875 -1.546875 -4.640625q0 -3.046875 1.5625 -4.84375q1.5625 -1.796875 4.28125 -1.796875zm17.1875 0.28125l0 1.796875l-4.4375 0l0 10.609375l-2.046875 0l0 -10.609375l-4.4375 0l0 -1.796875l10.921875 0zm6.78125 -0.28125q2.6718826 0 4.1406326 1.921875q1.484375 1.921875 1.484375 4.921875l0 0.25l-9.281258 0l0 0.15625q0 1.765625 1.03125 2.84375q1.03125 1.078125 2.828125 1.078125q1.359375 0 2.15625 -0.625q0.8125076 -0.640625 1.0625076 -1.796875l2.015625 0q-0.421875 2.0625 -1.8125 3.15625q-1.3906326 1.078125 -3.4843826 1.078125q-1.96875 0 -3.328125 -0.890625q-1.34375 -0.890625 -1.984375 -2.453125q-0.640625 -1.578125 -0.640625 -3.234375q0 -2.75 1.640625 -4.578125q1.65625 -1.828125 4.171875 -1.828125zm-3.65625 5.296875l7.1250076 0q-0.09375 -1.515625 -1.1093826 -2.515625q-1.0 -1.0 -2.5 -1.0q-1.40625 0 -2.40625 0.953125q-0.984375 0.953125 -1.109375 2.5625zm14.343758 -5.015625l3.78125 10.125l0.046875 0l3.765625 -10.125l2.90625 0l0 12.40625l-2.046875 0l0 -9.84375l-0.0625 0l-3.6875 9.84375l-1.859375 0l-3.6875 -9.84375l-0.0625 0l0 9.84375l-2.046875 0l0 -12.40625l2.953125 0zm18.636719 -0.28125q2.53125 0 3.59375 0.90625q1.0625 0.890625 1.0625 2.40625q0 6.453125 0 7.15625q0 0.703125 0.640625 0.703125q0.140625 0 0.296875 -0.03125q0.171875 -0.03125 0.328125 -0.078125l0 1.578125q-0.28125 0.171875 -0.65625 0.25q-0.359375 0.09375 -0.796875 0.09375q-0.84375 0 -1.296875 -0.46875q-0.4375 -0.484375 -0.4375 -1.453125q-0.8125 0.953125 -1.921875 1.4375q-1.09375 0.484375 -2.453125 0.484375q-1.921875 0 -3.015625 -0.90625q-1.078125 -0.921875 -1.078125 -2.578125q0 -1.671875 1.0625 -2.65625q1.0625 -0.984375 5.015625 -1.46875q1.328125 -0.171875 1.796875 -0.515625q0.484375 -0.34375 0.484375 -1.015625q0 -1.03125 -0.671875 -1.546875q-0.65625 -0.515625 -2.09375 -0.515625q-1.515625 0 -2.265625 0.578125q-0.75 0.578125 -0.8125 1.78125l-2.046875 0q0.09375 -2.0625 1.453125 -3.09375q1.359375 -1.046875 3.8125 -1.046875zm-3.578125 9.34375q0 0.875 0.625 1.359375q0.640625 0.46875 1.765625 0.46875q1.734375 0 2.765625 -0.84375q1.03125 -0.859375 1.03125 -1.921875l0 -2.125q-0.515625 0.359375 -1.34375 0.484375q-0.8125 0.125 -2.171875 0.3125q-1.359375 0.203125 -2.015625 0.75q-0.65625 0.53125 -0.65625 1.515625z" fill-rule="nonzero"></path><path fill="#000000" fill-opacity="0.0" d="m114.91338 205.89764l0 30.45668" fill-rule="nonzero"></path><path stroke="#000000" stroke-width="2.0" stroke-linejoin="round" stroke-linecap="butt" d="m114.91338 217.89764l0 6.4566803" fill-rule="evenodd"></path><path fill="#000000" stroke="#000000" stroke-width="2.0" stroke-linecap="butt" d="m118.21685 217.89764l-3.3034668 -9.076202l-3.3034592 9.076202z" fill-rule="evenodd"></path><path fill="#000000" stroke="#000000" stroke-width="2.0" stroke-linecap="butt" d="m111.609924 224.35432l3.3034592 9.076202l3.3034668 -9.076202z" fill-rule="evenodd"></path><path fill="#000000" fill-opacity="0.0" d="m344.0 205.9304l0 30.456696" fill-rule="nonzero"></path><path stroke="#000000" stroke-width="2.0" stroke-linejoin="round" stroke-linecap="butt" d="m344.0 217.9304l0 6.4566956" fill-rule="evenodd"></path><path fill="#000000" stroke="#000000" stroke-width="2.0" stroke-linecap="butt" d="m347.30347 217.9304l-3.3034668 -9.076202l-3.3034668 9.076202z" fill-rule="evenodd"></path><path fill="#000000" stroke="#000000" stroke-width="2.0" stroke-linecap="butt" d="m340.69653 224.3871l3.3034668 9.076187l3.3034668 -9.076187z" fill-rule="evenodd"></path><path fill="#000000" fill-opacity="0.0" d="m573.0952 205.92126l0 30.456696" fill-rule="nonzero"></path><path stroke="#000000" stroke-width="2.0" stroke-linejoin="round" stroke-linecap="butt" d="m573.0952 217.92126l0 6.4566956" fill-rule="evenodd"></path><path fill="#000000" stroke="#000000" stroke-width="2.0" stroke-linecap="butt" d="m576.3986 217.92126l-3.3034058 -9.076202l-3.3034668 9.076202z" fill-rule="evenodd"></path><path fill="#000000" stroke="#000000" stroke-width="2.0" stroke-linecap="butt" d="m569.79175 224.37796l3.3034668 9.076187l3.3034058 -9.076187z" fill-rule="evenodd"></path><path fill="#000000" fill-opacity="0.0" d="m344.0 342.9698l0 30.456665" fill-rule="nonzero"></path><path stroke="#000000" stroke-width="2.0" stroke-linejoin="round" stroke-linecap="butt" d="m344.0 354.9698l0 6.4566956" fill-rule="evenodd"></path><path fill="#000000" stroke="#000000" stroke-width="2.0" stroke-linecap="butt" d="m347.30347 354.9698l-3.3034668 -9.076202l-3.3034668 9.076202z" fill-rule="evenodd"></path><path fill="#000000" stroke="#000000" stroke-width="2.0" stroke-linecap="butt" d="m340.69653 361.42648l3.3034668 9.076172l3.3034668 -9.076172z" fill-rule="evenodd"></path><path fill="#000000" fill-opacity="0.0" d="m8.0026245 10.71916l213.82677 0l0 64.28346l-213.82677 0z" fill-rule="nonzero"></path><path stroke="#000000" stroke-width="2.0" stroke-linejoin="round" stroke-linecap="butt" d="m8.0026245 10.71916l213.82677 0l0 64.28346l-213.82677 0z" fill-rule="nonzero"></path><path fill="#000000" d="m52.969147 33.17964l0 19.28125l-2.578125 0l0 -17.109375l-10.140625 0l0 17.109375l-2.5625 0l0 -19.28125l15.28125 0zm10.46904 5.0q3.0 0 4.71875 2.0625q1.71875 2.046875 1.71875 5.28125q0 3.25 -1.71875 5.265625q-1.71875 2.0 -4.65625 2.0q-1.296875 0 -2.546875 -0.53125q-1.25 -0.546875 -1.96875 -1.65625l-0.0625 0l0 7.21875l-2.28125 0l0 -19.328125l2.28125 0l0 1.90625l0.0625 0q0.53125 -1.078125 1.703125 -1.640625q1.171875 -0.578125 2.75 -0.578125zm-4.59375 7.296875q0 2.421875 1.171875 3.859375q1.1875 1.421875 3.234375 1.421875q2.0 0 3.09375 -1.421875q1.09375 -1.421875 1.09375 -3.96875q0 -2.25 -1.15625 -3.703125q-1.15625 -1.46875 -3.1875 -1.46875q-2.015625 0 -3.140625 1.484375q-1.109375 1.46875 -1.109375 3.796875zm15.801117 -6.984375l0 11.34375l0.0625 0l6.265625 -11.34375l2.953125 0l0 13.96875l-2.296875 0l0 -11.34375l-0.078125 0l-6.25 11.34375l-2.9375 0l0 -13.96875l2.28125 0zm23.824936 0l0 13.96875l-2.296875 0l0 -11.9375l-5.046875 0l-0.296875 7.375q-0.078125 2.421875 -1.0625 3.640625q-0.96875 1.21875 -2.671875 1.21875q-0.4375 0 -0.8125 -0.0625q-0.359375 -0.0625 -0.78125 -0.234375l0 -1.890625q0.328125 0.125 0.609375 0.171875q0.28125 0.046875 0.5625 0.046875q0.96875 0 1.40625 -0.71875q0.453125 -0.734375 0.53125 -2.515625l0.296875 -9.0625l9.5625 0zm9.28598 -0.3125q3.171875 0 4.96875 2.046875q1.8125 2.046875 1.8125 5.265625q0 3.265625 -1.84375 5.28125q-1.84375 2.015625 -4.9375 2.015625q-3.03125 0 -4.90625 -1.984375q-1.875 -1.984375 -1.875 -5.3125q0 -3.3125 1.828125 -5.3125q1.84375 -2.0 4.953125 -2.0zm-4.34375 7.3125q0 2.40625 1.21875 3.84375q1.234375 1.421875 3.125 1.421875q1.890625 0 3.125 -1.4375q1.234375 -1.4375 1.234375 -3.828125q0 -2.375 -1.234375 -3.828125q-1.21875 -1.46875 -3.15625 -1.46875q-1.84375 0 -3.078125 1.4375q-1.234375 1.421875 -1.234375 3.859375zm15.572144 -7.0l5.625 6.34375l0.046875 0l0 -6.34375l2.296875 0l0 6.5l0.046875 0l5.734375 -6.5l2.78125 0l-5.328125 5.828125l6.09375 8.140625l-2.828125 0l-4.765625 -6.703125l-1.734375 1.8125l0 4.890625l-2.296875 0l0 -4.84375l-1.796875 -1.859375l-4.734375 6.703125l-2.8125 0l6.125 -8.140625l-5.34375 -5.828125l2.890625 0zm24.567429 -0.3125q3.0 0 4.65625 2.171875q1.671875 2.15625 1.671875 5.546875l0 0.28125l-10.453125 0l0 0.15625q0 2.0 1.15625 3.21875q1.15625 1.203125 3.1875 1.203125q1.53125 0 2.4375 -0.703125q0.90625 -0.71875 1.171875 -2.03125l2.265625 0q-0.453125 2.328125 -2.03125 3.546875q-1.5625 1.21875 -3.921875 1.21875q-2.203125 0 -3.734375 -0.984375q-1.515625 -1.0 -2.25 -2.765625q-0.71875 -1.78125 -0.71875 -3.640625q0 -3.09375 1.859375 -5.15625q1.859375 -2.0625 4.703125 -2.0625zm-4.125 5.96875l8.015625 0q-0.109375 -1.703125 -1.234375 -2.828125q-1.125 -1.125 -2.8125 -1.125q-1.59375 0 -2.71875 1.078125q-1.109375 1.0625 -1.25 2.875zm14.926697 -5.65625l0 5.578125l6.984375 0l0 -5.578125l2.296875 0l0 13.96875l-2.296875 0l0 -6.375l-6.984375 0l0 6.375l-2.28125 0l0 -13.96875l2.28125 0zm14.824936 0l0 11.34375l0.0625 0l6.265625 -11.34375l2.953125 0l0 13.96875l-2.296875 0l0 -11.34375l-0.078125 0l-6.25 11.34375l-2.9375 0l0 -13.96875l2.28125 0zm23.52806 0l0 13.96875l-2.296875 0l0 -5.703125l-3.046875 0l-4.40625 5.703125l-3.046875 0l4.78125 -5.78125q-1.59375 -0.25 -2.515625 -1.328125q-0.921875 -1.09375 -0.921875 -2.71875q0 -1.90625 1.21875 -3.015625q1.21875 -1.125 3.296875 -1.125l6.9375 0zm-9.109375 4.140625q0 1.015625 0.640625 1.5625q0.640625 0.546875 1.8125 0.546875l4.359375 0l0 -4.21875l-4.453125 0q-1.015625 0 -1.6875 0.515625q-0.671875 0.515625 -0.671875 1.59375z" fill-rule="nonzero"></path><path fill="#000000" fill-opacity="0.0" d="m237.08923 81.178474l213.82678 0l0 124.75591l-213.82678 0z" fill-rule="nonzero"></path><path stroke="#000000" stroke-width="2.0" stroke-linejoin="round" stroke-linecap="butt" d="m237.08923 81.178474l213.82678 0l0 124.75591l-213.82678 0z" fill-rule="nonzero"></path><path fill="#000000" d="m270.73895 120.04955q2.484375 0 4.328125 1.15625q1.859375 1.15625 2.859375 3.25q1.015625 2.09375 1.015625 4.5781326q0 2.5 -1.0 4.578125q-1.0 2.078125 -2.875 3.234375q-1.859375 1.15625 -4.328125 1.15625q-2.484375 0 -4.34375 -1.140625q-1.84375 -1.15625 -2.859375 -3.234375q-1.0 -2.078125 -1.0 -4.59375q0 -3.8906326 2.21875 -6.4375076q2.234375 -2.546875 5.984375 -2.546875zm-5.9375 8.984383q0 1.90625 0.6875 3.5625q0.703125 1.640625 2.0625 2.5625q1.359375 0.921875 3.1875 0.921875q2.75 0 4.328125 -1.984375q1.59375 -1.984375 1.59375 -5.0625q0 -3.0468826 -1.578125 -5.0468826q-1.5625 -2.015625 -4.375 -2.015625q-2.75 0 -4.328125 2.015625q-1.578125 2.015625 -1.578125 5.0468826zm26.859375 -3.8437576l0 12.406258l-2.03125 0l0 -10.609383l-6.203125 0l0 10.609383l-2.046875 0l0 -12.406258l10.28125 0zm8.222656 -0.28125q2.671875 0 4.140625 1.921875q1.484375 1.9218826 1.484375 4.9218826l0 0.25l-9.28125 0l0 0.15625q0 1.765625 1.03125 2.84375q1.03125 1.078125 2.828125 1.078125q1.359375 0 2.15625 -0.625q0.8125 -0.640625 1.0625 -1.796875l2.015625 0q-0.421875 2.0625 -1.8125 3.15625q-1.390625 1.078125 -3.484375 1.078125q-1.96875 0 -3.328125 -0.890625q-1.34375 -0.890625 -1.984375 -2.453125q-0.640625 -1.578125 -0.640625 -3.234375q0 -2.75 1.640625 -4.5781326q1.65625 -1.828125 4.171875 -1.828125zm-3.65625 5.2968826l7.125 0q-0.09375 -1.515625 -1.109375 -2.5156326q-1.0 -1.0 -2.5 -1.0q-1.40625 0 -2.40625 0.953125q-0.984375 0.9531326 -1.109375 2.5625076zm17.515625 -5.2968826q2.65625 0 4.1875 1.828125q1.53125 1.8281326 1.53125 4.6875076q0 2.890625 -1.53125 4.6875q-1.515625 1.78125 -4.125 1.78125q-1.171875 0 -2.28125 -0.484375q-1.09375 -0.484375 -1.75 -1.46875l-0.046875 0l0 6.421875l-2.03125 0l0 -17.171883l2.03125 0l0 1.6875l0.046875 0q0.484375 -0.96875 1.515625 -1.46875q1.046875 -0.5 2.453125 -0.5zm-4.078125 6.4687576q0 2.15625 1.03125 3.4375q1.046875 1.265625 2.875 1.265625q1.78125 0 2.75 -1.265625q0.96875 -1.265625 0.96875 -3.53125q0 -2.0 -1.03125 -3.2968826q-1.015625 -1.296875 -2.828125 -1.296875q-1.78125 0 -2.78125 1.3125076q-0.984375 1.3125 -0.984375 3.375zm17.257812 -6.4687576q2.53125 0 3.59375 0.90625q1.0625 0.890625 1.0625 2.4062576q0 6.453125 0 7.15625q0 0.703125 0.640625 0.703125q0.140625 0 0.296875 -0.03125q0.171875 -0.03125 0.328125 -0.078125l0 1.578125q-0.28125 0.171875 -0.65625 0.25q-0.359375 0.09375 -0.796875 0.09375q-0.84375 0 -1.296875 -0.46875q-0.4375 -0.484375 -0.4375 -1.453125q-0.8125 0.953125 -1.921875 1.4375q-1.09375 0.484375 -2.453125 0.484375q-1.921875 0 -3.015625 -0.90625q-1.078125 -0.921875 -1.078125 -2.578125q0 -1.671875 1.0625 -2.65625q1.0625 -0.984375 5.015625 -1.46875q1.328125 -0.171875 1.796875 -0.515625q0.484375 -0.34375 0.484375 -1.015625q0 -1.0312576 -0.671875 -1.5468826q-0.65625 -0.515625 -2.09375 -0.515625q-1.515625 0 -2.265625 0.578125q-0.75 0.578125 -0.8125 1.7812576l-2.046875 0q0.09375 -2.0625076 1.453125 -3.0937576q1.359375 -1.046875 3.8125 -1.046875zm-3.578125 9.343758q0 0.875 0.625 1.359375q0.640625 0.46875 1.765625 0.46875q1.734375 0 2.765625 -0.84375q1.03125 -0.859375 1.03125 -1.921875l0 -2.125q-0.515625 0.359375 -1.34375 0.484375q-0.8125 0.125 -2.171875 0.3125q-1.359375 0.203125 -2.015625 0.75q-0.65625 0.53125 -0.65625 1.515625zm13.4375 -9.062508l0 10.593758l6.09375 0l0 -10.593758l2.03125 0l0 10.593758l1.625 0l0 5.75l-2.046875 0l0 -3.9375l-9.75 0l0 -12.406258l2.046875 0zm13.628906 0l0 10.078133l0.046875 0l5.5625 -10.078133l2.625 0l0 12.406258l-2.03125 0l0 -10.078133l-0.0625 0l-5.5625 10.078133l-2.625 0l0 -12.406258l2.046875 0zm16.660156 -0.28125q2.8125 0 4.421875 1.8125q1.609375 1.8125076 1.609375 4.6875076q0 2.890625 -1.640625 4.6875q-1.640625 1.796875 -4.390625 1.796875q-2.6875 0 -4.359375 -1.765625q-1.65625 -1.765625 -1.65625 -4.71875q0 -2.953125 1.625 -4.7187576q1.625 -1.78125 4.390625 -1.78125zm-3.859375 6.5000076q0 2.125 1.078125 3.40625q1.09375 1.265625 2.78125 1.265625q1.671875 0 2.765625 -1.265625q1.109375 -1.28125 1.109375 -3.40625q0 -2.125 -1.09375 -3.4218826q-1.09375 -1.296875 -2.796875 -1.296875q-1.640625 0 -2.75 1.28125q-1.09375 1.2656326 -1.09375 3.4375076zm14.328125 -6.2187576l0 4.9375076l6.203125 0l0 -4.9375076l2.03125 0l0 12.406258l-2.03125 0l0 -5.65625l-6.203125 0l0 5.65625l-2.046875 0l0 -12.406258l2.046875 0zm13.347656 0l0 4.9375076l6.203125 0l0 -4.9375076l2.03125 0l0 12.406258l-2.03125 0l0 -5.65625l-6.203125 0l0 5.65625l-2.046875 0l0 -12.406258l2.046875 0zm16.378906 -0.28125q2.53125 0 3.59375 0.90625q1.0625 0.890625 1.0625 2.4062576q0 6.453125 0 7.15625q0 0.703125 0.640625 0.703125q0.140625 0 0.296875 -0.03125q0.171875 -0.03125 0.328125 -0.078125l0 1.578125q-0.28125 0.171875 -0.65625 0.25q-0.359375 0.09375 -0.796875 0.09375q-0.84375 0 -1.296875 -0.46875q-0.4375 -0.484375 -0.4375 -1.453125q-0.8125 0.953125 -1.921875 1.4375q-1.09375 0.484375 -2.453125 0.484375q-1.921875 0 -3.015625 -0.90625q-1.078125 -0.921875 -1.078125 -2.578125q0 -1.671875 1.0625 -2.65625q1.0625 -0.984375 5.015625 -1.46875q1.328125 -0.171875 1.796875 -0.515625q0.484375 -0.34375 0.484375 -1.015625q0 -1.0312576 -0.671875 -1.5468826q-0.65625 -0.515625 -2.09375 -0.515625q-1.515625 0 -2.265625 0.578125q-0.75 0.578125 -0.8125 1.7812576l-2.046875 0q0.09375 -2.0625076 1.453125 -3.0937576q1.359375 -1.046875 3.8125 -1.046875zm-3.578125 9.343758q0 0.875 0.625 1.359375q0.640625 0.46875 1.765625 0.46875q1.734375 0 2.765625 -0.84375q1.03125 -0.859375 1.03125 -1.921875l0 -2.125q-0.515625 0.359375 -1.34375 0.484375q-0.8125 0.125 -2.171875 0.3125q-1.359375 0.203125 -2.015625 0.75q-0.65625 0.53125 -0.65625 1.515625zm21.171875 -9.062508l0 12.406258l-2.046875 0l0 -5.0625l-2.71875 0l-3.90625 5.0625l-2.71875 0l4.265625 -5.140625q-1.421875 -0.234375 -2.25 -1.1875q-0.8125 -0.96875 -0.8125 -2.40625q0 -1.7031326 1.078125 -2.6875076q1.09375 -0.984375 2.9375 -0.984375l6.171875 0zm-8.09375 3.6718826q0 0.90625 0.5625 1.390625q0.5625 0.46875 1.609375 0.46875l3.875 0l0 -3.7343826l-3.953125 0q-0.90625 0 -1.5 0.46875q-0.59375 0.453125 -0.59375 1.4062576z" fill-rule="nonzero"></path><path fill="#000000" d="m304.45575 153.90894q2.265625 0 3.6875 1.078125q1.421875 1.078125 1.671875 3.1875l-2.109375 0q-0.25 -1.21875 -1.0625 -1.84375q-0.796875 -0.640625 -2.015625 -0.640625q-1.890625 0 -2.875 1.28125q-0.984375 1.265625 -0.984375 3.578125q0 2.0625 0.96875 3.296875q0.96875 1.234375 2.640625 1.234375q1.5 0 2.359375 -0.796875q0.859375 -0.8125 1.0625 -2.21875l2.078125 0q-0.34375 2.3125 -1.75 3.578125q-1.40625 1.25 -3.71875 1.25q-2.703125 0 -4.25 -1.703125q-1.546875 -1.71875 -1.546875 -4.640625q0 -3.046875 1.5625 -4.84375q1.5625 -1.796875 4.28125 -1.796875zm9.75 0.28125l0 10.078125l0.046875 0l5.5625 -10.078125l2.625 0l0 12.40625l-2.03125 0l0 -10.078125l-0.0625 0l-5.5625 10.078125l-2.625 0l0 -12.40625l2.046875 0zm16.488281 -0.28125q2.265625 0 3.6875 1.078125q1.421875 1.078125 1.671875 3.1875l-2.109375 0q-0.25 -1.21875 -1.0625 -1.84375q-0.796875 -0.640625 -2.015625 -0.640625q-1.890625 0 -2.875 1.28125q-0.984375 1.265625 -0.984375 3.578125q0 2.0625 0.96875 3.296875q0.96875 1.234375 2.640625 1.234375q1.5 0 2.359375 -0.796875q0.859375 -0.8125 1.0625 -2.21875l2.078125 0q-0.34375 2.3125 -1.75 3.578125q-1.40625 1.25 -3.71875 1.25q-2.703125 0 -4.25 -1.703125q-1.546875 -1.71875 -1.546875 -4.640625q0 -3.046875 1.5625 -4.84375q1.5625 -1.796875 4.28125 -1.796875zm17.1875 0.28125l0 1.796875l-4.4375 0l0 10.609375l-2.046875 0l0 -10.609375l-4.4375 0l0 -1.796875l10.921875 0zm6.78125 -0.28125q2.671875 0 4.140625 1.921875q1.484375 1.921875 1.484375 4.921875l0 0.25l-9.28125 0l0 0.15625q0 1.765625 1.03125 2.84375q1.03125 1.078125 2.828125 1.078125q1.359375 0 2.15625 -0.625q0.8125 -0.640625 1.0625 -1.796875l2.015625 0q-0.421875 2.0625 -1.8125 3.15625q-1.390625 1.078125 -3.484375 1.078125q-1.96875 0 -3.328125 -0.890625q-1.34375 -0.890625 -1.984375 -2.453125q-0.640625 -1.578125 -0.640625 -3.234375q0 -2.75 1.640625 -4.578125q1.65625 -1.828125 4.171875 -1.828125zm-3.65625 5.296875l7.125 0q-0.09375 -1.515625 -1.109375 -2.515625q-1.0 -1.0 -2.5 -1.0q-1.40625 0 -2.40625 0.953125q-0.984375 0.953125 -1.109375 2.5625zm14.34375 -5.015625l3.78125 10.125l0.046875 0l3.765625 -10.125l2.90625 0l0 12.40625l-2.046875 0l0 -9.84375l-0.0625 0l-3.6875 9.84375l-1.859375 0l-3.6875 -9.84375l-0.0625 0l0 9.84375l-2.046875 0l0 -12.40625l2.953125 0zm18.636719 -0.28125q2.53125 0 3.59375 0.90625q1.0625 0.890625 1.0625 2.40625q0 6.453125 0 7.15625q0 0.703125 0.640625 0.703125q0.140625 0 0.296875 -0.03125q0.171875 -0.03125 0.328125 -0.078125l0 1.578125q-0.28125 0.171875 -0.65625 0.25q-0.359375 0.09375 -0.796875 0.09375q-0.84375 0 -1.296875 -0.46875q-0.4375 -0.484375 -0.4375 -1.453125q-0.8125 0.953125 -1.921875 1.4375q-1.09375 0.484375 -2.453125 0.484375q-1.921875 0 -3.015625 -0.90625q-1.078125 -0.921875 -1.078125 -2.578125q0 -1.671875 1.0625 -2.65625q1.0625 -0.984375 5.015625 -1.46875q1.328125 -0.171875 1.796875 -0.515625q0.484375 -0.34375 0.484375 -1.015625q0 -1.03125 -0.671875 -1.546875q-0.65625 -0.515625 -2.09375 -0.515625q-1.515625 0 -2.265625 0.578125q-0.75 0.578125 -0.8125 1.78125l-2.046875 0q0.09375 -2.0625 1.453125 -3.09375q1.359375 -1.046875 3.8125 -1.046875zm-3.578125 9.34375q0 0.875 0.625 1.359375q0.640625 0.46875 1.765625 0.46875q1.734375 0 2.765625 -0.84375q1.03125 -0.859375 1.03125 -1.921875l0 -2.125q-0.515625 0.359375 -1.34375 0.484375q-0.8125 0.125 -2.171875 0.3125q-1.359375 0.203125 -2.015625 0.75q-0.65625 0.53125 -0.65625 1.515625z" fill-rule="nonzero"></path><path fill="#000000" fill-opacity="0.0" d="m237.09186 10.745407l213.82678 0l0 64.28346l-213.82678 0z" fill-rule="nonzero"></path><path stroke="#000000" stroke-width="2.0" stroke-linejoin="round" stroke-linecap="butt" d="m237.09186 10.745407l213.82678 0l0 64.28346l-213.82678 0z" fill-rule="nonzero"></path><path fill="#000000" d="m282.05838 33.205887l0 19.28125l-2.578125 0l0 -17.109375l-10.140625 0l0 17.109375l-2.5625 0l0 -19.28125l15.28125 0zm10.469055 5.0q3.0 0 4.71875 2.0625q1.71875 2.046875 1.71875 5.28125q0 3.25 -1.71875 5.265625q-1.71875 2.0 -4.65625 2.0q-1.296875 0 -2.546875 -0.53125q-1.25 -0.546875 -1.96875 -1.65625l-0.0625 0l0 7.21875l-2.28125 0l0 -19.328125l2.28125 0l0 1.90625l0.0625 0q0.53125 -1.078125 1.703125 -1.640625q1.171875 -0.578125 2.75 -0.578125zm-4.59375 7.296875q0 2.421875 1.171875 3.859375q1.1875 1.421875 3.234375 1.421875q2.0 0 3.09375 -1.421875q1.09375 -1.421875 1.09375 -3.96875q0 -2.25 -1.15625 -3.703125q-1.15625 -1.46875 -3.1875 -1.46875q-2.015625 0 -3.140625 1.484375q-1.109375 1.46875 -1.109375 3.796875zm15.801117 -6.984375l0 11.34375l0.0625 0l6.265625 -11.34375l2.953125 0l0 13.96875l-2.296875 0l0 -11.34375l-0.078125 0l-6.25 11.34375l-2.9375 0l0 -13.96875l2.28125 0zm23.82492 0l0 13.96875l-2.296875 0l0 -11.9375l-5.046875 0l-0.296875 7.375q-0.078125 2.421875 -1.0625 3.640625q-0.96875 1.21875 -2.671875 1.21875q-0.4375 0 -0.8125 -0.0625q-0.359375 -0.0625 -0.78125 -0.234375l0 -1.890625q0.328125 0.125 0.609375 0.171875q0.28125 0.046875 0.5625 0.046875q0.96875 0 1.40625 -0.71875q0.453125 -0.734375 0.53125 -2.515625l0.296875 -9.0625l9.5625 0zm9.28598 -0.3125q3.171875 0 4.96875 2.046875q1.8125 2.046875 1.8125 5.265625q0 3.265625 -1.84375 5.28125q-1.84375 2.015625 -4.9375 2.015625q-3.03125 0 -4.90625 -1.984375q-1.875 -1.984375 -1.875 -5.3125q0 -3.3125 1.828125 -5.3125q1.84375 -2.0 4.953125 -2.0zm-4.34375 7.3125q0 2.40625 1.21875 3.84375q1.234375 1.421875 3.125 1.421875q1.890625 0 3.125 -1.4375q1.234375 -1.4375 1.234375 -3.828125q0 -2.375 -1.234375 -3.828125q-1.21875 -1.46875 -3.15625 -1.46875q-1.84375 0 -3.078125 1.4375q-1.234375 1.421875 -1.234375 3.859375zm15.572144 -7.0l5.625 6.34375l0.046875 0l0 -6.34375l2.296875 0l0 6.5l0.046875 0l5.734375 -6.5l2.78125 0l-5.328125 5.828125l6.09375 8.140625l-2.828125 0l-4.765625 -6.703125l-1.734375 1.8125l0 4.890625l-2.296875 0l0 -4.84375l-1.796875 -1.859375l-4.734375 6.703125l-2.8125 0l6.125 -8.140625l-5.34375 -5.828125l2.890625 0zm24.567444 -0.3125q3.0 0 4.65625 2.171875q1.671875 2.15625 1.671875 5.546875l0 0.28125l-10.453125 0l0 0.15625q0 2.0 1.15625 3.21875q1.15625 1.203125 3.1875 1.203125q1.53125 0 2.4375 -0.703125q0.90625 -0.71875 1.171875 -2.03125l2.265625 0q-0.453125 2.328125 -2.03125 3.546875q-1.5625 1.21875 -3.921875 1.21875q-2.203125 0 -3.734375 -0.984375q-1.515625 -1.0 -2.25 -2.765625q-0.71875 -1.78125 -0.71875 -3.640625q0 -3.09375 1.859375 -5.15625q1.859375 -2.0625 4.703125 -2.0625zm-4.125 5.96875l8.015625 0q-0.109375 -1.703125 -1.234375 -2.828125q-1.125 -1.125 -2.8125 -1.125q-1.59375 0 -2.71875 1.078125q-1.109375 1.0625 -1.25 2.875zm14.926697 -5.65625l0 5.578125l6.984375 0l0 -5.578125l2.296875 0l0 13.96875l-2.296875 0l0 -6.375l-6.984375 0l0 6.375l-2.28125 0l0 -13.96875l2.28125 0zm14.824921 0l0 11.34375l0.0625 0l6.265625 -11.34375l2.953125 0l0 13.96875l-2.296875 0l0 -11.34375l-0.078125 0l-6.25 11.34375l-2.9375 0l0 -13.96875l2.28125 0zm23.528076 0l0 13.96875l-2.296875 0l0 -5.703125l-3.046875 0l-4.40625 5.703125l-3.046875 0l4.78125 -5.78125q-1.59375 -0.25 -2.515625 -1.328125q-0.921875 -1.09375 -0.921875 -2.71875q0 -1.90625 1.21875 -3.015625q1.21875 -1.125 3.296875 -1.125l6.9375 0zm-9.109375 4.140625q0 1.015625 0.640625 1.5625q0.640625 0.546875 1.8125 0.546875l4.359375 0l0 -4.21875l-4.453125 0q-1.015625 0 -1.6875 0.515625q-0.671875 0.515625 -0.671875 1.59375z" fill-rule="nonzero"></path><path fill="#000000" fill-opacity="0.0" d="m466.1811 81.16798l213.82678 0l0 124.75591l-213.82678 0z" fill-rule="nonzero"></path><path stroke="#000000" stroke-width="2.0" stroke-linejoin="round" stroke-linecap="butt" d="m466.1811 81.16798l213.82678 0l0 124.75591l-213.82678 0z" fill-rule="nonzero"></path><path fill="#000000" d="m499.8308 120.039055q2.484375 0 4.328125 1.15625q1.859375 1.15625 2.859375 3.25q1.015625 2.09375 1.015625 4.5781326q0 2.5 -1.0 4.578125q-1.0 2.078125 -2.875 3.234375q-1.859375 1.15625 -4.328125 1.15625q-2.484375 0 -4.34375 -1.140625q-1.84375 -1.15625 -2.859375 -3.234375q-1.0 -2.078125 -1.0 -4.59375q0 -3.8906326 2.21875 -6.4375076q2.234375 -2.546875 5.984375 -2.546875zm-5.9375 8.984383q0 1.90625 0.6875 3.5625q0.703125 1.640625 2.0625 2.5625q1.359375 0.921875 3.1875 0.921875q2.75 0 4.328125 -1.984375q1.59375 -1.984375 1.59375 -5.0625q0 -3.0468826 -1.578125 -5.0468826q-1.5625 -2.015625 -4.375 -2.015625q-2.75 0 -4.328125 2.015625q-1.578125 2.015625 -1.578125 5.0468826zm26.859375 -3.8437576l0 12.406258l-2.03125 0l0 -10.609383l-6.203125 0l0 10.609383l-2.046875 0l0 -12.406258l10.28125 0zm8.222656 -0.28125q2.671875 0 4.140625 1.921875q1.484375 1.9218826 1.484375 4.9218826l0 0.25l-9.28125 0l0 0.15625q0 1.765625 1.03125 2.84375q1.03125 1.078125 2.828125 1.078125q1.359375 0 2.15625 -0.625q0.8125 -0.640625 1.0625 -1.796875l2.015625 0q-0.421875 2.0625 -1.8125 3.15625q-1.390625 1.078125 -3.484375 1.078125q-1.96875 0 -3.328125 -0.890625q-1.34375 -0.890625 -1.984375 -2.453125q-0.640625 -1.578125 -0.640625 -3.234375q0 -2.75 1.640625 -4.5781326q1.65625 -1.828125 4.171875 -1.828125zm-3.65625 5.2968826l7.125 0q-0.09375 -1.515625 -1.109375 -2.5156326q-1.0 -1.0 -2.5 -1.0q-1.40625 0 -2.40625 0.953125q-0.984375 0.9531326 -1.109375 2.5625076zm17.515625 -5.2968826q2.65625 0 4.1875 1.828125q1.53125 1.8281326 1.53125 4.6875076q0 2.890625 -1.53125 4.6875q-1.515625 1.78125 -4.125 1.78125q-1.171875 0 -2.28125 -0.484375q-1.09375 -0.484375 -1.75 -1.46875l-0.046875 0l0 6.421875l-2.03125 0l0 -17.171883l2.03125 0l0 1.6875l0.046875 0q0.484375 -0.96875 1.515625 -1.46875q1.046875 -0.5 2.453125 -0.5zm-4.078125 6.4687576q0 2.15625 1.03125 3.4375q1.046875 1.265625 2.875 1.265625q1.78125 0 2.75 -1.265625q0.96875 -1.265625 0.96875 -3.53125q0 -2.0 -1.03125 -3.2968826q-1.015625 -1.296875 -2.828125 -1.296875q-1.78125 0 -2.78125 1.3125q-0.984375 1.3125076 -0.984375 3.3750076zm17.257812 -6.4687576q2.53125 0 3.59375 0.90625q1.0625 0.890625 1.0625 2.4062576q0 6.453125 0 7.15625q0 0.703125 0.640625 0.703125q0.140625 0 0.296875 -0.03125q0.171875 -0.03125 0.328125 -0.078125l0 1.578125q-0.28125 0.171875 -0.65625 0.25q-0.359375 0.09375 -0.796875 0.09375q-0.84375 0 -1.296875 -0.46875q-0.4375 -0.484375 -0.4375 -1.453125q-0.8125 0.953125 -1.921875 1.4375q-1.09375 0.484375 -2.453125 0.484375q-1.921875 0 -3.015625 -0.90625q-1.078125 -0.921875 -1.078125 -2.578125q0 -1.671875 1.0625 -2.65625q1.0625 -0.984375 5.015625 -1.46875q1.328125 -0.171875 1.796875 -0.515625q0.484375 -0.34375 0.484375 -1.015625q0 -1.0312576 -0.671875 -1.5468826q-0.65625 -0.515625 -2.09375 -0.515625q-1.515625 0 -2.265625 0.578125q-0.75 0.578125 -0.8125 1.7812576l-2.046875 0q0.09375 -2.0625076 1.453125 -3.0937576q1.359375 -1.046875 3.8125 -1.046875zm-3.578125 9.343758q0 0.875 0.625 1.359375q0.640625 0.46875 1.765625 0.46875q1.734375 0 2.765625 -0.84375q1.03125 -0.859375 1.03125 -1.921875l0 -2.125q-0.515625 0.359375 -1.34375 0.484375q-0.8125 0.125 -2.171875 0.3125q-1.359375 0.203125 -2.015625 0.75q-0.65625 0.53125 -0.65625 1.515625zm13.4375 -9.062508l0 10.593758l6.09375 0l0 -10.593758l2.03125 0l0 10.593758l1.625 0l0 5.75l-2.046875 0l0 -3.9375l-9.75 0l0 -12.406258l2.046875 0zm13.628906 0l0 10.078133l0.046875 0l5.5625 -10.078133l2.625 0l0 12.406258l-2.03125 0l0 -10.078133l-0.0625 0l-5.5625 10.078133l-2.625 0l0 -12.406258l2.046875 0zm16.660156 -0.28125q2.8125 0 4.421875 1.8125q1.609375 1.8125076 1.609375 4.6875076q0 2.890625 -1.640625 4.6875q-1.640625 1.796875 -4.390625 1.796875q-2.6875 0 -4.359375 -1.765625q-1.65625 -1.765625 -1.65625 -4.71875q0 -2.953125 1.625 -4.7187576q1.625 -1.78125 4.390625 -1.78125zm-3.859375 6.5000076q0 2.125 1.078125 3.40625q1.09375 1.265625 2.78125 1.265625q1.671875 0 2.765625 -1.265625q1.109375 -1.28125 1.109375 -3.40625q0 -2.125 -1.09375 -3.4218826q-1.09375 -1.296875 -2.796875 -1.296875q-1.640625 0 -2.75 1.28125q-1.09375 1.2656326 -1.09375 3.4375076zm14.328125 -6.2187576l0 4.9375076l6.203125 0l0 -4.9375076l2.03125 0l0 12.406258l-2.03125 0l0 -5.65625l-6.203125 0l0 5.65625l-2.046875 0l0 -12.406258l2.046875 0zm13.347656 0l0 4.9375076l6.203125 0l0 -4.9375076l2.03125 0l0 12.406258l-2.03125 0l0 -5.65625l-6.203125 0l0 5.65625l-2.046875 0l0 -12.406258l2.046875 0zm16.378906 -0.28125q2.53125 0 3.59375 0.90625q1.0625 0.890625 1.0625 2.4062576q0 6.453125 0 7.15625q0 0.703125 0.640625 0.703125q0.140625 0 0.296875 -0.03125q0.171875 -0.03125 0.328125 -0.078125l0 1.578125q-0.28125 0.171875 -0.65625 0.25q-0.359375 0.09375 -0.796875 0.09375q-0.84375 0 -1.296875 -0.46875q-0.4375 -0.484375 -0.4375 -1.453125q-0.8125 0.953125 -1.921875 1.4375q-1.09375 0.484375 -2.453125 0.484375q-1.921875 0 -3.015625 -0.90625q-1.078125 -0.921875 -1.078125 -2.578125q0 -1.671875 1.0625 -2.65625q1.0625 -0.984375 5.015625 -1.46875q1.328125 -0.171875 1.796875 -0.515625q0.484375 -0.34375 0.484375 -1.015625q0 -1.0312576 -0.671875 -1.5468826q-0.65625 -0.515625 -2.09375 -0.515625q-1.515625 0 -2.265625 0.578125q-0.75 0.578125 -0.8125 1.7812576l-2.046875 0q0.09375 -2.0625076 1.453125 -3.0937576q1.359375 -1.046875 3.8125 -1.046875zm-3.578125 9.343758q0 0.875 0.625 1.359375q0.640625 0.46875 1.765625 0.46875q1.734375 0 2.765625 -0.84375q1.03125 -0.859375 1.03125 -1.921875l0 -2.125q-0.515625 0.359375 -1.34375 0.484375q-0.8125 0.125 -2.171875 0.3125q-1.359375 0.203125 -2.015625 0.75q-0.65625 0.53125 -0.65625 1.515625zm21.171875 -9.062508l0 12.406258l-2.046875 0l0 -5.0625l-2.71875 0l-3.90625 5.0625l-2.71875 0l4.265625 -5.140625q-1.421875 -0.234375 -2.25 -1.1875q-0.8125 -0.96875 -0.8125 -2.40625q0 -1.7031326 1.078125 -2.6875076q1.09375 -0.984375 2.9375 -0.984375l6.171875 0zm-8.09375 3.6718826q0 0.90625 0.5625 1.390625q0.5625 0.46875 1.609375 0.46875l3.875 0l0 -3.7343826l-3.953125 0q-0.90625 0 -1.5 0.46875q-0.59375 0.453125 -0.59375 1.4062576z" fill-rule="nonzero"></path><path fill="#000000" d="m533.5476 153.89844q2.265625 0 3.6875 1.078125q1.421875 1.078125 1.671875 3.1875l-2.109375 0q-0.25 -1.21875 -1.0625 -1.84375q-0.796875 -0.640625 -2.015625 -0.640625q-1.890625 0 -2.875 1.28125q-0.984375 1.265625 -0.984375 3.578125q0 2.0625 0.96875 3.296875q0.96875 1.234375 2.640625 1.234375q1.5 0 2.359375 -0.796875q0.859375 -0.8125 1.0625 -2.21875l2.078125 0q-0.34375 2.3125 -1.75 3.578125q-1.40625 1.25 -3.71875 1.25q-2.703125 0 -4.25 -1.703125q-1.546875 -1.71875 -1.546875 -4.640625q0 -3.046875 1.5625 -4.84375q1.5625 -1.796875 4.28125 -1.796875zm9.75 0.28125l0 10.078125l0.046875 0l5.5625 -10.078125l2.625 0l0 12.40625l-2.03125 0l0 -10.078125l-0.0625 0l-5.5625 10.078125l-2.625 0l0 -12.40625l2.046875 0zm16.488281 -0.28125q2.265625 0 3.6875 1.078125q1.421875 1.078125 1.671875 3.1875l-2.109375 0q-0.25 -1.21875 -1.0625 -1.84375q-0.796875 -0.640625 -2.015625 -0.640625q-1.890625 0 -2.875 1.28125q-0.984375 1.265625 -0.984375 3.578125q0 2.0625 0.96875 3.296875q0.96875 1.234375 2.640625 1.234375q1.5 0 2.359375 -0.796875q0.859375 -0.8125 1.0625 -2.21875l2.078125 0q-0.34375 2.3125 -1.75 3.578125q-1.40625 1.25 -3.71875 1.25q-2.703125 0 -4.25 -1.703125q-1.546875 -1.71875 -1.546875 -4.640625q0 -3.046875 1.5625 -4.84375q1.5625 -1.796875 4.28125 -1.796875zm17.1875 0.28125l0 1.796875l-4.4375 0l0 10.609375l-2.046875 0l0 -10.609375l-4.4375 0l0 -1.796875l10.921875 0zm6.78125 -0.28125q2.671875 0 4.140625 1.921875q1.484375 1.921875 1.484375 4.921875l0 0.25l-9.28125 0l0 0.15625q0 1.765625 1.03125 2.84375q1.03125 1.078125 2.828125 1.078125q1.359375 0 2.15625 -0.625q0.8125 -0.640625 1.0625 -1.796875l2.015625 0q-0.421875 2.0625 -1.8125 3.15625q-1.390625 1.078125 -3.484375 1.078125q-1.96875 0 -3.328125 -0.890625q-1.34375 -0.890625 -1.984375 -2.453125q-0.640625 -1.578125 -0.640625 -3.234375q0 -2.75 1.640625 -4.578125q1.65625 -1.828125 4.171875 -1.828125zm-3.65625 5.296875l7.125 0q-0.09375 -1.515625 -1.109375 -2.515625q-1.0 -1.0 -2.5 -1.0q-1.40625 0 -2.40625 0.953125q-0.984375 0.953125 -1.109375 2.5625zm14.34375 -5.015625l3.78125 10.125l0.046875 0l3.765625 -10.125l2.90625 0l0 12.40625l-2.046875 0l0 -9.84375l-0.0625 0l-3.6875 9.84375l-1.859375 0l-3.6875 -9.84375l-0.0625 0l0 9.84375l-2.046875 0l0 -12.40625l2.953125 0zm18.636719 -0.28125q2.53125 0 3.59375 0.90625q1.0625 0.890625 1.0625 2.40625q0 6.453125 0 7.15625q0 0.703125 0.640625 0.703125q0.140625 0 0.296875 -0.03125q0.171875 -0.03125 0.328125 -0.078125l0 1.578125q-0.28125 0.171875 -0.65625 0.25q-0.359375 0.09375 -0.796875 0.09375q-0.84375 0 -1.296875 -0.46875q-0.4375 -0.484375 -0.4375 -1.453125q-0.8125 0.953125 -1.921875 1.4375q-1.09375 0.484375 -2.453125 0.484375q-1.921875 0 -3.015625 -0.90625q-1.078125 -0.921875 -1.078125 -2.578125q0 -1.671875 1.0625 -2.65625q1.0625 -0.984375 5.015625 -1.46875q1.328125 -0.171875 1.796875 -0.515625q0.484375 -0.34375 0.484375 -1.015625q0 -1.03125 -0.671875 -1.546875q-0.65625 -0.515625 -2.09375 -0.515625q-1.515625 0 -2.265625 0.578125q-0.75 0.578125 -0.8125 1.78125l-2.046875 0q0.09375 -2.0625 1.453125 -3.09375q1.359375 -1.046875 3.8125 -1.046875zm-3.578125 9.34375q0 0.875 0.625 1.359375q0.640625 0.46875 1.765625 0.46875q1.734375 0 2.765625 -0.84375q1.03125 -0.859375 1.03125 -1.921875l0 -2.125q-0.515625 0.359375 -1.34375 0.484375q-0.8125 0.125 -2.171875 0.3125q-1.359375 0.203125 -2.015625 0.75q-0.65625 0.53125 -0.65625 1.515625z" fill-rule="nonzero"></path><path fill="#000000" fill-opacity="0.0" d="m466.18372 10.724409l213.82678 0l0 64.28346l-213.82678 0z" fill-rule="nonzero"></path><path stroke="#000000" stroke-width="2.0" stroke-linejoin="round" stroke-linecap="butt" d="m466.18372 10.724409l213.82678 0l0 64.28346l-213.82678 0z" fill-rule="nonzero"></path><path fill="#000000" d="m511.15024 33.18489l0 19.28125l-2.578125 0l0 -17.109375l-10.140625 0l0 17.109375l-2.5625 0l0 -19.28125l15.28125 0zm10.469025 5.0q3.0 0 4.71875 2.0625q1.71875 2.046875 1.71875 5.28125q0 3.25 -1.71875 5.265625q-1.71875 2.0 -4.65625 2.0q-1.296875 0 -2.546875 -0.53125q-1.25 -0.546875 -1.96875 -1.65625l-0.0625 0l0 7.21875l-2.28125 0l0 -19.328125l2.28125 0l0 1.90625l0.0625 0q0.53125 -1.078125 1.703125 -1.640625q1.171875 -0.578125 2.75 -0.578125zm-4.59375 7.296875q0 2.421875 1.171875 3.859375q1.1875 1.421875 3.234375 1.421875q2.0 0 3.09375 -1.421875q1.09375 -1.421875 1.09375 -3.96875q0 -2.25 -1.15625 -3.703125q-1.15625 -1.46875 -3.1875 -1.46875q-2.015625 0 -3.140625 1.484375q-1.109375 1.46875 -1.109375 3.796875zm15.801147 -6.984375l0 11.34375l0.0625 0l6.265625 -11.34375l2.953125 0l0 13.96875l-2.296875 0l0 -11.34375l-0.078125 0l-6.25 11.34375l-2.9375 0l0 -13.96875l2.28125 0zm23.824951 0l0 13.96875l-2.296875 0l0 -11.9375l-5.046875 0l-0.296875 7.375q-0.078125 2.421875 -1.0625 3.640625q-0.96875 1.21875 -2.671875 1.21875q-0.4375 0 -0.8125 -0.0625q-0.359375 -0.0625 -0.78125 -0.234375l0 -1.890625q0.328125 0.125 0.609375 0.171875q0.28125 0.046875 0.5625 0.046875q0.96875 0 1.40625 -0.71875q0.453125 -0.734375 0.53125 -2.515625l0.296875 -9.0625l9.5625 0zm9.28595 -0.3125q3.171875 0 4.96875 2.046875q1.8125 2.046875 1.8125 5.265625q0 3.265625 -1.84375 5.28125q-1.84375 2.015625 -4.9375 2.015625q-3.03125 0 -4.90625 -1.984375q-1.875 -1.984375 -1.875 -5.3125q0 -3.3125 1.828125 -5.3125q1.84375 -2.0 4.953125 -2.0zm-4.34375 7.3125q0 2.40625 1.21875 3.84375q1.234375 1.421875 3.125 1.421875q1.890625 0 3.125 -1.4375q1.234375 -1.4375 1.234375 -3.828125q0 -2.375 -1.234375 -3.828125q-1.21875 -1.46875 -3.15625 -1.46875q-1.84375 0 -3.078125 1.4375q-1.234375 1.421875 -1.234375 3.859375zm15.572144 -7.0l5.625 6.34375l0.046875 0l0 -6.34375l2.296875 0l0 6.5l0.046875 0l5.734375 -6.5l2.78125 0l-5.328125 5.828125l6.09375 8.140625l-2.828125 0l-4.765625 -6.703125l-1.734375 1.8125l0 4.890625l-2.296875 0l0 -4.84375l-1.796875 -1.859375l-4.734375 6.703125l-2.8125 0l6.125 -8.140625l-5.34375 -5.828125l2.890625 0zm24.567444 -0.3125q3.0 0 4.65625 2.171875q1.671875 2.15625 1.671875 5.546875l0 0.28125l-10.453125 0l0 0.15625q0 2.0 1.15625 3.21875q1.15625 1.203125 3.1875 1.203125q1.53125 0 2.4375 -0.703125q0.90625 -0.71875 1.171875 -2.03125l2.265625 0q-0.453125 2.328125 -2.03125 3.546875q-1.5625 1.21875 -3.921875 1.21875q-2.203125 0 -3.734375 -0.984375q-1.515625 -1.0 -2.25 -2.765625q-0.71875 -1.78125 -0.71875 -3.640625q0 -3.09375 1.859375 -5.15625q1.859375 -2.0625 4.703125 -2.0625zm-4.125 5.96875l8.015625 0q-0.109375 -1.703125 -1.234375 -2.828125q-1.125 -1.125 -2.8125 -1.125q-1.59375 0 -2.71875 1.078125q-1.109375 1.0625 -1.25 2.875zm14.926697 -5.65625l0 5.578125l6.984375 0l0 -5.578125l2.296875 0l0 13.96875l-2.296875 0l0 -6.375l-6.984375 0l0 6.375l-2.28125 0l0 -13.96875l2.28125 0zm14.824951 0l0 11.34375l0.0625 0l6.265625 -11.34375l2.953125 0l0 13.96875l-2.296875 0l0 -11.34375l-0.078125 0l-6.25 11.34375l-2.9375 0l0 -13.96875l2.28125 0zm23.528015 0l0 13.96875l-2.296875 0l0 -5.703125l-3.046875 0l-4.40625 5.703125l-3.046875 0l4.78125 -5.78125q-1.59375 -0.25 -2.515625 -1.328125q-0.921875 -1.09375 -0.921875 -2.71875q0 -1.90625 1.21875 -3.015625q1.21875 -1.125 3.296875 -1.125l6.9375 0zm-9.109375 4.140625q0 1.015625 0.640625 1.5625q0.640625 0.546875 1.8125 0.546875l4.359375 0l0 -4.21875l-4.453125 0q-1.015625 0 -1.6875 0.515625q-0.671875 0.515625 -0.671875 1.59375z" fill-rule="nonzero"></path></g></svg>

